<?xml version="1.0" encoding="utf-8"?>
<svg version="1.1" id="Layer_1" x="0px" y="0px" style="enable-background:new 0 0 841.89 595.28;" viewBox="227.606 131.312 462 312.176" xmlns="http://www.w3.org/2000/svg">
  <style type="text/css">
	.st0{fill:#EE3B3B;}
	.st1{fill:#646566;}
	.st2{fill:#DE643C;}
</style>
  <path class="st0" d="M 672.949 216.825 C 666.259 170.215 634.059 152.325 613.359 145.585 C 604.809 142.795 595.809 141.625 586.809 141.625 L 522.239 141.625 L 522.239 330.245 L 522.239 433.175 L 544.169 433.175 C 544.169 433.175 543.229 223.405 544.479 208.055 C 545.739 192.705 554.509 192.385 554.509 192.385 C 595.239 183.615 607.769 207.425 607.769 207.425 C 629.079 250.355 591.479 269.865 591.479 269.865 C 584.759 272.755 585.519 276.705 585.519 276.705 L 585.519 317.565 C 585.519 319.615 587.049 321.445 589.099 321.565 C 605.069 322.455 623.749 312.715 623.749 312.715 C 623.749 312.715 682.979 286.705 672.949 216.825 Z"/>
  <polygon class="st1" points="453.939 141.636 317.469 330.256 398.609 330.256 472.419 229.675 472.419 330.256 472.419 433.105 522.239 433.105 522.239 330.256 522.239 141.636"/>
  <polygon class="st2" points="323.199 433.025 398.609 330.256 317.469 330.256 243.119 433.025"/>
</svg>