<?xml version="1.0" encoding="utf-8"?>
<!-- Generator: Adobe Illustrator 25.2.1, SVG Export Plug-In . SVG Version: 6.00 Build 0)  -->
<svg version="1.1" id="Layer_1" xmlns="http://www.w3.org/2000/svg" xmlns:xlink="http://www.w3.org/1999/xlink" x="0px" y="0px"
	 viewBox="0 0 841.89 595.28" style="enable-background:new 0 0 841.89 595.28;" xml:space="preserve">
<style type="text/css">
	.st0{fill:#EE3B3B;}
	.st1{fill:#646566;}
	.st2{fill:#DE643C;}
</style>
<path class="st0" d="M635.33,223.85c-6.69-46.61-38.89-64.5-59.59-71.24c-8.55-2.79-17.55-3.96-26.55-3.96h-64.57v188.62V440.2
	h21.93c0,0-0.94-209.77,0.31-225.12c1.26-15.35,10.03-15.67,10.03-15.67c40.73-8.77,53.26,15.04,53.26,15.04
	c21.31,42.93-16.29,62.44-16.29,62.44c-6.72,2.89-5.96,6.84-5.96,6.84l0,40.86c0,2.05,1.53,3.88,3.58,4
	c15.97,0.89,34.65-8.85,34.65-8.85S645.36,293.73,635.33,223.85z"/>
<polygon class="st1" points="416.32,148.66 279.85,337.28 360.99,337.28 434.8,236.7 434.8,337.28 434.8,440.13 484.62,440.13 
	484.62,337.28 484.62,148.66 "/>
<polygon class="st2" points="285.58,440.05 360.99,337.28 279.85,337.28 205.5,440.05 "/>
</svg>
