<?xml version="1.0" encoding="UTF-8" standalone="no" ?>
<!DOCTYPE svg PUBLIC "-//W3C//DTD SVG 1.1//EN" "http://www.w3.org/Graphics/SVG/1.1/DTD/svg11.dtd">
<svg xmlns="http://www.w3.org/2000/svg" xmlns:xlink="http://www.w3.org/1999/xlink" version="1.1" width="150" height="150" viewBox="0 0 150 150" xml:space="preserve">
<desc>Created with Fabric.js 4.2.0</desc>
<defs>
</defs>
<rect x="0" y="0" width="100%" height="100%" fill="transparent"></rect>
<g transform="matrix(1 0 0 1 75 75)" id="41834118-5462-46a0-b16e-997f6bdd49b3"  >
<rect style="stroke: none; stroke-width: 1; stroke-dasharray: none; stroke-linecap: butt; stroke-dashoffset: 0; stroke-linejoin: miter; stroke-miterlimit: 4; fill: rgb(255,255,255); fill-rule: nonzero; opacity: 1; visibility: hidden;" vector-effect="non-scaling-stroke"  x="-75" y="-75" rx="0" ry="0" width="150" height="150" />
</g>
<g transform="matrix(Infinity NaN NaN Infinity 0 0)" id="da3f1fd6-3a17-4dd2-868b-7dc15ebd074c"  >
</g>
<g transform="matrix(2.9 0 0 2.9 75 75)"  >
<g style="" vector-effect="non-scaling-stroke"   >
		<g transform="matrix(0.76 0 0 0.76 -0.08 17.66)"  >
<path style="stroke: none; stroke-width: 1; stroke-dasharray: none; stroke-linecap: butt; stroke-dashoffset: 0; stroke-linejoin: miter; stroke-miterlimit: 4; fill: rgb(147,149,152); fill-rule: nonzero; opacity: 1;" vector-effect="non-scaling-stroke"  transform=" translate(-90.03, -71.07)" d="M 114.33 76.13 L 65.72999999999999 76.13 C 64.07 76.13 62.70999999999999 74.78 62.70999999999999 73.11999999999999 L 62.70999999999999 66.61999999999999 C 62.70999999999999 66.28999999999999 62.97999999999999 66.02 63.30999999999999 66.02 L 82.77999999999999 66.02 C 83.10999999999999 66.02 83.37999999999998 66.28999999999999 83.37999999999998 66.61999999999999 L 83.37999999999998 69.63 L 96.66999999999999 69.63 L 96.66999999999999 66.61999999999999 C 96.66999999999999 66.28999999999999 96.93999999999998 66.02 97.26999999999998 66.02 L 116.73999999999998 66.02 C 117.06999999999998 66.02 117.33999999999997 66.28999999999999 117.33999999999997 66.61999999999999 L 117.33999999999997 73.11999999999999 C 117.35 74.78 116 76.13 114.33 76.13 z M 63.92 67.23 L 63.92 73.12 C 63.92 74.12 64.73 74.93 65.73 74.93 L 114.33000000000001 74.93 C 115.33000000000001 74.93 116.14000000000001 74.12 116.14000000000001 73.12 L 116.14000000000001 67.23 L 97.88 67.23 L 97.88 70.24000000000001 C 97.88 70.57000000000001 97.61 70.84 97.28 70.84 L 82.78 70.84 C 82.45 70.84 82.18 70.57000000000001 82.18 70.24000000000001 L 82.18 67.23 L 63.92 67.23 z" stroke-linecap="round" />
</g>
		<g transform="matrix(0.76 0 0 0.76 -0.05 -8.99)"  >
<path style="stroke: none; stroke-width: 1; stroke-dasharray: none; stroke-linecap: butt; stroke-dashoffset: 0; stroke-linejoin: miter; stroke-miterlimit: 4; fill: rgb(147,149,152); fill-rule: nonzero; opacity: 1;" vector-effect="non-scaling-stroke"  transform=" translate(-90.04, -36.24)" d="M 107.81 47 L 107.81 43.84 C 107.81 43.510000000000005 107.54 43.24 107.21000000000001 43.24 L 98.98 43.24 C 101.95 39.39 103.64 34.620000000000005 103.64 29.61 L 109.14 29.61 C 109.47 29.61 109.74 29.34 109.74 29.009999999999998 L 109.74 25.49 C 111.05 25.209999999999997 112.03 24.049999999999997 112.03 22.669999999999998 C 112.03 21.08 110.73 19.779999999999998 109.14 19.779999999999998 C 107.55 19.779999999999998 106.25 21.08 106.25 22.669999999999998 C 106.25 24.06 107.23 25.22 108.54 25.49 L 108.54 28.409999999999997 L 103.64 28.409999999999997 L 103.64 25.109999999999996 C 103.64 24.849999999999994 103.48 24.629999999999995 103.24 24.539999999999996 L 90.24 19.949999999999996 C 90.11 19.899999999999995 89.97 19.899999999999995 89.83999999999999 19.949999999999996 L 76.83999999999999 24.539999999999996 C 76.6 24.629999999999995 76.43999999999998 24.849999999999994 76.43999999999998 25.109999999999996 L 76.43999999999998 28.409999999999997 L 71.53999999999998 28.409999999999997 L 71.53999999999998 25.489999999999995 C 72.84999999999998 25.209999999999994 73.82999999999998 24.049999999999994 73.82999999999998 22.669999999999995 C 73.82999999999998 21.079999999999995 72.52999999999999 19.779999999999994 70.93999999999998 19.779999999999994 C 69.34999999999998 19.779999999999994 68.04999999999998 21.079999999999995 68.04999999999998 22.669999999999995 C 68.04999999999998 24.059999999999995 69.02999999999999 25.219999999999995 70.33999999999999 25.489999999999995 L 70.33999999999999 29.009999999999994 C 70.33999999999999 29.339999999999993 70.60999999999999 29.609999999999996 70.93999999999998 29.609999999999996 L 76.43999999999998 29.609999999999996 C 76.44999999999999 34.62 78.13999999999999 39.39999999999999 81.10999999999999 43.25 L 72.86999999999999 43.31 C 72.53999999999999 43.31 72.27 43.580000000000005 72.27 43.910000000000004 L 72.27 47 C 70.96 47.28 69.97999999999999 48.44 69.97999999999999 49.82 C 69.97999999999999 51.410000000000004 71.27999999999999 52.71 72.86999999999999 52.71 C 74.46 52.71 75.75999999999999 51.410000000000004 75.75999999999999 49.82 C 75.75999999999999 48.43 74.77999999999999 47.27 73.46999999999998 47 L 73.46999999999998 44.5 L 82.09999999999998 44.44 C 84.13999999999999 46.82 86.93999999999998 48.67 89.74999999999999 50.15 C 89.92999999999999 50.25 90.15999999999998 50.25 90.33999999999999 50.15 C 93.15999999999998 48.68 95.94999999999999 46.83 97.99 44.44 L 106.61999999999999 44.44 L 106.61999999999999 47 C 105.30999999999999 47.28 104.32999999999998 48.44 104.32999999999998 49.82 C 104.32999999999998 51.410000000000004 105.62999999999998 52.71 107.21999999999998 52.71 C 108.80999999999999 52.71 110.10999999999999 51.410000000000004 110.10999999999999 49.82 C 110.1 48.44 109.11 47.28 107.81 47 z M 107.44 22.67 C 107.44 21.740000000000002 108.2 20.990000000000002 109.13 20.990000000000002 C 110.05999999999999 20.990000000000002 110.82 21.750000000000004 110.82 22.67 C 110.82 23.59 110.05999999999999 24.35 109.13 24.35 C 108.2 24.35 107.44 23.59 107.44 22.67 z M 69.23 22.67 C 69.23 21.740000000000002 69.99000000000001 20.990000000000002 70.92 20.990000000000002 C 71.85 20.990000000000002 72.61 21.750000000000004 72.61 22.67 C 72.61 23.59 71.85 24.35 70.92 24.35 C 69.99000000000001 24.35 69.23 23.59 69.23 22.67 z M 74.54 49.82 C 74.54 50.75 73.78 51.5 72.85000000000001 51.5 C 71.92 51.5 71.16000000000001 50.74 71.16000000000001 49.82 C 71.16000000000001 48.9 71.92000000000002 48.14 72.85000000000001 48.14 C 73.78 48.14 74.54 48.9 74.54 49.82 z M 91.6 48.06 L 90.03 48.940000000000005 C 82.59 45.35000000000001 77.57 37.900000000000006 77.63 29.580000000000005 L 77.63 25.530000000000005 L 90.03 21.150000000000006 L 102.43 25.530000000000005 L 102.43 29.580000000000005 C 102.43 37.23 98.28 44.31 91.6 48.06 z M 107.2 51.51 C 106.27 51.51 105.51 50.75 105.51 49.83 C 105.51 48.9 106.27000000000001 48.15 107.2 48.15 C 108.13000000000001 48.15 108.89 48.91 108.89 49.83 C 108.89 50.75 108.13 51.51 107.2 51.51 z" stroke-linecap="round" />
</g>
		<g transform="matrix(0.76 0 0 0.76 17.74 -10.36)"  >
<path style="stroke: none; stroke-width: 1; stroke-dasharray: none; stroke-linecap: butt; stroke-dashoffset: 0; stroke-linejoin: miter; stroke-miterlimit: 4; fill: rgb(147,149,152); fill-rule: nonzero; opacity: 1;" vector-effect="non-scaling-stroke"  transform=" translate(-113.25, -34.38)" d="M 115.31 31.49 C 113.92 31.49 112.76 32.47 112.48 33.78 L 108.89 33.78 C 108.56 33.78 108.29 34.050000000000004 108.29 34.38 C 108.29 34.71 108.56 34.980000000000004 108.89 34.980000000000004 L 112.48 34.980000000000004 C 112.76 36.28 113.92 37.27 115.31 37.27 C 116.9 37.27 118.2 35.970000000000006 118.2 34.38 C 118.2 32.79 116.91 31.49 115.31 31.49 z M 115.31 36.06 C 114.38 36.06 113.62 35.300000000000004 113.62 34.38 C 113.62 33.45 114.38000000000001 32.7 115.31 32.7 C 116.24000000000001 32.7 117 33.46 117 34.38 C 117 35.31 116.24 36.06 115.31 36.06 z" stroke-linecap="round" />
</g>
		<g transform="matrix(0.76 0 0 0.76 -17.8 -10.36)"  >
<path style="stroke: none; stroke-width: 1; stroke-dasharray: none; stroke-linecap: butt; stroke-dashoffset: 0; stroke-linejoin: miter; stroke-miterlimit: 4; fill: rgb(147,149,152); fill-rule: nonzero; opacity: 1;" vector-effect="non-scaling-stroke"  transform=" translate(-66.72, -34.38)" d="M 70.99 33.78 L 67.57 33.78 C 67.28999999999999 32.480000000000004 66.13 31.490000000000002 64.74 31.490000000000002 C 63.14999999999999 31.490000000000002 61.849999999999994 32.79 61.849999999999994 34.38 C 61.849999999999994 35.970000000000006 63.14999999999999 37.27 64.74 37.27 C 66.13 37.27 67.28999999999999 36.290000000000006 67.57 34.980000000000004 L 70.99 34.980000000000004 C 71.32 34.980000000000004 71.58999999999999 34.71 71.58999999999999 34.38 C 71.58999999999999 34.050000000000004 71.32 33.78 70.99 33.78 z M 64.74 36.06 C 63.809999999999995 36.06 63.05 35.300000000000004 63.05 34.38 C 63.05 33.45 63.809999999999995 32.7 64.74 32.7 C 65.66999999999999 32.7 66.42999999999999 33.46 66.42999999999999 34.38 C 66.43 35.31 65.67 36.06 64.74 36.06 z" stroke-linecap="round" />
</g>
		<g transform="matrix(0.76 0 0 0.76 14.26 1.15)"  >
<path style="stroke: none; stroke-width: 1; stroke-dasharray: none; stroke-linecap: butt; stroke-dashoffset: 0; stroke-linejoin: miter; stroke-miterlimit: 4; fill: rgb(147,149,152); fill-rule: nonzero; opacity: 1;" vector-effect="non-scaling-stroke"  transform=" translate(-108.69, -49.48)" d="M 112.98 60.36 C 112.65 60.36 112.38000000000001 60.089999999999996 112.38000000000001 59.76 L 112.38000000000001 41.61 C 112.38000000000001 40.61 111.57000000000001 39.8 110.57000000000001 39.8 L 104.4 39.8 C 104.07000000000001 39.8 103.80000000000001 39.529999999999994 103.80000000000001 39.199999999999996 C 103.80000000000001 38.87 104.07000000000001 38.599999999999994 104.4 38.599999999999994 L 110.57000000000001 38.599999999999994 C 112.23 38.599999999999994 113.58000000000001 39.949999999999996 113.58000000000001 41.60999999999999 L 113.58000000000001 59.75999999999999 C 113.58 60.09 113.31 60.36 112.98 60.36 z" stroke-linecap="round" />
</g>
		<g transform="matrix(0.76 0 0 0.76 -14.24 1.15)"  >
<path style="stroke: none; stroke-width: 1; stroke-dasharray: none; stroke-linecap: butt; stroke-dashoffset: 0; stroke-linejoin: miter; stroke-miterlimit: 4; fill: rgb(147,149,152); fill-rule: nonzero; opacity: 1;" vector-effect="non-scaling-stroke"  transform=" translate(-71.38, -49.48)" d="M 67.09 60.36 C 66.76 60.36 66.49000000000001 60.089999999999996 66.49000000000001 59.76 L 66.49000000000001 41.61 C 66.49000000000001 39.95 67.84 38.6 69.50000000000001 38.6 L 75.66000000000001 38.6 C 75.99000000000001 38.6 76.26 38.870000000000005 76.26 39.2 C 76.26 39.53 75.99000000000001 39.800000000000004 75.66000000000001 39.800000000000004 L 69.5 39.800000000000004 C 68.5 39.800000000000004 67.69 40.61000000000001 67.69 41.61000000000001 L 67.69 59.760000000000005 C 67.69 60.09 67.42 60.36 67.09 60.36 z" stroke-linecap="round" />
</g>
		<g transform="matrix(0.76 0 0 0.76 0 -10.77)"  >
<path style="stroke: none; stroke-width: 1; stroke-dasharray: none; stroke-linecap: butt; stroke-dashoffset: 0; stroke-linejoin: miter; stroke-miterlimit: 4; fill: rgb(147,149,152); fill-rule: nonzero; opacity: 1;" vector-effect="non-scaling-stroke"  transform=" translate(-90.02, -33.87)" d="M 94.48 31.93 L 94.46000000000001 31.93 L 94.46000000000001 28.45 C 94.46000000000001 26.79 93.11000000000001 25.439999999999998 91.45 25.439999999999998 L 88.6 25.439999999999998 C 86.94 25.439999999999998 85.58999999999999 26.79 85.58999999999999 28.449999999999996 L 85.58999999999999 31.929999999999996 L 85.57 31.929999999999996 C 84.57 31.929999999999996 83.75999999999999 32.739999999999995 83.75999999999999 33.739999999999995 L 83.75999999999999 40.489999999999995 C 83.75999999999999 41.489999999999995 84.57 42.3 85.57 42.3 L 94.47999999999999 42.3 C 95.47999999999999 42.3 96.28999999999999 41.489999999999995 96.28999999999999 40.489999999999995 L 96.28999999999999 33.739999999999995 C 96.29 32.74 95.48 31.93 94.48 31.93 z M 86.79 28.45 C 86.79 27.45 87.60000000000001 26.64 88.60000000000001 26.64 L 91.45 26.64 C 92.45 26.64 93.26 27.45 93.26 28.45 L 93.26 31.93 L 86.79 31.93 L 86.79 28.45 z M 95.08 40.49 C 95.08 40.82 94.81 41.09 94.48 41.09 L 85.57000000000001 41.09 C 85.24000000000001 41.09 84.97000000000001 40.82 84.97000000000001 40.49 L 84.97000000000001 33.74 C 84.97000000000001 33.410000000000004 85.24000000000001 33.14 85.57000000000001 33.14 L 94.48 33.14 C 94.81 33.14 95.08 33.410000000000004 95.08 33.74 L 95.08 40.49 z" stroke-linecap="round" />
</g>
		<g transform="matrix(0.76 0 0 0.76 0.02 -8.19)"  >
<path style="stroke: none; stroke-width: 1; stroke-dasharray: none; stroke-linecap: butt; stroke-dashoffset: 0; stroke-linejoin: miter; stroke-miterlimit: 4; fill: rgb(147,149,152); fill-rule: nonzero; opacity: 1;" vector-effect="non-scaling-stroke"  transform=" translate(-90.03, -37.21)" d="M 90.03 34.11 C 88.99 34.11 88.14 34.96 88.14 36.01 C 88.14 36.839999999999996 88.68 37.55 89.43 37.809999999999995 L 89.43 39.71999999999999 C 89.43 40.04999999999999 89.7 40.31999999999999 90.03 40.31999999999999 C 90.36 40.31999999999999 90.63 40.04999999999999 90.63 39.71999999999999 L 90.63 37.8 C 91.38 37.559999999999995 91.92999999999999 36.8 91.92 36 C 91.92 34.96 91.07 34.11 90.03 34.11 z M 90.71 36.01 C 90.72 36.379999999999995 90.39999999999999 36.71 90.02999999999999 36.699999999999996 C 89.64999999999999 36.699999999999996 89.34999999999998 36.38999999999999 89.34999999999998 36.01 C 89.34999999999998 35.629999999999995 89.65999999999998 35.32 90.02999999999999 35.32 C 90.4 35.31 90.71 35.62 90.71 36.01 L 90.71 36.01 z" stroke-linecap="round" />
</g>
		<g transform="matrix(0.76 0 0 0.76 8.05 10.59)"  >
<path style="stroke: none; stroke-width: 1; stroke-dasharray: none; stroke-linecap: butt; stroke-dashoffset: 0; stroke-linejoin: miter; stroke-miterlimit: 4; fill: rgb(147,149,152); fill-rule: nonzero; opacity: 1;" vector-effect="non-scaling-stroke"  transform=" translate(-100.59, -61.81)" d="M 108.11 62.41 L 93.05 62.41 C 92.72 62.41 92.45 62.13999999999999 92.45 61.809999999999995 C 92.45 61.48 92.72 61.209999999999994 93.05 61.209999999999994 L 108.12 61.209999999999994 C 108.45 61.209999999999994 108.72 61.48 108.72 61.809999999999995 C 108.72 62.13999999999999 108.45 62.41 108.11 62.41 z" stroke-linecap="round" />
</g>
		<g transform="matrix(0.76 0 0 0.76 -8.52 10.59)"  >
<path style="stroke: none; stroke-width: 1; stroke-dasharray: none; stroke-linecap: butt; stroke-dashoffset: 0; stroke-linejoin: miter; stroke-miterlimit: 4; fill: rgb(147,149,152); fill-rule: nonzero; opacity: 1;" vector-effect="non-scaling-stroke"  transform=" translate(-78.88, -61.81)" d="M 85.81 62.41 L 71.95 62.41 C 71.62 62.41 71.35000000000001 62.13999999999999 71.35000000000001 61.809999999999995 C 71.35000000000001 61.48 71.62 61.209999999999994 71.95 61.209999999999994 L 85.81 61.209999999999994 C 86.14 61.209999999999994 86.41 61.48 86.41 61.809999999999995 C 86.41 62.13999999999999 86.15 62.41 85.81 62.41 z" stroke-linecap="round" />
</g>
		<g transform="matrix(0.76 0 0 0.76 8.05 6.92)"  >
<path style="stroke: none; stroke-width: 1; stroke-dasharray: none; stroke-linecap: butt; stroke-dashoffset: 0; stroke-linejoin: miter; stroke-miterlimit: 4; fill: rgb(147,149,152); fill-rule: nonzero; opacity: 1;" vector-effect="non-scaling-stroke"  transform=" translate(-100.59, -57)" d="M 108.11 57.6 L 93.05 57.6 C 92.72 57.6 92.45 57.33 92.45 57 C 92.45 56.67 92.72 56.4 93.05 56.4 L 108.12 56.4 C 108.45 56.4 108.72 56.67 108.72 57 C 108.71 57.33 108.45 57.6 108.11 57.6 z" stroke-linecap="round" />
</g>
		<g transform="matrix(0.76 0 0 0.76 -8.52 6.92)"  >
<path style="stroke: none; stroke-width: 1; stroke-dasharray: none; stroke-linecap: butt; stroke-dashoffset: 0; stroke-linejoin: miter; stroke-miterlimit: 4; fill: rgb(147,149,152); fill-rule: nonzero; opacity: 1;" vector-effect="non-scaling-stroke"  transform=" translate(-78.88, -57)" d="M 85.81 57.6 L 71.95 57.6 C 71.62 57.6 71.35000000000001 57.33 71.35000000000001 57 C 71.35000000000001 56.67 71.62 56.4 71.95 56.4 L 85.81 56.4 C 86.14 56.4 86.41 56.67 86.41 57 C 86.41 57.33 86.15 57.6 85.81 57.6 z" stroke-linecap="round" />
</g>
		<g transform="matrix(0.76 0 0 0.76 -17.51 11.66)"  >
<circle style="stroke: none; stroke-width: 1; stroke-dasharray: none; stroke-linecap: butt; stroke-dashoffset: 0; stroke-linejoin: miter; stroke-miterlimit: 4; fill: rgb(147,149,152); fill-rule: nonzero; opacity: 1;" vector-effect="non-scaling-stroke"  cx="0" cy="0" r="0.78" />
</g>
		<g transform="matrix(0.76 0 0 0.76 17.6 11.66)"  >
<circle style="stroke: none; stroke-width: 1; stroke-dasharray: none; stroke-linecap: butt; stroke-dashoffset: 0; stroke-linejoin: miter; stroke-miterlimit: 4; fill: rgb(147,149,152); fill-rule: nonzero; opacity: 1;" vector-effect="non-scaling-stroke"  cx="0" cy="0" r="0.78" />
</g>
		<g transform="matrix(0.76 0 0 0.76 -12 -10.41)"  >
<circle style="stroke: none; stroke-width: 1; stroke-dasharray: none; stroke-linecap: butt; stroke-dashoffset: 0; stroke-linejoin: miter; stroke-miterlimit: 4; fill: rgb(147,149,152); fill-rule: nonzero; opacity: 1;" vector-effect="non-scaling-stroke"  cx="0" cy="0" r="0.78" />
</g>
		<g transform="matrix(0.76 0 0 0.76 11.91 -10.41)"  >
<circle style="stroke: none; stroke-width: 1; stroke-dasharray: none; stroke-linecap: butt; stroke-dashoffset: 0; stroke-linejoin: miter; stroke-miterlimit: 4; fill: rgb(147,149,152); fill-rule: nonzero; opacity: 1;" vector-effect="non-scaling-stroke"  cx="0" cy="0" r="0.78" />
</g>
</g>
</g>
</svg>