<?xml version="1.0" encoding="utf-8"?>
<!-- Generator: Adobe Illustrator 26.3.1, SVG Export Plug-In . SVG Version: 6.00 Build 0)  -->
<svg version="1.1" id="Layer_1" xmlns="http://www.w3.org/2000/svg" xmlns:xlink="http://www.w3.org/1999/xlink" x="0px" y="0px"
	 viewBox="0 0 150 150" style="enable-background:new 0 0 150 150;" xml:space="preserve">
<style type="text/css">
	.st0{fill:#939598;}
</style>
<g>
	<path class="st0" d="M125.38,25.07c-0.5-0.37-0.83-0.96-0.83-1.66c0-0.83,0.5-1.63,1.3-1.96c0.27-0.1,0.56-0.17,0.83-0.17
		c0.13,0,0.27,0,0.4,0.03h7.01c1.03,0,1.89-0.83,1.89-1.89c0-1.03-0.83-1.89-1.89-1.89h-17l0,0c-1.03,0-1.86,0.83-1.86,1.86v16.97
		c0,0.5,0.2,1,0.53,1.33c0.33,0.33,0.83,0.56,1.33,0.56c0.5,0,0.96-0.2,1.33-0.53c0.37-0.33,0.56-0.83,0.56-1.33v-7.41
		c0-0.83,0.5-1.59,1.3-1.93c0.27-0.1,0.53-0.17,0.8-0.17c0.53,0,1.06,0.2,1.46,0.6c10.4,10.4,17.17,24.14,19.1,38.72
		s-1.06,29.59-8.44,42.34c-7.34,12.72-18.86,22.85-32.45,28.46c-8.17,3.39-16.84,5.11-25.67,5.11c-5.88,0-11.72-0.76-17.4-2.29
		c-0.1-0.03-0.27-0.03-0.43-0.03c-0.83,0-1.59,0.56-1.83,1.39c-0.27,1,0.33,2.03,1.3,2.29c5.98,1.59,12.16,2.42,18.4,2.42
		c9.33,0,18.47-1.83,27.1-5.38c14.35-5.94,26.54-16.61,34.31-30.09c7.77-13.45,10.93-29.36,8.87-44.74
		C143.35,50.44,136.24,35.99,125.38,25.07z"/>
	<path class="st0" d="M33.02,111.75c-1.03,0-1.89,0.86-1.93,1.89v7.37c0,0.83-0.5,1.59-1.3,1.93c-0.27,0.1-0.53,0.17-0.8,0.17
		c-0.53,0-1.06-0.2-1.49-0.6c-10.4-10.4-17.17-24.14-19.1-38.72s1.06-29.62,8.44-42.34c7.34-12.72,18.86-22.82,32.45-28.46
		c8.17-3.39,16.8-5.11,25.67-5.11c5.88,0,11.72,0.76,17.4,2.29c0.2,0.07,0.37,0.07,0.53,0.07c0.33,0,0.63-0.07,0.93-0.23
		c0.43-0.23,0.76-0.66,0.9-1.16c0.13-0.5,0.07-1-0.2-1.43c-0.27-0.43-0.66-0.73-1.16-0.86C87.32,4.91,81.11,4.08,74.9,4.08
		c-9.33,0-18.47,1.83-27.1,5.38C33.45,15.4,21.26,26.1,13.49,39.51C5.72,52.96,2.57,68.87,4.63,84.25
		c2.03,15.41,9.23,29.92,20.23,40.88c0.6,0.6,0.76,1.49,0.47,2.26c-0.33,0.8-1.1,1.3-1.93,1.3h-7.44c-1.03,0-1.89,0.83-1.89,1.86
		s0.83,1.86,1.89,1.86h17c0.53,0,1-0.2,1.33-0.53c0.33-0.37,0.56-0.83,0.56-1.33v-17C34.85,112.61,34.02,111.78,33.02,111.75z"/>
	<path class="st0" d="M74,119.25c0.3,0.2,0.63,0.27,1,0.27s0.7-0.1,1-0.3l16.74-10.53c5.88-3.69,10.56-9,13.48-15.28
		c2.92-6.31,3.99-13.25,3.02-20.16l-3.16-22.42c-0.13-0.93-0.93-1.63-1.86-1.63c-11.76,0-20.36-3.25-27.83-10.53
		c-0.37-0.33-0.83-0.53-1.33-0.53c-0.5,0-0.96,0.2-1.3,0.53C66.3,45.96,57.7,49.21,45.94,49.21c-0.93,0-1.73,0.7-1.86,1.63
		l-3.16,22.42c-0.96,6.87,0.07,13.85,3.02,20.16c2.92,6.31,7.61,11.59,13.48,15.28L74,119.25z M76.89,48.28
		c0-0.76,0.4-1.46,1.1-1.83c0.3-0.17,0.66-0.27,1-0.27c0.4,0,0.76,0.1,1.13,0.33c6.18,3.95,13.35,6.14,20.66,6.38
		c1,0.03,1.86,0.8,1.99,1.79l2.72,19.13c0.86,6.14-0.07,12.39-2.69,18.03c-2.62,5.65-6.78,10.4-12.02,13.72l-10.69,6.71
		c-0.33,0.23-0.73,0.33-1.1,0.33c-0.33,0-0.7-0.1-1-0.27c-0.66-0.37-1.06-1.06-1.06-1.83V48.28H76.89z M47.24,91.85
		c-2.62-5.65-3.55-11.89-2.69-18.03c0-0.07,0.03-0.17,0.03-0.23l2.69-18.8c0.13-1,1-1.76,1.99-1.79c7.34-0.27,14.48-2.49,20.66-6.48
		c0.33-0.23,0.73-0.33,1.13-0.33c0.33,0,0.7,0.07,1,0.27c0.66,0.37,1.1,1.06,1.1,1.83v62.2c0,0.76-0.4,1.46-1.06,1.83
		c-0.3,0.17-0.66,0.27-1,0.27c-0.4,0-0.76-0.1-1.1-0.33l-10.66-6.71C54.01,102.22,49.86,97.5,47.24,91.85z"/>
</g>
</svg>
