<?xml version="1.0" encoding="UTF-8" standalone="no" ?>
<!DOCTYPE svg PUBLIC "-//W3C//DTD SVG 1.1//EN" "http://www.w3.org/Graphics/SVG/1.1/DTD/svg11.dtd">
<svg xmlns="http://www.w3.org/2000/svg" xmlns:xlink="http://www.w3.org/1999/xlink" version="1.1" width="150" height="150" viewBox="0 0 150 150" xml:space="preserve">
<desc>Created with Fabric.js 4.2.0</desc>
<defs>
</defs>
<rect x="0" y="0" width="100%" height="100%" fill="transparent"></rect>
<g transform="matrix(1 0 0 1 75 75)" id="41834118-5462-46a0-b16e-997f6bdd49b3"  >
<rect style="stroke: none; stroke-width: 1; stroke-dasharray: none; stroke-linecap: butt; stroke-dashoffset: 0; stroke-linejoin: miter; stroke-miterlimit: 4; fill: rgb(255,255,255); fill-rule: nonzero; opacity: 1; visibility: hidden;" vector-effect="non-scaling-stroke"  x="-75" y="-75" rx="0" ry="0" width="150" height="150" />
</g>
<g transform="matrix(Infinity NaN NaN Infinity 0 0)" id="da3f1fd6-3a17-4dd2-868b-7dc15ebd074c"  >
</g>
<g transform="matrix(4.89 0 0 4.7 75 75)"  >
<g style="" vector-effect="non-scaling-stroke"   >
		<g transform="matrix(0.43 0 0 0.43 1.86 6.53)"  >
<path style="stroke: none; stroke-width: 1; stroke-dasharray: none; stroke-linecap: butt; stroke-dashoffset: 0; stroke-linejoin: miter; stroke-miterlimit: 4; fill: rgb(147,149,152); fill-rule: nonzero; opacity: 1;" vector-effect="non-scaling-stroke"  transform=" translate(-101.92, -101.66)" d="M 125.68 104.14 C 124.51 104.14 123.52000000000001 103.12 122.55000000000001 102.14 C 121.82000000000001 101.39 120.99000000000001 100.55 120.4 100.55 C 119.82000000000001 100.55 118.97 101.39 118.25 102.14 C 117.28 103.12 116.29 104.14 115.12 104.14 C 113.95 104.14 112.96000000000001 103.12 111.99000000000001 102.14 C 111.26 101.39 110.43 100.55 109.84 100.55 C 109.26 100.55 108.41 101.39 107.69 102.14 C 106.72 103.12 105.73 104.14 104.56 104.14 C 103.39 104.14 102.4 103.12 101.43 102.14 C 100.7 101.39 99.87 100.55 99.28 100.55 C 98.7 100.55 97.87 101.39 97.13 102.14 C 96.16 103.12 95.17 104.14 94 104.14 C 92.83 104.14 91.84 103.12 90.87 102.14 C 90.14 101.39 89.31 100.55 88.72 100.55 C 88.14 100.55 87.31 101.39 86.57 102.14 C 85.6 103.12 84.61 104.14 83.44 104.14 C 82.27 104.14 81.28 103.12 80.31 102.14 C 79.58 101.39 78.75 100.55 78.16 100.55 C 77.78 100.55 77.47999999999999 100.25 77.47999999999999 99.86999999999999 C 77.47999999999999 99.49 77.77999999999999 99.18999999999998 78.16 99.18999999999998 C 79.33 99.18999999999998 80.32 100.20999999999998 81.28999999999999 101.18999999999998 C 82.02 101.93999999999998 82.85 102.77999999999999 83.44 102.77999999999999 C 84.02 102.77999999999999 84.85 101.93999999999998 85.59 101.18999999999998 C 86.56 100.20999999999998 87.55 99.18999999999998 88.72 99.18999999999998 C 89.89 99.18999999999998 90.88 100.20999999999998 91.85 101.18999999999998 C 92.58 101.93999999999998 93.41 102.77999999999999 94 102.77999999999999 C 94.59 102.77999999999999 95.41 101.93999999999998 96.15 101.18999999999998 C 97.12 100.20999999999998 98.11 99.18999999999998 99.28 99.18999999999998 C 100.45 99.18999999999998 101.44 100.20999999999998 102.41 101.18999999999998 C 103.14 101.93999999999998 103.97 102.77999999999999 104.56 102.77999999999999 C 105.14 102.77999999999999 105.99000000000001 101.93999999999998 106.71000000000001 101.18999999999998 C 107.68 100.20999999999998 108.67 99.18999999999998 109.84 99.18999999999998 C 111.01 99.18999999999998 112 100.20999999999998 112.97 101.18999999999998 C 113.7 101.93999999999998 114.53 102.77999999999999 115.12 102.77999999999999 C 115.7 102.77999999999999 116.55000000000001 101.93999999999998 117.27000000000001 101.18999999999998 C 118.24000000000001 100.20999999999998 119.23 99.18999999999998 120.4 99.18999999999998 C 121.57000000000001 99.18999999999998 122.56 100.20999999999998 123.53 101.18999999999998 C 124.26 101.93999999999998 125.09 102.77999999999999 125.68 102.77999999999999 C 126.06 102.77999999999999 126.36000000000001 103.07999999999998 126.36000000000001 103.46 C 126.36 103.84 126.06 104.14 125.68 104.14 L 125.68 104.14 z" stroke-linecap="round" />
</g>
		<g transform="matrix(0.43 0 0 0.43 1.86 9.13)"  >
<path style="stroke: none; stroke-width: 1; stroke-dasharray: none; stroke-linecap: butt; stroke-dashoffset: 0; stroke-linejoin: miter; stroke-miterlimit: 4; fill: rgb(147,149,152); fill-rule: nonzero; opacity: 1;" vector-effect="non-scaling-stroke"  transform=" translate(-101.92, -107.77)" d="M 125.68 110.25 C 124.51 110.25 123.52000000000001 109.23 122.55000000000001 108.25 C 121.82000000000001 107.5 120.99000000000001 106.66 120.4 106.66 C 119.82000000000001 106.66 118.97 107.5 118.25 108.25 C 117.28 109.23 116.29 110.25 115.12 110.25 C 113.95 110.25 112.96000000000001 109.23 111.99000000000001 108.25 C 111.26 107.5 110.43 106.66 109.84 106.66 C 109.26 106.66 108.41 107.5 107.69 108.25 C 106.72 109.23 105.73 110.25 104.56 110.25 C 103.39 110.25 102.4 109.23 101.43 108.25 C 100.7 107.5 99.87 106.66 99.28 106.66 C 98.7 106.66 97.87 107.5 97.13 108.25 C 96.16 109.23 95.17 110.25 94 110.25 C 92.83 110.25 91.84 109.23 90.87 108.25 C 90.14 107.5 89.31 106.66 88.72 106.66 C 88.14 106.66 87.31 107.5 86.57 108.25 C 85.6 109.23 84.61 110.25 83.44 110.25 C 82.27 110.25 81.28 109.23 80.31 108.25 C 79.58 107.5 78.75 106.66 78.16 106.66 C 77.78 106.66 77.47999999999999 106.36 77.47999999999999 105.97999999999999 C 77.47999999999999 105.6 77.77999999999999 105.29999999999998 78.16 105.29999999999998 C 79.33 105.29999999999998 80.32 106.31999999999998 81.28999999999999 107.29999999999998 C 82.02 108.04999999999998 82.85 108.88999999999999 83.44 108.88999999999999 C 84.02 108.88999999999999 84.85 108.04999999999998 85.59 107.29999999999998 C 86.56 106.31999999999998 87.55 105.29999999999998 88.72 105.29999999999998 C 89.89 105.29999999999998 90.88 106.31999999999998 91.85 107.29999999999998 C 92.58 108.04999999999998 93.41 108.88999999999999 94 108.88999999999999 C 94.59 108.88999999999999 95.41 108.04999999999998 96.15 107.29999999999998 C 97.12 106.31999999999998 98.11 105.29999999999998 99.28 105.29999999999998 C 100.45 105.29999999999998 101.44 106.31999999999998 102.41 107.29999999999998 C 103.14 108.04999999999998 103.97 108.88999999999999 104.56 108.88999999999999 C 105.14 108.88999999999999 105.99000000000001 108.04999999999998 106.71000000000001 107.29999999999998 C 107.68 106.31999999999998 108.67 105.29999999999998 109.84 105.29999999999998 C 111.01 105.29999999999998 112 106.31999999999998 112.97 107.29999999999998 C 113.7 108.04999999999998 114.53 108.88999999999999 115.12 108.88999999999999 C 115.7 108.88999999999999 116.55000000000001 108.04999999999998 117.27000000000001 107.29999999999998 C 118.24000000000001 106.31999999999998 119.23 105.29999999999998 120.4 105.29999999999998 C 121.57000000000001 105.29999999999998 122.56 106.31999999999998 123.53 107.29999999999998 C 124.26 108.04999999999998 125.09 108.88999999999999 125.68 108.88999999999999 C 126.06 108.88999999999999 126.36000000000001 109.18999999999998 126.36000000000001 109.57 C 126.36 109.96 126.06 110.25 125.68 110.25 L 125.68 110.25 z" stroke-linecap="round" />
</g>
		<g transform="matrix(0.43 0 0 0.43 1.86 11.72)"  >
<path style="stroke: none; stroke-width: 1; stroke-dasharray: none; stroke-linecap: butt; stroke-dashoffset: 0; stroke-linejoin: miter; stroke-miterlimit: 4; fill: rgb(147,149,152); fill-rule: nonzero; opacity: 1;" vector-effect="non-scaling-stroke"  transform=" translate(-101.92, -113.9)" d="M 125.68 116.38 C 124.51 116.38 123.52000000000001 115.36 122.55000000000001 114.38 C 121.82000000000001 113.63 120.99000000000001 112.78999999999999 120.4 112.78999999999999 C 119.82000000000001 112.78999999999999 118.97 113.63 118.25 114.38 C 117.28 115.36 116.29 116.38 115.12 116.38 C 113.95 116.38 112.96000000000001 115.36 111.99000000000001 114.38 C 111.26 113.63 110.43 112.78999999999999 109.84 112.78999999999999 C 109.26 112.78999999999999 108.41 113.63 107.69 114.38 C 106.72 115.36 105.73 116.38 104.56 116.38 C 103.39 116.38 102.4 115.36 101.43 114.38 C 100.7 113.63 99.87 112.78999999999999 99.28 112.78999999999999 C 98.7 112.78999999999999 97.87 113.63 97.13 114.38 C 96.16 115.36 95.17 116.38 94 116.38 C 92.83 116.38 91.84 115.36 90.87 114.38 C 90.14 113.63 89.31 112.78999999999999 88.72 112.78999999999999 C 88.14 112.78999999999999 87.31 113.63 86.57 114.38 C 85.6 115.36 84.61 116.38 83.44 116.38 C 82.27 116.38 81.28 115.36 80.31 114.38 C 79.58 113.63 78.75 112.78999999999999 78.16 112.78999999999999 C 77.78 112.78999999999999 77.47999999999999 112.49 77.47999999999999 112.10999999999999 C 77.47999999999999 111.72999999999998 77.77999999999999 111.42999999999998 78.16 111.42999999999998 C 79.33 111.42999999999998 80.32 112.44999999999997 81.28999999999999 113.42999999999998 C 82.02 114.17999999999998 82.85 115.01999999999998 83.44 115.01999999999998 C 84.02 115.01999999999998 84.85 114.17999999999998 85.59 113.42999999999998 C 86.56 112.44999999999997 87.55 111.42999999999998 88.72 111.42999999999998 C 89.89 111.42999999999998 90.88 112.44999999999997 91.85 113.42999999999998 C 92.58 114.17999999999998 93.41 115.01999999999998 94 115.01999999999998 C 94.59 115.01999999999998 95.41 114.17999999999998 96.15 113.42999999999998 C 97.12 112.44999999999997 98.11 111.42999999999998 99.28 111.42999999999998 C 100.45 111.42999999999998 101.44 112.44999999999997 102.41 113.42999999999998 C 103.14 114.17999999999998 103.97 115.01999999999998 104.56 115.01999999999998 C 105.14 115.01999999999998 105.99000000000001 114.17999999999998 106.71000000000001 113.42999999999998 C 107.68 112.44999999999997 108.67 111.42999999999998 109.84 111.42999999999998 C 111.01 111.42999999999998 112 112.44999999999997 112.97 113.42999999999998 C 113.7 114.17999999999998 114.53 115.01999999999998 115.12 115.01999999999998 C 115.7 115.01999999999998 116.55000000000001 114.17999999999998 117.27000000000001 113.42999999999998 C 118.24000000000001 112.44999999999997 119.23 111.42999999999998 120.4 111.42999999999998 C 121.57000000000001 111.42999999999998 122.56 112.44999999999997 123.53 113.42999999999998 C 124.26 114.17999999999998 125.09 115.01999999999998 125.68 115.01999999999998 C 126.06 115.01999999999998 126.36000000000001 115.31999999999998 126.36000000000001 115.69999999999999 C 126.36 116.09 126.06 116.38 125.68 116.38 L 125.68 116.38 z" stroke-linecap="round" />
</g>
		<g transform="matrix(0.43 0 0 0.43 1.79 -2.89)"  >
<path style="stroke: none; stroke-width: 1; stroke-dasharray: none; stroke-linecap: butt; stroke-dashoffset: 0; stroke-linejoin: miter; stroke-miterlimit: 4; fill: rgb(147,149,152); fill-rule: nonzero; opacity: 1;" vector-effect="non-scaling-stroke"  transform=" translate(-101.97, -79.52)" d="M 101.97 82.84 C 100.13 82.84 98.65 81.34 98.65 79.52000000000001 C 98.65 77.70000000000002 100.15 76.20000000000002 101.97 76.20000000000002 C 103.78999999999999 76.20000000000002 105.28999999999999 77.70000000000002 105.28999999999999 79.52000000000001 C 105.28 81.34 103.8 82.84 101.97 82.84 z M 101.97 77.56 C 100.88 77.56 100.01 78.44 100.01 79.52 C 100.01 80.58999999999999 100.89 81.47999999999999 101.97 81.47999999999999 C 103.03999999999999 81.47999999999999 103.92999999999999 80.6 103.92999999999999 79.52 C 103.92 78.45 103.05 77.56 101.97 77.56 z" stroke-linecap="round" />
</g>
		<g transform="matrix(0.43 0 0 0.43 1.85 -5.13)"  >
<path style="stroke: none; stroke-width: 1; stroke-dasharray: none; stroke-linecap: butt; stroke-dashoffset: 0; stroke-linejoin: miter; stroke-miterlimit: 4; fill: rgb(147,149,152); fill-rule: nonzero; opacity: 1;" vector-effect="non-scaling-stroke"  transform=" translate(-101.95, -74.24)" d="M 85.83 81.61 C 84.96 81.61 84.12 81.16 83.64 80.36 L 83.45 80.03 C 83.11 79.45 83.03 78.77 83.21000000000001 78.13 C 83.39000000000001 77.49 83.79 76.92999999999999 84.38000000000001 76.61 L 100.66000000000001 67.2 C 101.05000000000001 66.97 101.50000000000001 66.86 101.95000000000002 66.86 C 102.40000000000002 66.85 102.85000000000002 66.97 103.24000000000002 67.2 L 119.52000000000002 76.61 C 120.10000000000002 76.95 120.51000000000002 77.48 120.69000000000003 78.13 C 120.87000000000003 78.78 120.77000000000002 79.46 120.45000000000003 80.03 L 120.26000000000003 80.36 C 119.57000000000004 81.56 118.03000000000003 81.98 116.82000000000004 81.28 L 101.95000000000003 72.69 L 87.08000000000003 81.28 C 86.7 81.51 86.27 81.61 85.83 81.61 L 85.83 81.61 z M 101.92 68.21 C 101.72 68.21 101.53 68.25999999999999 101.35000000000001 68.36 L 85.07000000000001 77.77 C 84.81 77.92 84.61000000000001 78.17999999999999 84.54 78.47999999999999 C 84.47000000000001 78.77999999999999 84.5 79.08999999999999 84.65 79.35 L 84.84 79.67999999999999 C 85.15 80.24 85.87 80.41 86.42 80.1 L 101.63 71.32 C 101.83 71.19999999999999 102.11 71.19999999999999 102.31 71.32 L 117.52000000000001 80.1 C 118.06000000000002 80.41 118.78000000000002 80.22 119.10000000000001 79.67999999999999 L 119.29 79.35 C 119.44000000000001 79.08999999999999 119.48 78.78 119.4 78.47999999999999 C 119.32000000000001 78.17999999999999 119.13000000000001 77.93999999999998 118.87 77.77 L 102.59 68.38 C 102.41 68.27 102.2 68.22 101.99000000000001 68.22999999999999 L 101.95 68.22999999999999 C 101.94 68.21 101.92 68.21 101.92 68.21 L 101.92 68.21 z" stroke-linecap="round" />
</g>
		<g transform="matrix(0.43 0 0 0.43 1.83 1.51)"  >
<path style="stroke: none; stroke-width: 1; stroke-dasharray: none; stroke-linecap: butt; stroke-dashoffset: 0; stroke-linejoin: miter; stroke-miterlimit: 4; fill: rgb(147,149,152); fill-rule: nonzero; opacity: 1;" vector-effect="non-scaling-stroke"  transform=" translate(-101.97, -89.79)" d="M 115.49 100.55 L 88.44 100.55 C 88.06 100.55 87.75999999999999 100.25 87.75999999999999 99.86999999999999 L 87.75999999999999 79.71 C 87.75999999999999 79.33 88.05999999999999 79.02999999999999 88.44 79.02999999999999 C 88.82000000000001 79.02999999999999 89.12 79.32999999999998 89.12 79.71 L 89.12 99.19 L 114.81 99.19 L 114.81 79.71 C 114.81 79.33 115.11 79.02999999999999 115.49000000000001 79.02999999999999 C 115.87 79.02999999999999 116.17000000000002 79.32999999999998 116.17000000000002 79.71 L 116.17000000000002 99.86999999999999 C 116.17 100.24 115.87 100.55 115.49 100.55 L 115.49 100.55 z" stroke-linecap="round" />
</g>
		<g transform="matrix(0.43 0 0 0.43 1.79 2.87)"  >
<path style="stroke: none; stroke-width: 1; stroke-dasharray: none; stroke-linecap: butt; stroke-dashoffset: 0; stroke-linejoin: miter; stroke-miterlimit: 4; fill: rgb(147,149,152); fill-rule: nonzero; opacity: 1;" vector-effect="non-scaling-stroke"  transform=" translate(-101.96, -93.02)" d="M 106.42 100.55 C 106.04 100.55 105.74 100.25 105.74 99.86999999999999 L 105.74 90.63999999999999 C 105.74 88.54999999999998 104.03999999999999 86.85999999999999 101.96 86.85999999999999 C 99.88 86.85999999999999 98.17999999999999 88.55999999999999 98.17999999999999 90.63999999999999 L 98.17999999999999 99.86999999999999 C 98.17999999999999 100.24999999999999 97.88 100.55 97.49999999999999 100.55 C 97.11999999999999 100.55 96.81999999999998 100.25 96.81999999999998 99.86999999999999 L 96.81999999999998 90.63999999999999 C 96.81999999999998 87.79999999999998 99.12999999999998 85.49999999999999 101.95999999999998 85.49999999999999 C 104.78999999999998 85.49999999999999 107.09999999999998 87.80999999999999 107.09999999999998 90.63999999999999 L 107.09999999999998 99.86999999999999 C 107.1 100.24 106.8 100.55 106.42 100.55 L 106.42 100.55 z" stroke-linecap="round" />
</g>
		<g transform="matrix(0.43 0 0 0.43 -2.44 -1.41)"  >
<path style="stroke: none; stroke-width: 1; stroke-dasharray: none; stroke-linecap: butt; stroke-dashoffset: 0; stroke-linejoin: miter; stroke-miterlimit: 4; fill: rgb(147,149,152); fill-rule: nonzero; opacity: 1;" vector-effect="non-scaling-stroke"  transform=" translate(-92.03, -83.04)" d="M 95.63 83.72 L 88.44 83.72 C 88.06 83.72 87.75999999999999 83.42 87.75999999999999 83.03999999999999 C 87.75999999999999 82.65999999999998 88.05999999999999 82.35999999999999 88.44 82.35999999999999 L 95.63 82.35999999999999 C 96.00999999999999 82.35999999999999 96.31 82.65999999999998 96.31 83.03999999999999 C 96.31 83.42 96 83.72 95.63 83.72 z" stroke-linecap="round" />
</g>
		<g transform="matrix(0.43 0 0 0.43 6.39 3.91)"  >
<path style="stroke: none; stroke-width: 1; stroke-dasharray: none; stroke-linecap: butt; stroke-dashoffset: 0; stroke-linejoin: miter; stroke-miterlimit: 4; fill: rgb(147,149,152); fill-rule: nonzero; opacity: 1;" vector-effect="non-scaling-stroke"  transform=" translate(-112.8, -95.55)" d="M 115.49 96.23 L 110.11 96.23 C 109.73 96.23 109.42999999999999 95.93 109.42999999999999 95.55 C 109.42999999999999 95.16999999999999 109.72999999999999 94.86999999999999 110.11 94.86999999999999 L 115.49 94.86999999999999 C 115.86999999999999 94.86999999999999 116.17 95.16999999999999 116.17 95.55 C 116.17 95.93 115.87 96.23 115.49 96.23 z" stroke-linecap="round" />
</g>
		<g transform="matrix(0.43 0 0 0.43 2.48 -10.19)"  >
<path style="stroke: none; stroke-width: 1; stroke-dasharray: none; stroke-linecap: butt; stroke-dashoffset: 0; stroke-linejoin: miter; stroke-miterlimit: 4; fill: rgb(147,149,152); fill-rule: nonzero; opacity: 1;" vector-effect="non-scaling-stroke"  transform=" translate(-103.55, -62.35)" d="M 111.03 67.34 C 110.91 67.34 110.8 67.31 110.69 67.24000000000001 L 95.75 58.62000000000001 C 95.42 58.430000000000014 95.32 58.02000000000001 95.51 57.70000000000001 C 95.7 57.37000000000001 96.11 57.27000000000001 96.43 57.46000000000001 L 111.35000000000001 66.08000000000001 C 111.68 66.27000000000001 111.78000000000002 66.68 111.59 67.00000000000001 C 111.49 67.22 111.26 67.34 111.03 67.34 L 111.03 67.34 z" stroke-linecap="round" />
</g>
		<g transform="matrix(0.43 0 0 0.43 -4.19 -10.68)"  >
<path style="stroke: none; stroke-width: 1; stroke-dasharray: none; stroke-linecap: butt; stroke-dashoffset: 0; stroke-linejoin: miter; stroke-miterlimit: 4; fill: rgb(147,149,152); fill-rule: nonzero; opacity: 1;" vector-effect="non-scaling-stroke"  transform=" translate(-87.91, -61.23)" d="M 91.25 63.84 C 91.13 63.84 91.02 63.81 90.91 63.74 L 84.22 59.88 C 83.89 59.690000000000005 83.78999999999999 59.28 83.98 58.96 C 84.17 58.63 84.58 58.53 84.9 58.72 L 91.60000000000001 62.58 C 91.93 62.769999999999996 92.03000000000002 63.18 91.84 63.5 C 91.72 63.73 91.48 63.84 91.25 63.84 L 91.25 63.84 z" stroke-linecap="round" />
</g>
		<g transform="matrix(0.43 0 0 0.43 -8.87 -2.78)"  >
<path style="stroke: none; stroke-width: 1; stroke-dasharray: none; stroke-linecap: butt; stroke-dashoffset: 0; stroke-linejoin: miter; stroke-miterlimit: 4; fill: rgb(147,149,152); fill-rule: nonzero; opacity: 1;" vector-effect="non-scaling-stroke"  transform=" translate(-76.88, -79.76)" d="M 84.34 84.75 C 84.22 84.75 84.11 84.72 84 84.65 L 69.08 76.03 C 68.75 75.84 68.64999999999999 75.43 68.84 75.11 C 69.03 74.78 69.44 74.67999999999999 69.76 74.87 L 84.68 83.49000000000001 C 85.01 83.68 85.11000000000001 84.09 84.92 84.41000000000001 C 84.8 84.63 84.57 84.76 84.34 84.75 L 84.34 84.75 z" stroke-linecap="round" />
</g>
		<g transform="matrix(0.43 0 0 0.43 -9.16 1.08)"  >
<path style="stroke: none; stroke-width: 1; stroke-dasharray: none; stroke-linecap: butt; stroke-dashoffset: 0; stroke-linejoin: miter; stroke-miterlimit: 4; fill: rgb(147,149,152); fill-rule: nonzero; opacity: 1;" vector-effect="non-scaling-stroke"  transform=" translate(-76.24, -88.87)" d="M 80.57 92.05 C 80.46 92.05 80.33999999999999 92.02 80.22999999999999 91.95 L 71.57 86.95 C 71.24 86.76 71.13999999999999 86.35000000000001 71.33 86.03 C 71.52 85.7 71.92999999999999 85.6 72.25 85.79 L 80.91 90.79 C 81.24 90.98 81.34 91.39 81.14999999999999 91.71000000000001 C 81.03 91.92 80.8 92.05 80.57 92.05 L 80.57 92.05 z" stroke-linecap="round" />
</g>
		<g transform="matrix(0.43 0 0 0.43 -8.06 -8.12)"  >
<path style="stroke: none; stroke-width: 1; stroke-dasharray: none; stroke-linecap: butt; stroke-dashoffset: 0; stroke-linejoin: miter; stroke-miterlimit: 4; fill: rgb(147,149,152); fill-rule: nonzero; opacity: 1;" vector-effect="non-scaling-stroke"  transform=" translate(-78.84, -67.25)" d="M 81.24 69.31 C 81.13 69.31 81.00999999999999 69.28 80.89999999999999 69.21000000000001 L 76.10999999999999 66.45 C 75.77999999999999 66.26 75.67999999999998 65.85000000000001 75.86999999999999 65.53 C 76.05999999999999 65.2 76.46999999999998 65.1 76.78999999999999 65.29 L 81.57 68.05000000000001 C 81.89999999999999 68.24000000000001 82 68.65 81.80999999999999 68.97000000000001 C 81.7 69.19 81.47 69.31 81.24 69.31 L 81.24 69.31 z" stroke-linecap="round" />
</g>
		<g transform="matrix(0.43 0 0 0.43 -5.33 -6.54)"  >
<path style="stroke: none; stroke-width: 1; stroke-dasharray: none; stroke-linecap: butt; stroke-dashoffset: 0; stroke-linejoin: miter; stroke-miterlimit: 4; fill: rgb(147,149,152); fill-rule: nonzero; opacity: 1;" vector-effect="non-scaling-stroke"  transform=" translate(-85.26, -70.96)" d="M 86.81 72.53 C 86.69 72.53 86.58 72.5 86.47 72.43 L 83.37 70.64 C 83.04 70.45 82.94 70.04 83.13000000000001 69.72 C 83.32000000000001 69.39 83.73 69.28999999999999 84.05000000000001 69.48 L 87.15 71.27000000000001 C 87.48 71.46000000000001 87.58000000000001 71.87 87.39 72.19000000000001 C 87.27 72.41 87.04 72.53 86.81 72.53 L 86.81 72.53 z" stroke-linecap="round" />
</g>
		<g transform="matrix(0.43 0 0 0.43 -1.37 -9.05)"  >
<path style="stroke: none; stroke-width: 1; stroke-dasharray: none; stroke-linecap: butt; stroke-dashoffset: 0; stroke-linejoin: miter; stroke-miterlimit: 4; fill: rgb(147,149,152); fill-rule: nonzero; opacity: 1;" vector-effect="non-scaling-stroke"  transform=" translate(-94.59, -65.09)" d="M 95.48 66.28 C 95.36 66.28 95.25 66.25 95.14 66.18 L 93.36 65.15 C 93.03 64.96000000000001 92.92999999999999 64.55000000000001 93.12 64.23 C 93.31 63.900000000000006 93.72 63.800000000000004 94.04 63.99 L 95.82000000000001 65.02 C 96.15 65.21 96.25000000000001 65.61999999999999 96.06 65.94 C 95.94 66.16 95.73 66.28 95.48 66.28 L 95.48 66.28 z" stroke-linecap="round" />
</g>
		<g transform="matrix(0.43 0 0 0.43 -7.02 -12.31)"  >
<path style="stroke: none; stroke-width: 1; stroke-dasharray: none; stroke-linecap: butt; stroke-dashoffset: 0; stroke-linejoin: miter; stroke-miterlimit: 4; fill: rgb(147,149,152); fill-rule: nonzero; opacity: 1;" vector-effect="non-scaling-stroke"  transform=" translate(-81.28, -57.41)" d="M 82.02 58.52 C 81.89999999999999 58.52 81.78999999999999 58.49 81.67999999999999 58.42 L 80.21 57.56 C 79.88 57.370000000000005 79.77999999999999 56.96 79.97 56.64 C 80.16 56.31 80.57 56.21 80.89 56.4 L 82.36 57.26 C 82.69 57.449999999999996 82.79 57.86 82.6 58.18 C 82.49 58.39 82.27 58.52 82.02 58.52 L 82.02 58.52 z" stroke-linecap="round" />
</g>
		<g transform="matrix(0.43 0 0 0.43 -5.78 3.03)"  >
<path style="stroke: none; stroke-width: 1; stroke-dasharray: none; stroke-linecap: butt; stroke-dashoffset: 0; stroke-linejoin: miter; stroke-miterlimit: 4; fill: rgb(147,149,152); fill-rule: nonzero; opacity: 1;" vector-effect="non-scaling-stroke"  transform=" translate(-84.19, -93.46)" d="M 85.42 94.84 C 85.3 94.84 85.19 94.81 85.08 94.74000000000001 L 82.63 93.33000000000001 C 82.3 93.14000000000001 82.19999999999999 92.73000000000002 82.39 92.41000000000001 C 82.58 92.08000000000001 82.99 91.98 83.31 92.17000000000002 L 85.76 93.58000000000001 C 86.09 93.77000000000001 86.19000000000001 94.18 86 94.50000000000001 C 85.89 94.72 85.65 94.84 85.42 94.84 L 85.42 94.84 z" stroke-linecap="round" />
</g>
</g>
</g>
</svg>