<?xml version="1.0" encoding="UTF-8" standalone="no" ?>
<!DOCTYPE svg PUBLIC "-//W3C//DTD SVG 1.1//EN" "http://www.w3.org/Graphics/SVG/1.1/DTD/svg11.dtd">
<svg xmlns="http://www.w3.org/2000/svg" xmlns:xlink="http://www.w3.org/1999/xlink" version="1.1" width="150" height="150" viewBox="0 0 150 150" xml:space="preserve">
<desc>Created with Fabric.js 4.2.0</desc>
<defs>
</defs>
<rect x="0" y="0" width="100%" height="100%" fill="transparent"></rect>
<g transform="matrix(1 0 0 1 75 75)" id="41834118-5462-46a0-b16e-997f6bdd49b3"  >
<rect style="stroke: none; stroke-width: 1; stroke-dasharray: none; stroke-linecap: butt; stroke-dashoffset: 0; stroke-linejoin: miter; stroke-miterlimit: 4; fill: rgb(255,255,255); fill-rule: nonzero; opacity: 1; visibility: hidden;" vector-effect="non-scaling-stroke"  x="-75" y="-75" rx="0" ry="0" width="150" height="150" />
</g>
<g transform="matrix(Infinity NaN NaN Infinity 0 0)" id="da3f1fd6-3a17-4dd2-868b-7dc15ebd074c"  >
</g>
<g transform="matrix(5.18 0 0 5.18 75 95)"  >
<g style="" vector-effect="non-scaling-stroke"   >
		<g transform="matrix(0.37 0 0 0.37 0.25 -0.46)"  >
<path style="stroke: none; stroke-width: 1; stroke-dasharray: none; stroke-linecap: butt; stroke-dashoffset: 0; stroke-linejoin: miter; stroke-miterlimit: 4; fill: rgb(147,149,152); fill-rule: nonzero; opacity: 1;" vector-effect="non-scaling-stroke"  transform=" translate(-100.97, -84.97)" d="M 104.87 81.09 C 104.82 81.09 104.82 81.09 104.87 81.09 L 103.55000000000001 80.38000000000001 C 103.22000000000001 80.19000000000001 102.79 80.19000000000001 102.56000000000002 80.47000000000001 L 101 81.85 L 99.44 80.53 C 99.16 80.25 98.73 80.2 98.39999999999999 80.44 L 97.11999999999999 81.14999999999999 C 97.11999999999999 81.14999999999999 97.07 81.14999999999999 97.07 81.19999999999999 C 96.02999999999999 81.90999999999998 95.50999999999999 83.17999999999999 95.75 84.40999999999998 L 96.65 88.37999999999998 C 96.84 89.13999999999999 97.5 89.69999999999997 98.26 89.69999999999997 L 103.69 89.69999999999997 C 104.49 89.69999999999997 105.14999999999999 89.17999999999998 105.3 88.37999999999998 L 106.2 84.31999999999998 C 106.43 83.08 105.86 81.8 104.87 81.09 z M 105.25 84.12 L 104.35 88.09 C 104.25999999999999 88.42 103.97 88.66 103.64 88.66 L 98.26 88.66 C 97.93 88.66 97.65 88.42 97.55000000000001 88.09 L 96.65 84.12 C 96.51 83.27000000000001 96.89 82.37 97.59 81.85000000000001 L 98.82000000000001 81.19000000000001 L 100.38000000000001 82.56000000000002 C 100.71000000000001 82.89000000000001 101.28000000000002 82.84000000000002 101.51 82.56000000000002 L 103.07000000000001 81.19000000000001 L 104.30000000000001 81.85000000000001 C 105.06 82.41 105.39 83.27 105.25 84.12 z" stroke-linecap="round" />
</g>
		<g transform="matrix(0.37 0 0 0.37 0.25 -3.9)"  >
<path style="stroke: none; stroke-width: 1; stroke-dasharray: none; stroke-linecap: butt; stroke-dashoffset: 0; stroke-linejoin: miter; stroke-miterlimit: 4; fill: rgb(147,149,152); fill-rule: nonzero; opacity: 1;" vector-effect="non-scaling-stroke"  transform=" translate(-100.95, -75.71)" d="M 100.95 79.06 C 102.79 79.06 104.3 77.55 104.3 75.71000000000001 C 104.3 73.87000000000002 102.78999999999999 72.36000000000001 100.95 72.36000000000001 C 99.11000000000001 72.36000000000001 97.60000000000001 73.87000000000002 97.60000000000001 75.71000000000001 C 97.60000000000001 77.55 99.11 79.06 100.95 79.06 z M 100.95 73.3 C 102.27 73.3 103.36 74.39 103.36 75.71 C 103.36 77.02999999999999 102.27 78.11999999999999 100.95 78.11999999999999 C 99.63000000000001 78.11999999999999 98.54 77.02999999999999 98.54 75.71 C 98.54 74.39 99.63 73.3 100.95 73.3 z" stroke-linecap="round" />
</g>
		<g transform="matrix(0.37 0 0 0.37 4.07 -2.3)"  >
<path style="stroke: none; stroke-width: 1; stroke-dasharray: none; stroke-linecap: butt; stroke-dashoffset: 0; stroke-linejoin: miter; stroke-miterlimit: 4; fill: rgb(147,149,152); fill-rule: nonzero; opacity: 1;" vector-effect="non-scaling-stroke"  transform=" translate(-111.32, -80.05)" d="M 128.77 68.15 L 115.21000000000001 68.15 L 115.21000000000001 65.6 C 115.21000000000001 65.33999999999999 115.00000000000001 65.13 114.74000000000001 65.13 L 108.69000000000001 65.13 C 108.43 65.13 108.22000000000001 65.33999999999999 108.22000000000001 65.6 L 108.22000000000001 68.14999999999999 L 93.82 68.14999999999999 C 92.07 68.14999999999999 90.61 69.57 90.61 71.35999999999999 L 90.61 75.72999999999999 C 90.61 75.99 90.82 76.19999999999999 91.08 76.19999999999999 L 91.08 76.19999999999999 C 91.34 76.19999999999999 91.55 75.99 91.55 75.72999999999999 L 91.55 71.35999999999999 C 91.55 70.12999999999998 92.53999999999999 69.08999999999999 93.82 69.08999999999999 L 108.22999999999999 69.08999999999999 L 108.22999999999999 71.63999999999999 C 108.22999999999999 71.89999999999999 108.43999999999998 72.10999999999999 108.69999999999999 72.10999999999999 L 114.74999999999999 72.10999999999999 C 115.00999999999999 72.10999999999999 115.21999999999998 71.89999999999999 115.21999999999998 71.63999999999999 L 115.21999999999998 69.08999999999999 L 128.77999999999997 69.08999999999999 C 130.00999999999996 69.08999999999999 131.04999999999998 70.07999999999998 131.04999999999998 71.35999999999999 L 131.04999999999998 91.75999999999999 C 131.04999999999998 92.99 130.05999999999997 94.02999999999999 128.77999999999997 94.02999999999999 L 99.56 94.02999999999999 C 99.3 94.02999999999999 99.09 94.23999999999998 99.09 94.49999999999999 L 99.09 94.49999999999999 C 99.09 94.75999999999999 99.3 94.96999999999998 99.56 94.96999999999998 L 128.82 94.96999999999998 C 130.57 94.96999999999998 132.03 93.54999999999998 132.03 91.75999999999999 L 132.03 71.35999999999999 C 131.99 69.57 130.57 68.15 128.77 68.15 z M 114.27 71.17 L 109.17 71.17 L 109.17 66.07000000000001 L 114.27 66.07000000000001 L 114.27 71.17 z" stroke-linecap="round" />
</g>
		<g transform="matrix(0.37 0 0 0.37 6.75 -3.38)"  >
<path style="stroke: none; stroke-width: 1; stroke-dasharray: none; stroke-linecap: butt; stroke-dashoffset: 0; stroke-linejoin: miter; stroke-miterlimit: 4; fill: rgb(147,149,152); fill-rule: nonzero; opacity: 1;" vector-effect="non-scaling-stroke"  transform=" translate(-118.5, -77.12)" d="M 126.32 76.65 L 110.69 76.65 C 110.41 76.65 110.22 76.84 110.22 77.12 C 110.22 77.4 110.41 77.59 110.69 77.59 L 126.32 77.59 C 126.6 77.59 126.78999999999999 77.4 126.78999999999999 77.12 C 126.79 76.84 126.6 76.65 126.32 76.65 z" stroke-linecap="round" />
</g>
		<g transform="matrix(0.37 0 0 0.37 6.75 -1.73)"  >
<path style="stroke: none; stroke-width: 1; stroke-dasharray: none; stroke-linecap: butt; stroke-dashoffset: 0; stroke-linejoin: miter; stroke-miterlimit: 4; fill: rgb(147,149,152); fill-rule: nonzero; opacity: 1;" vector-effect="non-scaling-stroke"  transform=" translate(-118.5, -81.56)" d="M 126.32 81.09 L 110.69 81.09 C 110.41 81.09 110.22 81.28 110.22 81.56 C 110.22 81.84 110.41 82.03 110.69 82.03 L 126.32 82.03 C 126.6 82.03 126.78999999999999 81.84 126.78999999999999 81.56 C 126.79 81.28 126.6 81.09 126.32 81.09 z" stroke-linecap="round" />
</g>
		<g transform="matrix(0.37 0 0 0.37 6.75 -0.08)"  >
<path style="stroke: none; stroke-width: 1; stroke-dasharray: none; stroke-linecap: butt; stroke-dashoffset: 0; stroke-linejoin: miter; stroke-miterlimit: 4; fill: rgb(147,149,152); fill-rule: nonzero; opacity: 1;" vector-effect="non-scaling-stroke"  transform=" translate(-118.5, -86)" d="M 126.32 85.53 L 110.69 85.53 C 110.41 85.53 110.22 85.72 110.22 86 C 110.22 86.28 110.41 86.47 110.69 86.47 L 126.32 86.47 C 126.6 86.47 126.78999999999999 86.28 126.78999999999999 86 C 126.78999999999999 85.72 126.6 85.53 126.32 85.53 z" stroke-linecap="round" />
</g>
		<g transform="matrix(0.37 0 0 0.37 -6.36 2.6)"  >
<path style="stroke: none; stroke-width: 1; stroke-dasharray: none; stroke-linecap: butt; stroke-dashoffset: 0; stroke-linejoin: miter; stroke-miterlimit: 4; fill: rgb(147,149,152); fill-rule: nonzero; opacity: 1;" vector-effect="non-scaling-stroke"  transform=" translate(-83.21, -93.28)" d="M 83.2 93.23 C 81.54 93.23 80.18 94.58 80.18 96.25 C 80.18 97.91 81.53 99.27 83.2 99.27 C 84.86 99.27 86.22 97.92 86.22 96.25 C 86.22 94.59 84.86 93.23 83.2 93.23 z M 83.2 98.32 C 82.06 98.32 81.13000000000001 97.38999999999999 81.13000000000001 96.25 C 81.13000000000001 95.11000000000001 82.06000000000002 94.18 83.2 94.18 C 84.34 94.18 85.27 95.11000000000001 85.27 96.25 C 85.27 97.38999999999999 84.34 98.32 83.2 98.32 z M 97.73 106.79 L 95.76 98.75 C 95.71000000000001 98.53 95.7 98.3 95.73 98.07 L 96.67 91.88999999999999 C 96.8 91.05999999999999 96.41 90.23999999999998 95.7 89.80999999999999 L 92.35000000000001 87.76999999999998 C 92.33000000000001 87.75999999999998 92.30000000000001 87.74999999999999 92.28000000000002 87.73999999999998 C 90.13000000000001 85.10999999999999 86.86000000000001 83.42999999999998 83.21000000000001 83.42999999999998 C 79.56 83.42999999999998 76.29 85.10999999999999 74.14000000000001 87.73999999999998 C 74.12000000000002 87.74999999999999 74.09000000000002 87.75999999999998 74.07000000000002 87.76999999999998 L 70.72000000000003 89.80999999999999 C 70.00000000000003 90.24999999999999 69.62000000000003 91.05999999999999 69.75000000000003 91.88999999999999 L 70.69000000000003 98.07 C 70.72000000000003 98.3 70.71000000000002 98.52 70.66000000000003 98.75 L 68.69000000000003 106.78999999999999 C 68.63000000000002 107.03999999999999 68.78000000000003 107.3 69.04000000000002 107.35999999999999 C 69.08000000000003 107.36999999999999 69.12000000000002 107.36999999999999 69.15000000000002 107.36999999999999 C 69.36000000000001 107.36999999999999 69.56000000000002 107.21999999999998 69.61000000000001 107.00999999999999 L 69.64000000000001 106.89999999999999 L 71.58000000000001 98.97 C 71.66000000000001 98.63 71.68 98.27 71.63000000000001 97.92 L 70.69000000000001 91.74000000000001 C 70.62000000000002 91.29 70.83000000000001 90.85000000000001 71.22000000000001 90.61000000000001 L 73.17000000000002 89.43 L 72.98000000000002 89.80000000000001 C 72.44000000000001 90.88000000000001 72.60000000000002 92.17000000000002 73.38000000000002 93.08000000000001 L 73.62000000000002 93.37000000000002 C 73.79000000000002 93.57000000000002 74.04000000000002 93.67000000000002 74.30000000000003 93.65000000000002 C 74.56000000000003 93.63000000000002 74.79000000000002 93.48000000000002 74.92000000000003 93.25000000000001 L 75.53000000000003 92.19000000000001 C 75.66000000000003 91.96000000000001 75.94000000000003 91.86000000000001 76.19000000000003 91.95000000000002 C 76.33000000000003 92.00000000000001 76.44000000000003 92.11000000000001 76.50000000000003 92.25000000000001 C 76.56000000000003 92.39000000000001 76.56000000000003 92.54000000000002 76.49000000000002 92.68000000000002 L 74.50000000000003 97.13000000000002 C 74.37000000000003 97.41000000000003 74.30000000000003 97.71000000000002 74.27000000000002 98.01000000000002 L 73.55000000000003 106.85000000000002 C 73.55000000000003 106.86000000000003 73.55000000000003 106.88000000000002 73.55000000000003 106.89000000000003 C 73.55000000000003 107.13000000000002 73.74000000000002 107.34000000000003 73.98000000000003 107.36000000000003 C 74.24000000000004 107.38000000000002 74.47000000000003 107.19000000000003 74.49000000000004 106.92000000000003 L 74.79000000000003 103.28000000000003 C 76.92000000000003 105.49000000000002 79.91000000000004 106.86000000000003 83.22000000000003 106.86000000000003 C 86.52000000000002 106.86000000000003 89.51000000000003 105.48000000000003 91.65000000000003 103.28000000000003 L 91.95000000000003 106.92000000000003 C 91.97000000000003 107.18000000000004 92.20000000000003 107.38000000000002 92.46000000000004 107.36000000000003 C 92.71000000000004 107.34000000000003 92.89000000000004 107.13000000000002 92.89000000000004 106.89000000000003 C 92.89000000000004 106.88000000000002 92.89000000000004 106.86000000000003 92.89000000000004 106.85000000000002 L 92.17000000000004 98.01000000000002 C 92.15000000000005 97.71000000000002 92.07000000000005 97.41000000000003 91.94000000000004 97.13000000000002 L 89.95000000000005 92.68000000000002 C 89.89000000000004 92.54000000000002 89.89000000000004 92.39000000000001 89.94000000000004 92.25000000000001 C 90.00000000000004 92.11000000000001 90.11000000000004 92.00000000000001 90.25000000000004 91.95000000000002 C 90.50000000000004 91.85000000000002 90.78000000000004 91.96000000000002 90.91000000000004 92.19000000000001 L 91.52000000000004 93.26 C 91.65000000000003 93.48 91.88000000000004 93.63000000000001 92.14000000000004 93.66000000000001 C 92.40000000000005 93.68 92.65000000000005 93.58000000000001 92.82000000000005 93.38000000000001 L 93.07000000000005 93.09 C 93.85000000000005 92.17 94.00000000000006 90.88000000000001 93.47000000000006 89.81 L 93.28000000000006 89.44 L 95.23000000000006 90.62 C 95.62000000000006 90.86 95.82000000000006 91.30000000000001 95.76000000000006 91.75 L 94.82000000000006 97.93 C 94.77000000000007 98.28 94.78000000000006 98.63000000000001 94.87000000000006 98.98 L 96.81000000000006 106.91 L 96.84000000000006 107.02 C 96.89000000000006 107.24 97.09000000000006 107.38 97.30000000000005 107.38 C 97.34000000000006 107.38 97.38000000000005 107.38 97.41000000000005 107.36999999999999 C 97.63 107.3 97.79 107.05 97.73 106.79 z M 75.34 97.54 L 75.57000000000001 97.04 L 76.63000000000001 97.04 C 77.78000000000002 97.04 78.80000000000001 97.77000000000001 79.18 98.86 L 80.58000000000001 102.96 C 78.08000000000001 102.11999999999999 76.11000000000001 100.1 75.33000000000001 97.57 C 75.34 97.55 75.34 97.54 75.34 97.54 z M 91.52 102 C 89.53999999999999 104.4 86.55 105.94 83.19999999999999 105.94 C 79.85 105.94 76.85999999999999 104.41 74.88 102 L 75.08999999999999 99.44 C 76.63 102.35 79.68999999999998 104.34 83.19999999999999 104.34 C 86.71 104.34 89.76999999999998 102.35000000000001 91.30999999999999 99.44 L 91.52 102 z M 91.06 97.54 C 91.06 97.55000000000001 91.06 97.56 91.07000000000001 97.56 C 90.30000000000001 100.09 88.33000000000001 102.11 85.82000000000001 102.96000000000001 L 87.22000000000001 98.86000000000001 C 87.59000000000002 97.77000000000001 88.62000000000002 97.04000000000002 89.77000000000001 97.04000000000002 L 90.83000000000001 97.04000000000002 L 91.06 97.54 z M 90.41 96.08 L 89.77 96.08 C 88.21 96.08 86.83 97.07 86.32 98.53999999999999 L 84.71 103.24 C 84.22 103.33 83.71 103.38 83.19 103.38 C 82.67 103.38 82.17 103.33 81.67 103.24 L 80.06 98.53999999999999 C 79.56 97.07 78.17 96.08 76.61 96.08 L 76 96.08 L 77.2 93.39999999999999 C 78.7 92.99 80.74000000000001 92.69999999999999 83.2 92.69999999999999 C 85.66 92.69999999999999 87.7 92.99 89.2 93.39999999999999 L 90.41 96.08 z M 89.91 91.08 C 89.53 91.22 89.21 91.52 89.06 91.89999999999999 C 89 92.05 88.97 92.19999999999999 88.96000000000001 92.35999999999999 C 87.25000000000001 91.94999999999999 85.21000000000001 91.73999999999998 83.21000000000001 91.73999999999998 C 81.22000000000001 91.73999999999998 79.17 91.94999999999997 77.46000000000001 92.35999999999999 C 77.45 92.19999999999999 77.42 92.04999999999998 77.36000000000001 91.89999999999999 C 77.20000000000002 91.52 76.89000000000001 91.21999999999998 76.51000000000002 91.08 C 76.39000000000001 91.03 76.26000000000002 91.01 76.13000000000002 91 C 77.56000000000003 88.57 80.20000000000002 86.94 83.21000000000002 86.94 C 86.22000000000003 86.94 88.86000000000003 88.57 90.29000000000002 91 C 90.16 91.01 90.03 91.03 89.91 91.08 z M 92.32 92.49 L 92.22 92.61 L 91.72 91.74 C 91.71 91.72 91.69 91.69999999999999 91.67 91.67 C 90.29 88.34 87.01 85.99000000000001 83.19 85.99000000000001 C 79.37 85.99000000000001 76.09 88.34 74.71 91.67000000000002 C 74.69 91.69000000000001 74.67999999999999 91.71000000000002 74.66 91.74000000000001 L 74.16 92.61000000000001 L 74.06 92.49000000000001 C 73.53 91.86000000000001 73.42 90.98 73.79 90.24000000000001 L 74.53 88.75000000000001 C 76.49 86.11000000000001 79.64 84.39000000000001 83.18 84.39000000000001 C 86.72000000000001 84.39000000000001 89.86000000000001 86.11000000000001 91.83000000000001 88.75000000000001 L 92.57000000000001 90.24000000000001 C 92.96 90.98 92.85 91.86 92.32 92.49 z M 74.83 84.62 L 74.83 80.54 C 74.83 80.28 75.03999999999999 80.06 75.31 80.06 C 75.58000000000001 80.06 75.79 80.27 75.79 80.54 L 75.79 84.62 C 75.79 84.88000000000001 75.58000000000001 85.10000000000001 75.31 85.10000000000001 C 75.03999999999999 85.10000000000001 74.83 84.88 74.83 84.62 z M 90.62 84.62 L 90.62 80.54 C 90.62 80.28 90.83 80.06 91.10000000000001 80.06 C 91.37000000000002 80.06 91.58000000000001 80.27 91.58000000000001 80.54 L 91.58000000000001 84.62 C 91.58000000000001 84.88000000000001 91.37000000000002 85.10000000000001 91.10000000000001 85.10000000000001 C 90.83 85.10000000000001 90.62 84.88 90.62 84.62 z M 77.97 82.58 L 77.97 79.66 C 77.97 79.39999999999999 78.17999999999999 79.17999999999999 78.45 79.17999999999999 C 78.72000000000001 79.17999999999999 78.93 79.38999999999999 78.93 79.66 L 78.93 82.58 C 78.93 82.84 78.72000000000001 83.06 78.45 83.06 C 78.17999999999999 83.06 77.97 82.84 77.97 82.58 z M 87.48 82.58 L 87.48 79.66 C 87.48 79.39999999999999 87.69 79.17999999999999 87.96000000000001 79.17999999999999 C 88.23000000000002 79.17999999999999 88.44000000000001 79.38999999999999 88.44000000000001 79.66 L 88.44000000000001 82.58 C 88.44000000000001 82.84 88.23000000000002 83.06 87.96000000000001 83.06 C 87.69 83.06 87.48 82.84 87.48 82.58 z" stroke-linecap="round" />
</g>
</g>
</g>
</svg>