<?xml version="1.0" encoding="UTF-8" standalone="no" ?>
<!DOCTYPE svg PUBLIC "-//W3C//DTD SVG 1.1//EN" "http://www.w3.org/Graphics/SVG/1.1/DTD/svg11.dtd">
<svg xmlns="http://www.w3.org/2000/svg" xmlns:xlink="http://www.w3.org/1999/xlink" version="1.1" width="150" height="150" viewBox="0 0 150 150" xml:space="preserve">
<desc>Created with Fabric.js 4.2.0</desc>
<defs>
</defs>
<rect x="0" y="0" width="100%" height="100%" fill="transparent"></rect>
<g transform="matrix(1 0 0 1 75 75)" id="41834118-5462-46a0-b16e-997f6bdd49b3"  >
<rect style="stroke: none; stroke-width: 1; stroke-dasharray: none; stroke-linecap: butt; stroke-dashoffset: 0; stroke-linejoin: miter; stroke-miterlimit: 4; fill: rgb(255,255,255); fill-rule: nonzero; opacity: 1; visibility: hidden;" vector-effect="non-scaling-stroke"  x="-75" y="-75" rx="0" ry="0" width="150" height="150" />
</g>
<g transform="matrix(Infinity NaN NaN Infinity 0 0)" id="da3f1fd6-3a17-4dd2-868b-7dc15ebd074c"  >
</g>
<g transform="matrix(2.58 0 0 2.58 75 75)"  >
<g style="" vector-effect="non-scaling-stroke"   >
		<g transform="matrix(0.2 0 0 0.2 -0.01 0)"  >
<path style="stroke: none; stroke-width: 1; stroke-dasharray: none; stroke-linecap: butt; stroke-dashoffset: 0; stroke-linejoin: miter; stroke-miterlimit: 4; fill: rgb(147,149,152); fill-rule: nonzero; opacity: 1;" vector-effect="non-scaling-stroke"  transform=" translate(-294.8, -364.83)" d="M 361 431.3 L 231.43 431.3 L 231.43 264.37 C 231.43 256.29 238.01000000000002 249.72 246.1 249.72 L 343.51 249.72 C 351.59999999999997 249.72 358.18 256.29 358.18 264.37 C 358.18 265.93 359.45 267.2 361.01 267.2 C 362.57 267.2 363.84 265.93 363.84 264.37 C 363.84 253.17000000000002 354.71999999999997 244.06 343.51 244.06 L 246.1 244.06 C 234.89 244.06 225.76999999999998 253.17000000000002 225.76999999999998 264.37 L 225.76999999999998 434.14 C 225.76999999999998 435.7 227.04 436.96999999999997 228.6 436.96999999999997 L 358.16999999999996 436.96999999999997 L 358.16999999999996 465.28999999999996 C 358.16999999999996 473.36999999999995 351.59 479.93999999999994 343.49999999999994 479.93999999999994 L 246.08999999999995 479.93999999999994 C 237.99999999999994 479.93999999999994 231.41999999999996 473.36999999999995 231.41999999999996 465.28999999999996 L 231.41999999999996 449.29999999999995 C 231.41999999999996 447.73999999999995 230.14999999999995 446.46999999999997 228.58999999999995 446.46999999999997 C 227.02999999999994 446.46999999999997 225.75999999999993 447.73999999999995 225.75999999999993 449.29999999999995 L 225.75999999999993 465.28999999999996 C 225.75999999999993 476.48999999999995 234.87999999999994 485.59999999999997 246.08999999999992 485.59999999999997 L 343.4999999999999 485.59999999999997 C 354.70999999999987 485.59999999999997 363.82999999999987 476.48999999999995 363.82999999999987 465.28999999999996 L 363.82999999999987 434.14 C 363.83 432.57 362.57 431.3 361 431.3 L 361 431.3 z" stroke-linecap="round" />
</g>
		<g transform="matrix(0.2 0 0 0.2 0.04 18.86)"  >
<path style="stroke: none; stroke-width: 1; stroke-dasharray: none; stroke-linecap: butt; stroke-dashoffset: 0; stroke-linejoin: miter; stroke-miterlimit: 4; fill: rgb(147,149,152); fill-rule: nonzero; opacity: 1;" vector-effect="non-scaling-stroke"  transform=" translate(-294.8, -458.45)" d="M 306.8 458.45 C 306.8 451.84 301.42 446.46 294.8 446.46 C 288.18 446.46 282.8 451.84 282.8 458.45 C 282.8 465.06 288.18 470.44 294.8 470.44 C 301.42 470.44 306.8 465.06 306.8 458.45 z M 288.46 458.45 C 288.46 454.96 291.29999999999995 452.12 294.79999999999995 452.12 C 298.28999999999996 452.12 301.13999999999993 454.96 301.13999999999993 458.45 C 301.13999999999993 461.94 298.29999999999995 464.78 294.79999999999995 464.78 C 291.3 464.77 288.46 461.94 288.46 458.45 z" stroke-linecap="round" />
</g>
		<g transform="matrix(0.2 0 0 0.2 0.04 -20.36)"  >
<path style="stroke: none; stroke-width: 1; stroke-dasharray: none; stroke-linecap: butt; stroke-dashoffset: 0; stroke-linejoin: miter; stroke-miterlimit: 4; fill: rgb(147,149,152); fill-rule: nonzero; opacity: 1;" vector-effect="non-scaling-stroke"  transform=" translate(-294.8, -263)" d="M 285.9 260.17 C 284.34 260.17 283.07 261.44 283.07 263 C 283.07 264.56 284.34 265.83 285.9 265.83 L 303.71 265.83 C 305.27 265.83 306.53999999999996 264.56 306.53999999999996 263 C 306.53999999999996 261.44 305.27 260.17 303.71 260.17 L 285.9 260.17 z" stroke-linecap="round" />
</g>
		<g transform="matrix(0.2 0 0 0.2 1.52 -3.14)"  >
<path style="stroke: none; stroke-width: 1; stroke-dasharray: none; stroke-linecap: butt; stroke-dashoffset: 0; stroke-linejoin: miter; stroke-miterlimit: 4; fill: rgb(147,149,152); fill-rule: nonzero; opacity: 1;" vector-effect="non-scaling-stroke"  transform=" translate(-302.38, -349.04)" d="M 361 276.27 L 243.77 276.27 C 242.21 276.27 240.94 277.53999999999996 240.94 279.09999999999997 C 240.94 280.65999999999997 242.21 281.92999999999995 243.77 281.92999999999995 L 358.17 281.92999999999995 L 358.17 418.97999999999996 C 358.17 420.53999999999996 359.44 421.80999999999995 361 421.80999999999995 C 362.56 421.80999999999995 363.83 420.53999999999996 363.83 418.97999999999996 L 363.83 279.1 C 363.83 277.53 362.56 276.27 361 276.27 L 361 276.27 z" stroke-linecap="round" />
</g>
		<g transform="matrix(0.2 0 0 0.2 0.31 -2.37)"  >
<path style="stroke: none; stroke-width: 1; stroke-dasharray: none; stroke-linecap: butt; stroke-dashoffset: 0; stroke-linejoin: miter; stroke-miterlimit: 4; fill: rgb(147,149,152); fill-rule: nonzero; opacity: 1;" vector-effect="non-scaling-stroke"  transform=" translate(-296.28, -352.76)" d="M 333.61 371.78 L 327.19 371.78 L 327.19 339.90999999999997 C 327.19 338.93999999999994 326.34 338.09 325.37 338.09 L 317.25 338.09 L 317.25 334.33 C 317.25 323.3 308.77 314.33 298.1 313.37 L 298.1 298.22 C 298.1 297.25 297.25 296.40000000000003 296.28000000000003 296.40000000000003 C 295.31 296.40000000000003 294.34000000000003 297.25000000000006 294.34000000000003 298.22 L 294.34000000000003 298.83000000000004 L 284.40000000000003 298.83000000000004 C 283.43 298.83000000000004 282.58000000000004 299.68000000000006 282.58000000000004 300.65000000000003 L 282.58000000000004 308.65000000000003 C 282.58000000000004 309.62000000000006 283.43000000000006 310.47 284.40000000000003 310.47 L 294.34000000000003 310.47 L 294.34000000000003 313.38000000000005 C 283.55 314.3500000000001 275.19000000000005 323.32000000000005 275.19000000000005 334.34000000000003 L 275.19000000000005 338.1 L 267.07000000000005 338.1 C 266.1 338.1 265.25000000000006 338.95000000000005 265.25000000000006 339.92 L 265.25000000000006 371.79 L 258.83000000000004 371.79 C 257.86 371.79 257.01000000000005 372.64000000000004 257.01000000000005 373.61 L 257.01000000000005 407.3 C 257.01000000000005 408.27000000000004 257.86000000000007 409.12 258.83000000000004 409.12 L 333.72 409.12 C 334.69000000000005 409.12 335.54 408.27 335.54 407.3 L 335.54 373.61 C 335.42 372.63 334.58 371.78 333.61 371.78 L 333.61 371.78 z M 286.22 306.82 L 286.22 302.46 L 294.34000000000003 302.46 L 294.34000000000003 306.82 L 286.22 306.82 z M 278.83 334.33 C 278.83 324.76 286.59 317 296.15999999999997 317 C 305.72999999999996 317 313.48999999999995 324.76 313.48999999999995 334.33 L 313.48999999999995 338.09 L 278.8299999999999 338.09 L 278.83 334.33 z M 268.77 341.73 L 323.41999999999996 341.73 L 323.41999999999996 371.78000000000003 L 268.77 371.78000000000003 L 268.77 341.73 z M 331.79 405.47 L 260.53000000000003 405.47 L 260.53000000000003 375.42 L 331.79 375.42 L 331.79 405.47 z" stroke-linecap="round" />
</g>
		<g transform="matrix(0.2 0 0 0.2 -4.13 5.24)"  >
<path style="stroke: none; stroke-width: 1; stroke-dasharray: none; stroke-linecap: butt; stroke-dashoffset: 0; stroke-linejoin: miter; stroke-miterlimit: 4; fill: rgb(147,149,152); fill-rule: nonzero; opacity: 1;" vector-effect="non-scaling-stroke"  transform=" translate(-273.98, -390.5)" d="M 273.98 381.35 C 273.01 381.35 272.16 382.20000000000005 272.16 383.17 L 272.16 397.83000000000004 C 272.16 398.80000000000007 273.01000000000005 399.65000000000003 273.98 399.65000000000003 C 274.95000000000005 399.65000000000003 275.8 398.8 275.8 397.83000000000004 L 275.8 383.17 C 275.8 382.08 274.95 381.35 273.98 381.35 L 273.98 381.35 z" stroke-linecap="round" />
</g>
		<g transform="matrix(0.2 0 0 0.2 -1.92 5.24)"  >
<path style="stroke: none; stroke-width: 1; stroke-dasharray: none; stroke-linecap: butt; stroke-dashoffset: 0; stroke-linejoin: miter; stroke-miterlimit: 4; fill: rgb(147,149,152); fill-rule: nonzero; opacity: 1;" vector-effect="non-scaling-stroke"  transform=" translate(-285.01, -390.5)" d="M 285.01 381.35 C 284.03999999999996 381.35 283.19 382.20000000000005 283.19 383.17 L 283.19 397.83000000000004 C 283.19 398.80000000000007 284.04 399.65000000000003 285.01 399.65000000000003 C 285.98 399.65000000000003 286.83 398.8 286.83 397.83000000000004 L 286.83 383.17 C 286.83 382.08 286.1 381.35 285.01 381.35 z" stroke-linecap="round" />
</g>
		<g transform="matrix(0.2 0 0 0.2 4.77 5.24)"  >
<path style="stroke: none; stroke-width: 1; stroke-dasharray: none; stroke-linecap: butt; stroke-dashoffset: 0; stroke-linejoin: miter; stroke-miterlimit: 4; fill: rgb(147,149,152); fill-rule: nonzero; opacity: 1;" vector-effect="non-scaling-stroke"  transform=" translate(-318.34, -390.5)" d="M 318.34 381.35 C 317.36999999999995 381.35 316.52 382.20000000000005 316.52 383.17 L 316.52 397.83000000000004 C 316.52 398.80000000000007 317.37 399.65000000000003 318.34 399.65000000000003 C 319.31 399.65000000000003 320.15999999999997 398.8 320.15999999999997 397.83000000000004 L 320.15999999999997 383.17 C 320.15 382.08 319.43 381.35 318.34 381.35 z" stroke-linecap="round" />
</g>
		<g transform="matrix(0.2 0 0 0.2 2.56 5.24)"  >
<path style="stroke: none; stroke-width: 1; stroke-dasharray: none; stroke-linecap: butt; stroke-dashoffset: 0; stroke-linejoin: miter; stroke-miterlimit: 4; fill: rgb(147,149,152); fill-rule: nonzero; opacity: 1;" vector-effect="non-scaling-stroke"  transform=" translate(-307.31, -390.5)" d="M 307.31 381.35 C 306.34 381.35 305.49 382.20000000000005 305.49 383.17 L 305.49 397.83000000000004 C 305.49 398.80000000000007 306.34000000000003 399.65000000000003 307.31 399.65000000000003 C 308.28000000000003 399.65000000000003 309.13 398.8 309.13 397.83000000000004 L 309.13 383.17 C 309.13 382.08 308.28 381.35 307.31 381.35 z" stroke-linecap="round" />
</g>
		<g transform="matrix(0.2 0 0 0.2 0.32 5.24)"  >
<path style="stroke: none; stroke-width: 1; stroke-dasharray: none; stroke-linecap: butt; stroke-dashoffset: 0; stroke-linejoin: miter; stroke-miterlimit: 4; fill: rgb(147,149,152); fill-rule: nonzero; opacity: 1;" vector-effect="non-scaling-stroke"  transform=" translate(-296.16, -390.5)" d="M 296.16 381.35 C 295.19 381.35 294.34000000000003 382.20000000000005 294.34000000000003 383.17 L 294.34000000000003 397.83000000000004 C 294.34000000000003 398.80000000000007 295.19000000000005 399.65000000000003 296.16 399.65000000000003 C 297.13000000000005 399.65000000000003 297.98 398.8 297.98 397.83000000000004 L 297.98 383.17 C 297.98 382.08 297.13 381.35 296.16 381.35 z" stroke-linecap="round" />
</g>
		<g transform="matrix(0.2 0 0 0.2 -3.04 -1.53)"  >
<path style="stroke: none; stroke-width: 1; stroke-dasharray: none; stroke-linecap: butt; stroke-dashoffset: 0; stroke-linejoin: miter; stroke-miterlimit: 4; fill: rgb(147,149,152); fill-rule: nonzero; opacity: 1;" vector-effect="non-scaling-stroke"  transform=" translate(-279.44, -356.81)" d="M 279.44 347.66 C 278.46999999999997 347.66 277.62 348.51000000000005 277.62 349.48 L 277.62 364.14000000000004 C 277.62 365.11000000000007 278.47 365.96000000000004 279.44 365.96000000000004 C 280.41 365.96000000000004 281.26 365.11 281.26 364.14000000000004 L 281.26 349.48 C 281.25 348.39 280.53 347.66 279.44 347.66 z" stroke-linecap="round" />
</g>
		<g transform="matrix(0.2 0 0 0.2 -0.8 -1.53)"  >
<path style="stroke: none; stroke-width: 1; stroke-dasharray: none; stroke-linecap: butt; stroke-dashoffset: 0; stroke-linejoin: miter; stroke-miterlimit: 4; fill: rgb(147,149,152); fill-rule: nonzero; opacity: 1;" vector-effect="non-scaling-stroke"  transform=" translate(-290.59, -356.81)" d="M 290.59 347.66 C 289.61999999999995 347.66 288.77 348.51000000000005 288.77 349.48 L 288.77 364.14000000000004 C 288.77 365.11000000000007 289.62 365.96000000000004 290.59 365.96000000000004 C 291.56 365.96000000000004 292.40999999999997 365.11 292.40999999999997 364.14000000000004 L 292.40999999999997 349.48 C 292.4 348.39 291.56 347.66 290.59 347.66 z" stroke-linecap="round" />
</g>
		<g transform="matrix(0.2 0 0 0.2 3.67 -1.53)"  >
<path style="stroke: none; stroke-width: 1; stroke-dasharray: none; stroke-linecap: butt; stroke-dashoffset: 0; stroke-linejoin: miter; stroke-miterlimit: 4; fill: rgb(147,149,152); fill-rule: nonzero; opacity: 1;" vector-effect="non-scaling-stroke"  transform=" translate(-312.88, -356.81)" d="M 312.88 347.66 C 311.90999999999997 347.66 311.06 348.51000000000005 311.06 349.48 L 311.06 364.14000000000004 C 311.06 365.11000000000007 311.91 365.96000000000004 312.88 365.96000000000004 C 313.85 365.96000000000004 314.7 365.11 314.7 364.14000000000004 L 314.7 349.48 C 314.7 348.39 313.85 347.66 312.88 347.66 z" stroke-linecap="round" />
</g>
		<g transform="matrix(0.2 0 0 0.2 1.44 -1.53)"  >
<path style="stroke: none; stroke-width: 1; stroke-dasharray: none; stroke-linecap: butt; stroke-dashoffset: 0; stroke-linejoin: miter; stroke-miterlimit: 4; fill: rgb(147,149,152); fill-rule: nonzero; opacity: 1;" vector-effect="non-scaling-stroke"  transform=" translate(-301.73, -356.81)" d="M 301.73 347.66 C 300.76 347.66 299.91 348.51000000000005 299.91 349.48 L 299.91 364.14000000000004 C 299.91 365.11000000000007 300.76000000000005 365.96000000000004 301.73 365.96000000000004 C 302.70000000000005 365.96000000000004 303.55 365.11 303.55 364.14000000000004 L 303.55 349.48 C 303.55 348.39 302.7 347.66 301.73 347.66 z" stroke-linecap="round" />
</g>
</g>
</g>
</svg>