<?xml version="1.0" encoding="UTF-8" standalone="no" ?>
<!DOCTYPE svg PUBLIC "-//W3C//DTD SVG 1.1//EN" "http://www.w3.org/Graphics/SVG/1.1/DTD/svg11.dtd">
<svg xmlns="http://www.w3.org/2000/svg" xmlns:xlink="http://www.w3.org/1999/xlink" version="1.1" width="150" height="150" viewBox="0 0 150 150" xml:space="preserve">
<desc>Created with Fabric.js 4.2.0</desc>
<defs>
</defs>
<rect x="0" y="0" width="100%" height="100%" fill="transparent"></rect>
<g transform="matrix(1 0 0 1 75 75)" id="41834118-5462-46a0-b16e-997f6bdd49b3"  >
<rect style="stroke: none; stroke-width: 1; stroke-dasharray: none; stroke-linecap: butt; stroke-dashoffset: 0; stroke-linejoin: miter; stroke-miterlimit: 4; fill: rgb(255,255,255); fill-rule: nonzero; opacity: 1; visibility: hidden;" vector-effect="non-scaling-stroke"  x="-75" y="-75" rx="0" ry="0" width="150" height="150" />
</g>
<g transform="matrix(Infinity NaN NaN Infinity 0 0)" id="da3f1fd6-3a17-4dd2-868b-7dc15ebd074c"  >
</g>
<g transform="matrix(2.56 0 0 2.56 75 75)"  >
<g style="" vector-effect="non-scaling-stroke"   >
		<g transform="matrix(1.03 0 0 1.03 -8.08 0)"  >
<path style="stroke: none; stroke-width: 1; stroke-dasharray: none; stroke-linecap: butt; stroke-dashoffset: 0; stroke-linejoin: miter; stroke-miterlimit: 4; fill: rgb(147,149,152); fill-rule: nonzero; opacity: 1;" vector-effect="non-scaling-stroke"  transform=" translate(-94.24, -81.69)" d="M 106.08 96.63 C 105.73 96.63 105.44 96.92 105.44 97.27 L 105.44 100.86999999999999 C 105.44 101.60999999999999 105.14 102.32 104.62 102.85 C 104.10000000000001 103.36999999999999 103.38000000000001 103.66999999999999 102.64 103.66999999999999 L 85.82 103.66999999999999 C 85.08 103.66999999999999 84.36999999999999 103.36999999999999 83.83999999999999 102.85 C 83.32 102.33 83.02 101.61 83.02 100.86999999999999 L 83.02 62.5 C 83.02 61.76 83.32 61.05 83.83999999999999 60.52 C 84.35999999999999 60 85.07999999999998 59.7 85.82 59.7 L 87.89999999999999 59.7 L 88.64999999999999 61.57 C 88.80999999999999 61.96 89.08 62.3 89.42999999999999 62.53 C 89.77999999999999 62.77 90.19 62.89 90.61 62.89 L 98 62.89 C 98.42 62.89 98.83 62.77 99.18 62.53 C 99.53 62.29 99.80000000000001 61.96 99.96000000000001 61.57 L 100.71000000000001 59.7 L 102.64000000000001 59.7 C 103.38000000000001 59.7 104.09000000000002 60 104.62000000000002 60.52 C 105.14000000000001 61.040000000000006 105.44000000000001 61.760000000000005 105.44000000000001 62.5 L 105.44000000000001 67.03 C 105.44000000000001 67.38 105.73000000000002 67.67 106.08000000000001 67.67 C 106.43 67.67 106.72000000000001 67.38 106.72000000000001 67.03 L 106.72000000000001 62.5 C 106.72000000000001 61.42 106.29 60.38 105.53000000000002 59.62 C 104.77000000000001 58.86 103.73000000000002 58.43 102.65000000000002 58.43 L 85.82 58.43 C 84.74 58.43 83.69999999999999 58.86 82.94 59.62 C 82.17999999999999 60.379999999999995 81.75 61.419999999999995 81.75 62.5 L 81.75 100.87 C 81.75 101.95 82.18 102.99000000000001 82.94 103.75 C 83.7 104.51 84.74 104.94 85.82 104.94 L 102.63999999999999 104.94 C 103.71999999999998 104.94 104.75999999999999 104.50999999999999 105.51999999999998 103.75 C 106.27999999999999 102.99 106.70999999999998 101.95 106.70999999999998 100.87 L 106.70999999999998 97.27000000000001 C 106.71 96.92 106.43 96.63 106.08 96.63 L 106.08 96.63 z M 99.34 59.7 L 98.78 61.1 C 98.65 61.42 98.35 61.620000000000005 98.01 61.620000000000005 L 90.62 61.620000000000005 C 90.28 61.620000000000005 89.97 61.410000000000004 89.85000000000001 61.1 L 89.29 59.7 L 99.34 59.7 z" stroke-linecap="round" />
</g>
		<g transform="matrix(1.03 0 0 1.03 4.12 0.14)"  >
<path style="stroke: none; stroke-width: 1; stroke-dasharray: none; stroke-linecap: butt; stroke-dashoffset: 0; stroke-linejoin: miter; stroke-miterlimit: 4; fill: rgb(147,149,152); fill-rule: nonzero; opacity: 1;" vector-effect="non-scaling-stroke"  transform=" translate(-106.07, -81.81)" d="M 121.86 69.44 C 121.34 68.96 120.02 68.89999999999999 120.14 69.88 L 120.14 69.88 C 120.17 70.05 120.27 70.19 120.41 70.28999999999999 C 120.55 70.38 120.72 70.41999999999999 120.89 70.38999999999999 C 120.95 70.37999999999998 121.01 70.38999999999999 121.05 70.42999999999999 C 121.09 70.47 121.11999999999999 70.52 121.11999999999999 70.58 L 121.11999999999999 90.16 C 121.11999999999999 90.25 121.05 90.33 120.96 90.35 L 106.07 93.24 L 91.17999999999999 90.35 C 91.08999999999999 90.33 91.02 90.25 91.02 90.16 L 91.02 70.57 C 91.02 70.50999999999999 91.05 70.46 91.08999999999999 70.41999999999999 C 91.13 70.37999999999998 91.18999999999998 70.36999999999999 91.24999999999999 70.37999999999998 C 92.08999999999999 70.50999999999998 92.30999999999999 69.30999999999999 91.48999999999998 69.12999999999998 L 91.48999999999998 69.12999999999998 C 91.05999999999997 69.04999999999998 90.60999999999999 69.15999999999998 90.27999999999999 69.43999999999998 C 89.93999999999998 69.71999999999998 89.74999999999999 70.12999999999998 89.74999999999999 70.56999999999998 L 89.74999999999999 90.14999999999998 C 89.74999999999999 90.48999999999998 89.86999999999999 90.81999999999998 90.08999999999999 91.07999999999998 C 90.30999999999999 91.33999999999999 90.60999999999999 91.51999999999998 90.93999999999998 91.58999999999999 L 105.94999999999999 94.50999999999999 C 105.99 94.52 106.02999999999999 94.52 106.07 94.52 C 106.11 94.52 106.14999999999999 94.52 106.19 94.50999999999999 L 121.2 91.58999999999999 L 121.2 91.58999999999999 C 121.53 91.52 121.84 91.33999999999999 122.05 91.07999999999998 C 122.27 90.81999999999998 122.39 90.48999999999998 122.39 90.14999999999998 L 122.39 70.57 C 122.4 70.13 122.2 69.72 121.86 69.44 L 121.86 69.44 z" stroke-linecap="round" />
</g>
		<g transform="matrix(1.03 0 0 1.03 4.13 -2.04)"  >
<path style="stroke: none; stroke-width: 1; stroke-dasharray: none; stroke-linecap: butt; stroke-dashoffset: 0; stroke-linejoin: miter; stroke-miterlimit: 4; fill: rgb(147,149,152); fill-rule: nonzero; opacity: 1;" vector-effect="non-scaling-stroke"  transform=" translate(-106.08, -79.7)" d="M 94.57 67 C 94.16999999999999 66.99 93.78999999999999 67.14 93.5 67.41 C 93.21 67.69 93.05 68.07 93.05 68.47 L 93.05 87.42 C 93.05 87.8 93.2 88.17 93.46 88.44 C 93.72999999999999 88.71 94.08999999999999 88.87 94.47 88.88 C 101.26 89.11 105.65 92.25 105.7 92.28999999999999 L 105.7 92.28999999999999 C 105.92 92.44999999999999 106.22 92.44999999999999 106.45 92.28999999999999 C 106.49000000000001 92.25999999999999 110.9 89.10999999999999 117.68 88.88 L 117.68 88.88 C 118.06 88.86999999999999 118.42 88.71 118.69000000000001 88.44 C 118.96000000000001 88.17 119.10000000000001 87.8 119.10000000000001 87.42 L 119.10000000000001 68.47 C 119.12 67.66 118.39000000000001 66.95 117.58000000000001 67 C 111.50000000000001 67.22 107.32000000000001 69.6 106.08000000000001 70.4 C 104.84 69.6 100.65 67.22 94.57 67 L 94.57 67 z M 94.33 87.42 L 94.33 68.47 C 94.33 68.42 94.35 68.37 94.39 68.33 C 100.05 68.28 104.48 70.91 105.44 71.51 L 105.44 90.62 C 103.7 89.62 99.83 87.79 94.52 87.61 L 94.52 87.61 C 94.41 87.61 94.33 87.52 94.33 87.42 L 94.33 87.42 z M 117.62 68.27 C 117.67 68.27 117.72 68.28999999999999 117.76 68.32 C 117.80000000000001 68.36 117.82000000000001 68.41 117.82000000000001 68.46 L 117.82000000000001 87.41 C 117.82000000000001 87.50999999999999 117.74000000000001 87.6 117.63000000000001 87.6 C 112.32000000000001 87.78 108.45000000000002 89.61 106.71000000000001 90.61 L 106.71000000000001 72.61 L 106.71000000000001 71.5 C 107.75 70.84 111.81 68.48 117.62 68.27 L 117.62 68.27 z" stroke-linecap="round" />
</g>
		<g transform="matrix(1.03 0 0 1.03 -8.07 20.69)"  >
<path style="stroke: none; stroke-width: 1; stroke-dasharray: none; stroke-linecap: butt; stroke-dashoffset: 0; stroke-linejoin: miter; stroke-miterlimit: 4; fill: rgb(147,149,152); fill-rule: nonzero; opacity: 1;" vector-effect="non-scaling-stroke"  transform=" translate(-94.23, -101.75)" d="M 87.67 101.75 C 87.67 102.1 87.96000000000001 102.39 88.31 102.39 L 100.16 102.39 C 100.50999999999999 102.39 100.8 102.1 100.8 101.75 C 100.8 101.4 100.50999999999999 101.11 100.16 101.11 L 88.31 101.11 C 87.95 101.11 87.67 101.4 87.67 101.75 L 87.67 101.75 z" stroke-linecap="round" />
</g>
		<g transform="matrix(1.03 0 0 1.03 -2.25 -8.32)"  >
<path style="stroke: none; stroke-width: 1; stroke-dasharray: none; stroke-linecap: butt; stroke-dashoffset: 0; stroke-linejoin: miter; stroke-miterlimit: 4; fill: rgb(147,149,152); fill-rule: nonzero; opacity: 1;" vector-effect="non-scaling-stroke"  transform=" translate(-99.88, -73.61)" d="M 102.89 73.73 C 101.06 73 99.15 72.5 97.19 72.26 C 96.35 72.18 96.2 73.4 97.03 73.53 L 97.03 73.53 C 98.88 73.76 100.68 74.22 102.41 74.91 C 103.2 75.21 103.67 74.07 102.89 73.73 L 102.89 73.73 z" stroke-linecap="round" />
</g>
		<g transform="matrix(1.03 0 0 1.03 -2.25 -2.78)"  >
<path style="stroke: none; stroke-width: 1; stroke-dasharray: none; stroke-linecap: butt; stroke-dashoffset: 0; stroke-linejoin: miter; stroke-miterlimit: 4; fill: rgb(147,149,152); fill-rule: nonzero; opacity: 1;" vector-effect="non-scaling-stroke"  transform=" translate(-99.88, -78.98)" d="M 102.89 79.1 C 101.06 78.36999999999999 99.15 77.86999999999999 97.19 77.63 C 96.35 77.55 96.2 78.77 97.03 78.89999999999999 L 97.03 78.89999999999999 C 98.88 79.13 100.68 79.58999999999999 102.41 80.27999999999999 C 103.2 80.57 103.67 79.44 102.89 79.1 L 102.89 79.1 z" stroke-linecap="round" />
</g>
		<g transform="matrix(1.03 0 0 1.03 -2.25 2.74)"  >
<path style="stroke: none; stroke-width: 1; stroke-dasharray: none; stroke-linecap: butt; stroke-dashoffset: 0; stroke-linejoin: miter; stroke-miterlimit: 4; fill: rgb(147,149,152); fill-rule: nonzero; opacity: 1;" vector-effect="non-scaling-stroke"  transform=" translate(-99.88, -84.34)" d="M 102.89 84.46 C 101.06 83.72999999999999 99.15 83.22999999999999 97.19 82.99 C 96.35 82.92 96.2 84.11999999999999 97.03 84.25999999999999 L 97.03 84.25999999999999 C 98.88 84.47999999999999 100.68 84.94999999999999 102.41 85.63999999999999 C 103.2 85.94 103.67 84.81 102.89 84.46 L 102.89 84.46 z" stroke-linecap="round" />
</g>
		<g transform="matrix(1.03 0 0 1.03 10.52 -8.32)"  >
<path style="stroke: none; stroke-width: 1; stroke-dasharray: none; stroke-linecap: butt; stroke-dashoffset: 0; stroke-linejoin: miter; stroke-miterlimit: 4; fill: rgb(147,149,152); fill-rule: nonzero; opacity: 1;" vector-effect="non-scaling-stroke"  transform=" translate(-112.28, -73.61)" d="M 109.5 74.96 C 109.58 74.96 109.66 74.94 109.74 74.91 C 111.47 74.22 113.27 73.75 115.11999999999999 73.53 C 115.28999999999999 73.51 115.44999999999999 73.43 115.55999999999999 73.29 C 115.66999999999999 73.16000000000001 115.71999999999998 72.98 115.68999999999998 72.81 C 115.66999999999999 72.64 115.57999999999998 72.48 115.43999999999998 72.38 C 115.29999999999998 72.28 115.12999999999998 72.22999999999999 114.95999999999998 72.25999999999999 C 112.99999999999999 72.49999999999999 111.08999999999997 72.99 109.25999999999998 73.71999999999998 C 108.97999999999998 73.82999999999998 108.80999999999997 74.12999999999998 108.86999999999998 74.42999999999998 C 108.93 74.74 109.19 74.96 109.5 74.96 L 109.5 74.96 z" stroke-linecap="round" />
</g>
		<g transform="matrix(1.03 0 0 1.03 10.52 -2.79)"  >
<path style="stroke: none; stroke-width: 1; stroke-dasharray: none; stroke-linecap: butt; stroke-dashoffset: 0; stroke-linejoin: miter; stroke-miterlimit: 4; fill: rgb(147,149,152); fill-rule: nonzero; opacity: 1;" vector-effect="non-scaling-stroke"  transform=" translate(-112.28, -78.98)" d="M 109.5 80.33 C 109.58 80.33 109.66 80.31 109.74 80.28 C 111.47 79.59 113.27 79.12 115.11999999999999 78.9 C 115.28999999999999 78.88000000000001 115.44999999999999 78.80000000000001 115.55999999999999 78.66000000000001 C 115.66999999999999 78.53000000000002 115.71999999999998 78.35000000000001 115.68999999999998 78.18 C 115.66999999999999 78.01 115.57999999999998 77.85000000000001 115.43999999999998 77.75 C 115.29999999999998 77.65 115.12999999999998 77.6 114.95999999999998 77.63 C 112.99999999999999 77.86999999999999 111.08999999999997 78.36 109.25999999999998 79.08999999999999 C 108.97999999999998 79.19999999999999 108.80999999999997 79.49999999999999 108.86999999999998 79.79999999999998 C 108.93 80.11 109.19 80.33 109.5 80.33 L 109.5 80.33 z" stroke-linecap="round" />
</g>
		<g transform="matrix(1.03 0 0 1.03 10.52 2.75)"  >
<path style="stroke: none; stroke-width: 1; stroke-dasharray: none; stroke-linecap: butt; stroke-dashoffset: 0; stroke-linejoin: miter; stroke-miterlimit: 4; fill: rgb(147,149,152); fill-rule: nonzero; opacity: 1;" vector-effect="non-scaling-stroke"  transform=" translate(-112.28, -84.35)" d="M 109.5 85.7 C 109.58 85.7 109.66 85.68 109.74 85.65 C 111.47 84.96000000000001 113.27 84.49000000000001 115.11999999999999 84.27000000000001 C 115.28999999999999 84.25000000000001 115.44999999999999 84.17000000000002 115.55999999999999 84.03000000000002 C 115.66999999999999 83.90000000000002 115.71999999999998 83.72000000000001 115.68999999999998 83.55000000000001 C 115.65999999999998 83.38000000000001 115.57999999999998 83.22000000000001 115.43999999999998 83.12 C 115.29999999999998 83.02000000000001 115.12999999999998 82.97 114.95999999999998 83 C 112.99999999999999 83.24 111.08999999999997 83.73 109.25999999999998 84.47 C 108.97999999999998 84.58 108.80999999999997 84.88 108.86999999999998 85.17999999999999 C 108.93 85.48 109.19 85.7 109.5 85.7 L 109.5 85.7 z" stroke-linecap="round" />
</g>
</g>
</g>
</svg>