<?xml version="1.0" encoding="UTF-8" standalone="no" ?>
<!DOCTYPE svg PUBLIC "-//W3C//DTD SVG 1.1//EN" "http://www.w3.org/Graphics/SVG/1.1/DTD/svg11.dtd">
<svg xmlns="http://www.w3.org/2000/svg" xmlns:xlink="http://www.w3.org/1999/xlink" version="1.1" width="150" height="150" viewBox="0 0 150 150" xml:space="preserve">
<desc>Created with Fabric.js 4.2.0</desc>
<defs>
</defs>
<g transform="matrix(0 0 0 0 0 0)" id="71574a7b-7b41-4190-876c-343da997ad33"  >
</g>
<g transform="matrix(1 0 0 1 75 75)" id="d402aa5a-db25-430e-b5d2-72ef54346a55"  >
<rect style="stroke: none; stroke-width: 1; stroke-dasharray: none; stroke-linecap: butt; stroke-dashoffset: 0; stroke-linejoin: miter; stroke-miterlimit: 4; fill: rgb(255,255,255); fill-rule: nonzero; opacity: 1; visibility: hidden;" vector-effect="non-scaling-stroke"  x="-75" y="-75" rx="0" ry="0" width="150" height="150" />
</g>
<g transform="matrix(2.75 0 0 2.75 75 75)"  >
<g style="" vector-effect="non-scaling-stroke"   >
		<g transform="matrix(0.91 0 0 0.91 0 0)"  >
<path style="stroke: none; stroke-width: 1; stroke-dasharray: none; stroke-linecap: butt; stroke-dashoffset: 0; stroke-linejoin: miter; stroke-miterlimit: 4; fill: rgb(147,149,152); fill-rule: nonzero; opacity: 1;" vector-effect="non-scaling-stroke"  transform=" translate(-84.6, -58.34)" d="M 106.08 33.31 L 81.64 33.31 C 80.05 33.31 78.76 34.6 78.76 36.190000000000005 L 78.76 46.300000000000004 L 60.6 53.92 C 60.39 54.010000000000005 60.25 54.2 60.24 54.42 C 60.22 54.64 60.330000000000005 54.85 60.53 54.97 L 62.85 56.36 L 62.85 71.13 C 61.67 71.39999999999999 60.78 72.46 60.78 73.72999999999999 L 60.78 75.14999999999999 C 60.78 75.47999999999999 61.04 75.74 61.370000000000005 75.74 L 65.52000000000001 75.74 C 65.85000000000001 75.74 66.11000000000001 75.47999999999999 66.11000000000001 75.14999999999999 L 66.11000000000001 73.72999999999999 C 66.11000000000001 72.46 65.22000000000001 71.41 64.04000000000002 71.13 L 64.04000000000002 57.07 L 65.87000000000002 58.17 C 65.81000000000002 58.59 65.86000000000001 57.43 65.84000000000002 65.04 C 65.84000000000002 67.54 72.25000000000001 68.88000000000001 78.77000000000001 68.96000000000001 L 78.77000000000001 80.48 C 78.77000000000001 81.08 78.95000000000002 81.63000000000001 79.26 82.09 C 79.78 82.86 80.66000000000001 83.36 81.65 83.36 L 106.09 83.36 C 107.68 83.36 108.97 82.07 108.97 80.48 C 108.97 80.56 108.97 78.04 108.97 36.190000000000005 C 108.96 34.62 107.66 33.31 106.08 33.31 z M 64.92 73.73 L 64.92 74.56 L 61.96 74.56 L 61.96 73.73 C 61.96 72.91000000000001 62.62 72.24000000000001 63.44 72.24000000000001 C 64.25 72.24 64.92 72.91 64.92 73.73 z M 106.08 82.18 L 81.64 82.18 C 81.05 82.18 80.54 81.88000000000001 80.23 81.43 C 80.05 81.16000000000001 79.94 80.83000000000001 79.94 80.48 L 79.94 76.49000000000001 L 107.77 76.49000000000001 L 107.77 80.49000000000001 C 107.77 81.41 107 82.18 106.08 82.18 z M 107.77 75.3 L 79.94 75.3 L 79.94 68.96 C 83.12 68.91999999999999 92.87 68.22 92.87 65.03999999999999 C 92.87 60.25999999999999 92.88000000000001 58.31999999999999 92.85000000000001 58.15999999999999 L 98.16000000000001 54.97999999999999 C 98.35000000000001 54.86999999999999 98.46000000000001 54.64999999999999 98.45000000000002 54.42999999999999 C 98.43000000000002 54.209999999999994 98.29000000000002 54.00999999999999 98.09000000000002 53.92999999999999 L 79.94000000000003 46.309999999999995 L 79.94000000000003 41.37 L 107.77000000000002 41.37 L 107.77000000000002 75.3 z M 79.35 61.12 C 76.07 61.12 69.75999999999999 61.54 67.00999999999999 63.33 C 67.02999999999999 57.849999999999994 66.82 58.21 67.49 57.739999999999995 C 69.19 56.489999999999995 74.07 55.60999999999999 79.33999999999999 55.60999999999999 C 81.63999999999999 55.60999999999999 91.67999999999999 56.239999999999995 91.67999999999999 58.36999999999999 L 91.67999999999999 63.32999999999999 C 88.92 61.52 82.64 61.12 79.35 61.12 z M 79.94 36.19 C 79.94 35.25 80.7 34.489999999999995 81.64 34.489999999999995 L 106.08 34.489999999999995 C 107.02 34.489999999999995 107.78 35.26 107.78 36.19 L 107.78 40.18 L 79.94 40.18 L 79.94 36.19 z M 79.35 47.34 L 96.56 54.56 L 92.3 57.11 C 90.03 54.86 82.53 54.43 79.35 54.43 C 76.16999999999999 54.43 68.66999999999999 54.87 66.39999999999999 57.11 L 62.129999999999995 54.56 L 79.35 47.34 z M 67.01 65.04 C 67.01 64.08000000000001 71.25 62.300000000000004 79.35000000000001 62.300000000000004 C 87.45 62.300000000000004 91.69000000000001 64.09 91.69000000000001 65.04 C 91.69000000000001 66 87.45000000000002 67.78 79.35000000000001 67.78 C 71.25 67.78 67.01 66 67.01 65.04 z" stroke-linecap="round" />
</g>
		<g transform="matrix(0.91 0 0 0.91 8.32 18.97)"  >
<path style="stroke: none; stroke-width: 1; stroke-dasharray: none; stroke-linecap: butt; stroke-dashoffset: 0; stroke-linejoin: miter; stroke-miterlimit: 4; fill: rgb(147,149,152); fill-rule: nonzero; opacity: 1;" vector-effect="non-scaling-stroke"  transform=" translate(-93.86, -79.34)" d="M 93.86 77.38 C 92.78 77.38 91.9 78.25999999999999 91.9 79.33999999999999 C 91.9 80.41999999999999 92.78 81.29999999999998 93.86 81.29999999999998 C 94.94 81.29999999999998 95.82 80.41999999999999 95.82 79.33999999999999 C 95.82 78.25999999999999 94.94 77.38 93.86 77.38 z M 93.86 80.11 C 93.42999999999999 80.11 93.09 79.76 93.09 79.34 C 93.09 78.92 93.44 78.57000000000001 93.86 78.57000000000001 C 94.29 78.57000000000001 94.63 78.92 94.63 79.34 C 94.63 79.76 94.28 80.11 93.86 80.11 z" stroke-linecap="round" />
</g>
		<g transform="matrix(0.91 0 0 0.91 8.31 -19.11)"  >
<rect style="stroke: none; stroke-width: 1; stroke-dasharray: none; stroke-linecap: butt; stroke-dashoffset: 0; stroke-linejoin: miter; stroke-miterlimit: 4; fill: rgb(147,149,152); fill-rule: nonzero; opacity: 1;" vector-effect="non-scaling-stroke"  x="-2.255" y="-0.59" rx="0" ry="0" width="4.51" height="1.18" />
</g>
</g>
</g>
</svg>