<?xml version="1.0" encoding="UTF-8" standalone="no" ?>
<!DOCTYPE svg PUBLIC "-//W3C//DTD SVG 1.1//EN" "http://www.w3.org/Graphics/SVG/1.1/DTD/svg11.dtd">
<svg xmlns="http://www.w3.org/2000/svg" xmlns:xlink="http://www.w3.org/1999/xlink" version="1.1" width="150" height="150" viewBox="0 0 150 150" xml:space="preserve">
<desc>Created with Fabric.js 4.2.0</desc>
<defs>
</defs>
<rect x="0" y="0" width="100%" height="100%" fill="transparent"></rect>
<g transform="matrix(1 0 0 1 75 75)" id="41834118-5462-46a0-b16e-997f6bdd49b3"  >
<rect style="stroke: none; stroke-width: 1; stroke-dasharray: none; stroke-linecap: butt; stroke-dashoffset: 0; stroke-linejoin: miter; stroke-miterlimit: 4; fill: rgb(255,255,255); fill-rule: nonzero; opacity: 1; visibility: hidden;" vector-effect="non-scaling-stroke"  x="-75" y="-75" rx="0" ry="0" width="150" height="150" />
</g>
<g transform="matrix(Infinity NaN NaN Infinity 0 0)" id="da3f1fd6-3a17-4dd2-868b-7dc15ebd074c"  >
</g>
<g transform="matrix(4.68 0 0 4.68 75 75)"  >
<g style="" vector-effect="non-scaling-stroke"   >
		<g transform="matrix(0.49 0 0 0.49 0.06 -5.17)"  >
<path style="stroke: none; stroke-width: 1; stroke-dasharray: none; stroke-linecap: butt; stroke-dashoffset: 0; stroke-linejoin: miter; stroke-miterlimit: 4; fill: rgb(147,149,152); fill-rule: nonzero; opacity: 1;" vector-effect="non-scaling-stroke"  transform=" translate(-96.68, -71.34)" d="M 88.27 80.3 C 87.74 76.92999999999999 87.46 73.12 87.6 72.00999999999999 C 88.05999999999999 68.17999999999999 89.99 63.60999999999999 96.61 63.60999999999999 C 103.3 63.60999999999999 105.25 68.17999999999999 105.71 72.00999999999999 C 105.83999999999999 73.11999999999999 105.57 76.92999999999999 105.03999999999999 80.29999999999998 L 106.3 80.29999999999998 C 106.84 76.84999999999998 107.09 73.06999999999998 106.95 71.85999999999999 C 106.53 68.31999999999998 104.63000000000001 62.37999999999998 96.63 62.37999999999998 C 88.71 62.37999999999998 86.82 68.31999999999998 86.39999999999999 71.85999999999999 C 86.25999999999999 73.05999999999999 86.50999999999999 76.84999999999998 87.05 80.29999999999998 L 88.27 80.29999999999998 z" stroke-linecap="round" />
</g>
		<g transform="matrix(0.49 0 0 0.49 -0.01 4.57)"  >
<path style="stroke: none; stroke-width: 1; stroke-dasharray: none; stroke-linecap: butt; stroke-dashoffset: 0; stroke-linejoin: miter; stroke-miterlimit: 4; fill: rgb(147,149,152); fill-rule: nonzero; opacity: 1;" vector-effect="non-scaling-stroke"  transform=" translate(-96.54, -91.19)" d="M 111.22 100.71 C 111.48 100.71 111.72 100.55 111.8 100.28999999999999 C 111.91 99.97 111.74 99.61999999999999 111.42 99.49999999999999 C 111.36 99.47999999999999 105.44 97.41999999999999 103.86 94.77999999999999 C 103.35 93.34999999999998 102.34 89.48999999999998 103.46 87.94999999999999 C 103.47 87.93999999999998 103.47 87.91999999999999 103.47999999999999 87.89999999999999 C 104.05999999999999 87.21 104.54999999999998 86.50999999999999 104.86999999999999 85.85 C 105.21 85.16 105.52 84.11999999999999 105.78999999999999 82.91 L 116.16999999999999 82.91 C 116.50999999999999 82.91 116.78999999999999 82.63 116.78999999999999 82.28999999999999 C 116.78999999999999 81.94999999999999 116.50999999999999 81.66999999999999 116.16999999999999 81.66999999999999 L 76.92 81.66999999999999 C 76.58 81.66999999999999 76.3 81.94999999999999 76.3 82.28999999999999 C 76.3 82.63 76.58 82.91 76.92 82.91 L 87.5 82.91 C 87.77 84.11999999999999 88.08 85.17 88.42 85.85 C 88.77 86.55 89.3 87.30999999999999 89.94 88.05 C 90.91 89.66 89.95 93.34 89.46 94.72999999999999 C 87.86999999999999 97.35999999999999 81.96 99.42999999999999 81.89999999999999 99.44999999999999 C 81.58 99.55999999999999 81.41 99.90999999999998 81.52 100.24 C 81.61 100.5 81.85 100.66 82.1 100.66 C 82.16999999999999 100.66 82.22999999999999 100.64999999999999 82.3 100.63 C 82.56 100.53999999999999 88.78 98.36999999999999 90.56 95.32 L 90.61 95.22 C 90.76 94.81 91.7 92.08 91.6 89.7 C 91.75999999999999 89.84 91.91999999999999 89.97 92.08 90.10000000000001 C 93.78999999999999 91.46000000000001 95.42 92.22000000000001 96.65 92.22000000000001 C 97.88000000000001 92.22000000000001 99.51 91.47000000000001 101.22 90.10000000000001 C 101.39 89.96000000000001 101.56 89.82000000000001 101.73 89.67 C 101.61 92.07000000000001 102.56 94.84 102.71000000000001 95.25 L 102.76 95.35 C 104.53 98.39999999999999 110.75 100.57 111.02000000000001 100.66 C 111.08 100.7 111.15 100.71 111.22 100.71 z M 100.45 89.14 C 99 90.3 97.58 90.99 96.65 90.99 C 95.72 90.99 94.30000000000001 90.3 92.85000000000001 89.14 C 92.15 88.58 91.50000000000001 87.96 90.94000000000001 87.33 C 90.91000000000001 87.28999999999999 90.89000000000001 87.24 90.86000000000001 87.2 C 90.82000000000001 87.14 90.77000000000001 87.10000000000001 90.71000000000001 87.06 C 90.22000000000001 86.47 89.81 85.87 89.53 85.32000000000001 C 89.25 84.77000000000001 89 83.92 88.77 82.93 L 104.52 82.93 C 104.28999999999999 83.92 104.03999999999999 84.77000000000001 103.75999999999999 85.32000000000001 C 103.15 86.55 101.91 87.98 100.45 89.14 z" stroke-linecap="round" />
</g>
		<g transform="matrix(0.49 0 0 0.49 -8.07 -9.97)"  >
<path style="stroke: none; stroke-width: 1; stroke-dasharray: none; stroke-linecap: butt; stroke-dashoffset: 0; stroke-linejoin: miter; stroke-miterlimit: 4; fill: rgb(147,149,152); fill-rule: nonzero; opacity: 1;" vector-effect="non-scaling-stroke"  transform=" translate(-80.1, -61.58)" d="M 74.56 67.74 C 74.9 67.74 75.18 67.46 75.18 67.11999999999999 L 75.18 56.66 L 85.64000000000001 56.66 C 85.98000000000002 56.66 86.26000000000002 56.379999999999995 86.26000000000002 56.04 C 86.26000000000002 55.7 85.98000000000002 55.42 85.64000000000001 55.42 L 74.56 55.42 C 74.22 55.42 73.94 55.7 73.94 56.04 L 73.94 67.11 C 73.94 67.46 74.21 67.74 74.56 67.74 z" stroke-linecap="round" />
</g>
		<g transform="matrix(0.49 0 0 0.49 8.09 -9.97)"  >
<path style="stroke: none; stroke-width: 1; stroke-dasharray: none; stroke-linecap: butt; stroke-dashoffset: 0; stroke-linejoin: miter; stroke-miterlimit: 4; fill: rgb(147,149,152); fill-rule: nonzero; opacity: 1;" vector-effect="non-scaling-stroke"  transform=" translate(-113.01, -61.59)" d="M 118.54 55.43 L 107.47 55.43 C 107.13 55.43 106.85 55.71 106.85 56.05 C 106.85 56.38999999999999 107.13 56.669999999999995 107.47 56.669999999999995 L 117.93 56.669999999999995 L 117.93 67.13 C 117.93 67.47 118.21000000000001 67.75 118.55000000000001 67.75 C 118.89000000000001 67.75 119.17000000000002 67.47 119.17000000000002 67.13 L 119.17000000000002 56.05 C 119.16 55.7 118.88 55.43 118.54 55.43 z" stroke-linecap="round" />
</g>
		<g transform="matrix(0.49 0 0 0.49 8.07 9.96)"  >
<path style="stroke: none; stroke-width: 1; stroke-dasharray: none; stroke-linecap: butt; stroke-dashoffset: 0; stroke-linejoin: miter; stroke-miterlimit: 4; fill: rgb(147,149,152); fill-rule: nonzero; opacity: 1;" vector-effect="non-scaling-stroke"  transform=" translate(-113, -102.17)" d="M 118.54 96.01 C 118.2 96.01 117.92 96.29 117.92 96.63000000000001 L 117.92 107.09 L 107.46000000000001 107.09 C 107.12 107.09 106.84 107.37 106.84 107.71000000000001 C 106.84 108.05000000000001 107.12 108.33000000000001 107.46000000000001 108.33000000000001 L 118.53 108.33000000000001 C 118.87 108.33000000000001 119.15 108.05000000000001 119.15 107.71000000000001 L 119.15 96.63 C 119.16 96.29 118.88 96.01 118.54 96.01 z" stroke-linecap="round" />
</g>
		<g transform="matrix(0.49 0 0 0.49 -8.09 9.96)"  >
<path style="stroke: none; stroke-width: 1; stroke-dasharray: none; stroke-linecap: butt; stroke-dashoffset: 0; stroke-linejoin: miter; stroke-miterlimit: 4; fill: rgb(147,149,152); fill-rule: nonzero; opacity: 1;" vector-effect="non-scaling-stroke"  transform=" translate(-80.09, -102.16)" d="M 85.63 107.08 L 75.17 107.08 L 75.17 96.63 C 75.17 96.28999999999999 74.89 96.00999999999999 74.55 96.00999999999999 C 74.21 96.00999999999999 73.92999999999999 96.28999999999999 73.92999999999999 96.63 L 73.92999999999999 107.69999999999999 C 73.92999999999999 108.03999999999999 74.21 108.32 74.55 108.32 L 85.62 108.32 C 85.96000000000001 108.32 86.24000000000001 108.03999999999999 86.24000000000001 107.69999999999999 C 86.25 107.36 85.97 107.08 85.63 107.08 z" stroke-linecap="round" />
</g>
</g>
</g>
</svg>