<?xml version="1.0" encoding="UTF-8" standalone="no" ?>
<!DOCTYPE svg PUBLIC "-//W3C//DTD SVG 1.1//EN" "http://www.w3.org/Graphics/SVG/1.1/DTD/svg11.dtd">
<svg xmlns="http://www.w3.org/2000/svg" xmlns:xlink="http://www.w3.org/1999/xlink" version="1.1" width="150" height="150" viewBox="0 0 150 150" xml:space="preserve">
<desc>Created with Fabric.js 4.2.0</desc>
<defs>
</defs>
<g transform="matrix(1 0 0 1 75 75)" id="41834118-5462-46a0-b16e-997f6bdd49b3"  >
<rect style="stroke: none; stroke-width: 1; stroke-dasharray: none; stroke-linecap: butt; stroke-dashoffset: 0; stroke-linejoin: miter; stroke-miterlimit: 4; fill: rgb(255,255,255); fill-rule: nonzero; opacity: 1; visibility: hidden;" vector-effect="non-scaling-stroke"  x="-75" y="-75" rx="0" ry="0" width="150" height="150" />
</g>
<g transform="matrix(Infinity NaN NaN Infinity 0 0)" id="da3f1fd6-3a17-4dd2-868b-7dc15ebd074c"  >
</g>
<g transform="matrix(2.69 0 0 2.69 75 75)"  >
<g style="" vector-effect="non-scaling-stroke"   >
		<g transform="matrix(0.79 0 0 0.79 3.19 -14.21)"  >
<path style="stroke: none; stroke-width: 1; stroke-dasharray: none; stroke-linecap: butt; stroke-dashoffset: 0; stroke-linejoin: miter; stroke-miterlimit: 4; fill: #EC1D3C; fill-rule: nonzero; opacity: 1;" vector-effect="non-scaling-stroke"  transform=" translate(-96.15, -41.75)" d="M 96.14 51.43 C 91.09 51.43 86.84 44.83 86.04 35.730000000000004 C 85.96000000000001 34.800000000000004 86.28 33.870000000000005 86.91000000000001 33.18000000000001 C 87.55000000000001 32.480000000000004 88.47000000000001 32.07000000000001 89.42000000000002 32.07000000000001 L 90.41000000000001 32.07000000000001 C 90.74000000000001 32.07000000000001 91.01 32.34000000000001 91.01 32.67000000000001 C 91.01 33.00000000000001 90.74000000000001 33.27000000000001 90.41000000000001 33.27000000000001 L 89.42000000000002 33.27000000000001 C 88.80000000000001 33.27000000000001 88.21000000000002 33.53000000000001 87.79000000000002 33.99000000000001 C 87.37000000000002 34.44000000000001 87.17000000000002 35.03000000000001 87.23000000000002 35.63000000000001 C 87.96000000000002 43.96000000000001 91.80000000000001 50.24000000000001 96.15000000000002 50.24000000000001 C 100.49000000000002 50.24000000000001 104.32000000000002 43.96000000000001 105.06000000000002 35.63000000000001 C 105.11000000000001 35.02000000000001 104.91000000000001 34.44000000000001 104.50000000000001 33.98000000000001 C 104.08000000000001 33.52000000000001 103.49000000000001 33.26000000000001 102.87000000000002 33.26000000000001 L 101.88000000000002 33.26000000000001 C 101.55000000000003 33.26000000000001 101.28000000000003 32.99000000000001 101.28000000000003 32.66000000000001 C 101.28000000000003 32.33000000000001 101.55000000000003 32.06000000000001 101.88000000000002 32.06000000000001 L 102.87000000000002 32.06000000000001 C 103.82000000000002 32.06000000000001 104.74000000000002 32.46000000000001 105.38000000000002 33.16000000000001 C 106.02000000000002 33.85000000000001 106.33000000000003 34.79000000000001 106.25000000000003 35.72000000000001 C 105.43 44.83 101.18 51.43 96.14 51.43 z" stroke-linecap="round" />
</g>
		<g transform="matrix(0.79 0 0 0.79 6.36 -21.38)"  >
<path style="stroke: none; stroke-width: 1; stroke-dasharray: none; stroke-linecap: butt; stroke-dashoffset: 0; stroke-linejoin: miter; stroke-miterlimit: 4; fill: #EC1D3C; fill-rule: nonzero; opacity: 1;" vector-effect="non-scaling-stroke"  transform=" translate(-100.16, -32.67)" d="M 100.14 34.99 C 99.51 34.99 98.94 34.75 98.51 34.32 C 98.07000000000001 33.88 97.83 33.3 97.83 32.67 C 97.83 32.050000000000004 98.07 31.470000000000002 98.51 31.03 C 98.94000000000001 30.6 99.53 30.35 100.14 30.35 C 100.78 30.35 101.37 30.59 101.81 31.03 C 102.25 31.470000000000002 102.48 32.050000000000004 102.48 32.67 C 102.48 33.29 102.24000000000001 33.88 101.8 34.31 C 101.36 34.75 100.78999999999999 34.99 100.17 34.99 C 100.15 34.99 100.14 34.99 100.14 34.99 z M 100.1 31.54 C 99.75999999999999 31.58 99.50999999999999 31.689999999999998 99.33999999999999 31.869999999999997 C 99.13 32.08 99.00999999999999 32.37 99.00999999999999 32.669999999999995 C 99.00999999999999 32.98 99.13 33.26 99.33999999999999 33.48 C 99.54999999999998 33.69 99.82999999999998 33.8 100.13 33.8 C 100.44 33.8 100.72999999999999 33.68 100.94 33.47 C 101.14999999999999 33.26 101.27 32.97 101.27 32.67 C 101.27 32.36 101.16 32.08 100.94 31.87 C 100.73 31.66 100.44 31.540000000000003 100.14 31.540000000000003 L 100.12 31.540000000000003 L 100.1 31.54 z" stroke-linecap="round" />
</g>
		<g transform="matrix(0.79 0 0 0.79 0.01 -21.38)"  >
<path style="stroke: none; stroke-width: 1; stroke-dasharray: none; stroke-linecap: butt; stroke-dashoffset: 0; stroke-linejoin: miter; stroke-miterlimit: 4; fill: #EC1D3C; fill-rule: nonzero; opacity: 1;" vector-effect="non-scaling-stroke"  transform=" translate(-92.13, -32.66)" d="M 92.13 34.99 C 90.83999999999999 34.99 89.8 33.95 89.8 32.660000000000004 C 89.81 31.380000000000003 90.85 30.340000000000003 92.11999999999999 30.330000000000005 C 93.39999999999999 30.340000000000007 94.43999999999998 31.380000000000006 94.44999999999999 32.650000000000006 C 94.45 33.94 93.41 34.99 92.13 34.99 z M 92.13 31.54 C 91.50999999999999 31.55 91 32.06 91 32.68 C 91 33.3 91.51 33.81 92.13 33.81 C 92.75 33.81 93.25999999999999 33.300000000000004 93.25999999999999 32.67 C 93.26 32.05 92.75 31.54 92.13 31.54 L 92.13 31.54 L 92.13 31.54 z" stroke-linecap="round" />
</g>
		<g transform="matrix(0.79 0 0 0.79 3.19 -5.65)"  >
<path style="stroke: none; stroke-width: 1; stroke-dasharray: none; stroke-linecap: butt; stroke-dashoffset: 0; stroke-linejoin: miter; stroke-miterlimit: 4; fill: #EC1D3C; fill-rule: nonzero; opacity: 1;" vector-effect="non-scaling-stroke"  transform=" translate(-96.14, -52.56)" d="M 96.13 55.26 C 94.72 55.26 93.58 54.11 93.58 52.71 L 93.58 50.47 C 93.58 50.14 93.85 49.87 94.17999999999999 49.87 C 94.50999999999999 49.87 94.77999999999999 50.14 94.77999999999999 50.47 L 94.77999999999999 52.71 C 94.77999999999999 53.46 95.38999999999999 54.07 96.13999999999999 54.07 C 96.50999999999999 54.07 96.84999999999998 53.93 97.09999999999998 53.68 C 97.35999999999999 53.42 97.49999999999999 53.07 97.49999999999999 52.71 L 97.49999999999999 50.47 C 97.49999999999999 50.14 97.76999999999998 49.87 98.09999999999998 49.87 C 98.42999999999998 49.87 98.69999999999997 50.14 98.69999999999997 50.47 L 98.69999999999997 52.71 C 98.69999999999997 53.38 98.43999999999997 54.03 97.95999999999998 54.51 C 97.47 54.99 96.82 55.26 96.13 55.26 z" stroke-linecap="round" />
</g>
		<g transform="matrix(0.79 0 0 0.79 -2.8 0.58)"  >
<path style="stroke: none; stroke-width: 1; stroke-dasharray: none; stroke-linecap: butt; stroke-dashoffset: 0; stroke-linejoin: miter; stroke-miterlimit: 4; fill: #EC1D3C; fill-rule: nonzero; opacity: 1;" vector-effect="non-scaling-stroke"  transform=" translate(-88.57, -60.45)" d="M 88.18 66.84 C 84.82000000000001 66.84 81.77000000000001 64.03 80.41000000000001 59.68000000000001 C 80.31000000000002 59.370000000000005 80.49000000000001 59.03000000000001 80.80000000000001 58.93000000000001 C 80.86000000000001 58.910000000000004 80.92000000000002 58.900000000000006 80.98000000000002 58.900000000000006 C 81.24000000000002 58.900000000000006 81.47000000000001 59.07000000000001 81.55000000000001 59.32000000000001 C 82.76 63.16000000000001 85.36000000000001 65.64000000000001 88.19000000000001 65.64000000000001 C 92.25000000000001 65.64000000000001 95.55000000000001 60.710000000000015 95.55000000000001 54.66000000000001 C 95.55000000000001 54.33000000000001 95.82000000000001 54.06000000000001 96.15 54.06000000000001 C 96.48 54.06000000000001 96.75 54.33000000000001 96.75 54.66000000000001 C 96.73 61.37 92.9 66.84 88.18 66.84 z" stroke-linecap="round" />
</g>
		<g transform="matrix(0.79 0 0 0.79 -9.62 -4.83)"  >
<path style="stroke: none; stroke-width: 1; stroke-dasharray: none; stroke-linecap: butt; stroke-dashoffset: 0; stroke-linejoin: miter; stroke-miterlimit: 4; fill: #EC1D3C; fill-rule: nonzero; opacity: 1;" vector-effect="non-scaling-stroke"  transform=" translate(-79.94, -53.6)" d="M 79.93 60.21 C 78.57000000000001 60.21 77.26 59.79 76.14 59 C 74.69 57.98 73.73 56.47 73.43 54.730000000000004 C 73.13000000000001 52.99 73.52000000000001 51.24 74.54 49.800000000000004 C 75.56 48.35 77.07000000000001 47.39 78.81 47.09 C 79.19 47.02 79.57000000000001 46.99 79.95 46.99 C 83.16 46.99 85.9 49.29 86.45 52.46 C 86.75 54.2 86.36 55.95 85.34 57.39 C 84.32000000000001 58.84 82.81 59.8 81.07000000000001 60.1 C 80.7 60.18 80.32 60.21 79.93 60.21 z M 79.95 48.18 C 79.64 48.18 79.33 48.21 79.02 48.26 C 76.08 48.769999999999996 74.1 51.589999999999996 74.61 54.53 C 74.86 55.95 75.65 57.2 76.83 58.03 C 77.75 58.68 78.82 59.02 79.92999999999999 59.02 C 79.92999999999999 59.02 79.92999999999999 59.02 79.92999999999999 59.02 C 80.24 59.02 80.55999999999999 58.99 80.86999999999999 58.940000000000005 C 83.80999999999999 58.43000000000001 85.78999999999999 55.61000000000001 85.27 52.67 C 84.83 50.07 82.58 48.18 79.95 48.18 z" stroke-linecap="round" />
</g>
		<g transform="matrix(0.79 0 0 0.79 -9.61 -4.84)"  >
<path style="stroke: none; stroke-width: 1; stroke-dasharray: none; stroke-linecap: butt; stroke-dashoffset: 0; stroke-linejoin: miter; stroke-miterlimit: 4; fill: #EC1D3C; fill-rule: nonzero; opacity: 1;" vector-effect="non-scaling-stroke"  transform=" translate(-79.94, -53.6)" d="M 79.94 56.22 C 78.66 56.22 77.58 55.31 77.36 54.05 C 77.11 52.629999999999995 78.07 51.269999999999996 79.49 51.019999999999996 C 79.64 50.989999999999995 79.78999999999999 50.98 79.94999999999999 50.98 C 80.49 50.98 81.00999999999999 51.15 81.44999999999999 51.459999999999994 C 82.01999999999998 51.85999999999999 82.40999999999998 52.459999999999994 82.51999999999998 53.14999999999999 C 82.63999999999999 53.83999999999999 82.48999999999998 54.529999999999994 82.07999999999998 55.10999999999999 C 81.67999999999998 55.67999999999999 81.07999999999998 56.059999999999995 80.38999999999999 56.17999999999999 C 80.25 56.21 80.1 56.22 79.94 56.22 z M 80.29 55.9 L 80.29 55.9 L 80.30000000000001 55.29 L 80.29 55.9 z M 79.95 52.17 C 79.87 52.17 79.79 52.18 79.7 52.190000000000005 C 78.92 52.330000000000005 78.4 53.07000000000001 78.54 53.84 C 78.66000000000001 54.52 79.25 55.02 79.95 55.02 L 79.95 55.02 C 80.03 55.02 80.11 55.010000000000005 80.19 55 C 80.57 54.93 80.89 54.73 81.11 54.41 C 81.33 54.099999999999994 81.41 53.72 81.35 53.339999999999996 C 81.28 52.959999999999994 81.08 52.63999999999999 80.75999999999999 52.419999999999995 C 80.52 52.26 80.24 52.17 79.95 52.17 z" stroke-linecap="round" />
</g>
		<g transform="matrix(0.79 0 0 0.79 0 16.61)"  >
<path style="stroke: none; stroke-width: 1; stroke-dasharray: none; stroke-linecap: butt; stroke-dashoffset: 0; stroke-linejoin: miter; stroke-miterlimit: 4; fill: #EC1D3C; fill-rule: nonzero; opacity: 1;" vector-effect="non-scaling-stroke"  transform=" translate(-92.12, -80.72)" d="M 67.14 89.1 C 65.7 89.1 64.35 88.39 63.53 87.21 C 62.71 86.02999999999999 62.51 84.52 63.01 83.16999999999999 L 66.88 72.72999999999999 C 66.97 72.49999999999999 67.19 72.33999999999999 67.44 72.33999999999999 L 116.8 72.33999999999999 C 117.05 72.33999999999999 117.27 72.49999999999999 117.36 72.72999999999999 L 121.23 83.16999999999999 C 121.73 84.51999999999998 121.54 86.02999999999999 120.72 87.21 C 119.9 88.39 118.55 89.1 117.11 89.1 L 67.14 89.1 z M 64.13 83.59 C 63.76 84.59 63.9 85.66 64.50999999999999 86.54 C 65.11999999999999 87.41000000000001 66.07999999999998 87.92 67.13999999999999 87.92 L 117.08999999999999 87.92 C 118.14999999999999 87.92 119.10999999999999 87.42 119.71999999999998 86.54 C 120.32999999999998 85.67 120.45999999999998 84.59 120.09999999999998 83.59 L 116.37999999999998 73.54 L 67.85 73.54 L 64.13 83.59 z" stroke-linecap="round" />
</g>
		<g transform="matrix(0.79 0 0 0.79 -0.02 -1.56)"  >
<path style="stroke: none; stroke-width: 1; stroke-dasharray: none; stroke-linecap: butt; stroke-dashoffset: 0; stroke-linejoin: miter; stroke-miterlimit: 4; fill: #EC1D3C; fill-rule: nonzero; opacity: 1;" vector-effect="non-scaling-stroke"  transform=" translate(-92.1, -57.75)" d="M 67.43 73.54 C 67.10000000000001 73.54 66.83000000000001 73.27000000000001 66.83000000000001 72.94000000000001 L 66.83000000000001 45.26 C 66.83000000000001 43.44 68.31000000000002 41.96 70.12000000000002 41.96 L 87.50000000000001 41.96 C 87.83000000000001 41.96 88.10000000000001 42.230000000000004 88.10000000000001 42.56 C 88.10000000000001 42.89 87.83000000000001 43.160000000000004 87.50000000000001 43.160000000000004 L 70.13 43.160000000000004 C 68.97 43.160000000000004 68.03 44.1 68.03 45.260000000000005 L 68.03 72.34 L 116.18 72.34 L 116.18 45.26 C 116.18 44.1 115.24000000000001 43.16 114.08000000000001 43.16 L 104.76000000000002 43.16 C 104.43000000000002 43.16 104.16000000000003 42.88999999999999 104.16000000000003 42.559999999999995 C 104.16000000000003 42.23 104.43000000000002 41.959999999999994 104.76000000000002 41.959999999999994 L 114.08000000000001 41.959999999999994 C 115.9 41.959999999999994 117.37000000000002 43.43999999999999 117.37000000000002 45.25999999999999 L 117.37000000000002 72.94 C 117.37000000000002 73.27 117.10000000000002 73.53999999999999 116.77000000000002 73.53999999999999 L 67.43 73.53999999999999 z" stroke-linecap="round" />
</g>
		<g transform="matrix(0.79 0 0 0.79 -0.01 18.72)"  >
<path style="stroke: none; stroke-width: 1; stroke-dasharray: none; stroke-linecap: butt; stroke-dashoffset: 0; stroke-linejoin: miter; stroke-miterlimit: 4; fill: #EC1D3C; fill-rule: nonzero; opacity: 1;" vector-effect="non-scaling-stroke"  transform=" translate(-92.11, -83.38)" d="M 63.57 83.98 C 63.24 83.98 62.97 83.71000000000001 62.97 83.38000000000001 C 62.97 83.05000000000001 63.24 82.78000000000002 63.57 82.78000000000002 L 120.66 82.78000000000002 C 120.99 82.78000000000002 121.25999999999999 83.05000000000001 121.25999999999999 83.38000000000001 C 121.25999999999999 83.71000000000001 120.99 83.98 120.66 83.98 L 63.57 83.98 z" stroke-linecap="round" />
</g>
		<g transform="matrix(0.79 0 0 0.79 -0.01 17.21)"  >
<path style="stroke: none; stroke-width: 1; stroke-dasharray: none; stroke-linecap: butt; stroke-dashoffset: 0; stroke-linejoin: miter; stroke-miterlimit: 4; fill: #EC1D3C; fill-rule: nonzero; opacity: 1;" vector-effect="non-scaling-stroke"  transform=" translate(-92.09, -81.48)" d="M 99.37 83.98 C 99.10000000000001 83.98 98.86 83.8 98.79 83.53 L 97.92 80.18 L 86.29 80.18 L 85.42 83.53 C 85.35000000000001 83.79 85.11 83.98 84.84 83.98 C 84.79 83.98 84.74000000000001 83.97 84.69 83.96000000000001 C 84.37 83.88000000000001 84.17999999999999 83.55000000000001 84.25999999999999 83.23 L 85.24 79.43 C 85.30999999999999 79.17 85.55 78.98 85.82 78.98 L 98.36999999999999 78.98 C 98.63999999999999 78.98 98.88 79.16000000000001 98.94999999999999 79.43 L 99.92999999999999 83.23 C 100.00999999999999 83.55 99.82 83.87 99.49999999999999 83.96000000000001 C 99.47 83.97 99.42 83.98 99.37 83.98 L 99.37 83.98 z" stroke-linecap="round" />
</g>
</g>
</g>
</svg>