<?xml version="1.0" standalone="no"?>
<!DOCTYPE svg PUBLIC "-//W3C//DTD SVG 20010904//EN"
 "http://www.w3.org/TR/2001/REC-SVG-20010904/DTD/svg10.dtd">
<svg version="1.0" xmlns="http://www.w3.org/2000/svg"
 width="1838.000000pt" height="1727.000000pt" viewBox="0 0 1838.000000 1727.000000"
 preserveAspectRatio="xMidYMid meet">

<g transform="translate(0.000000,1727.000000) scale(0.100000,-0.100000)"
fill="#000000" stroke="none">
<path d="M9095 14964 c-39 -24 -77 -47 -85 -51 -8 -3 -17 -9 -20 -12 -3 -3
-18 -14 -35 -24 -49 -28 -495 -301 -523 -319 -15 -10 -34 -21 -42 -25 -8 -3
-45 -26 -82 -50 -37 -24 -71 -43 -77 -43 -5 0 -11 -3 -13 -8 -1 -4 -88 -59
-193 -122 -104 -62 -192 -117 -195 -121 -3 -3 -15 -9 -27 -13 -13 -4 -23 -12
-23 -17 0 -5 -4 -9 -10 -9 -5 0 -41 -20 -79 -45 -38 -25 -72 -45 -75 -45 -3 0
-24 -13 -48 -28 -24 -16 -59 -38 -78 -48 -19 -10 -37 -21 -40 -24 -4 -5 -78
-50 -215 -133 -29 -18 -97 -60 -120 -74 -11 -7 -28 -16 -37 -19 -10 -3 -18
-10 -18 -14 0 -5 -10 -12 -22 -16 -13 -4 -25 -10 -28 -13 -9 -11 -128 -81
-138 -81 -6 0 -12 -4 -14 -8 -1 -5 -55 -39 -118 -77 -63 -38 -116 -72 -118
-77 -2 -4 -9 -8 -16 -8 -7 0 -35 -16 -62 -35 -27 -19 -55 -35 -61 -35 -7 0
-13 -4 -13 -9 0 -5 -8 -11 -17 -15 -10 -3 -30 -14 -45 -23 -15 -10 -127 -79
-248 -153 -121 -74 -233 -143 -248 -153 -15 -9 -35 -20 -44 -23 -10 -4 -18
-10 -18 -15 0 -5 -6 -9 -13 -9 -6 0 -34 -16 -61 -35 -27 -19 -55 -35 -63 -35
-7 0 -13 -3 -13 -7 0 -5 -55 -39 -121 -78 l-120 -70 5 -225 c4 -124 11 -367
16 -540 11 -343 25 -933 40 -1630 5 -245 14 -571 19 -725 6 -154 13 -451 17
-661 3 -210 9 -396 13 -414 5 -25 17 -38 51 -57 25 -14 82 -47 128 -74 45 -27
87 -49 91 -49 5 0 11 -3 13 -7 2 -5 19 -16 38 -27 88 -47 165 -90 170 -95 3
-3 21 -14 40 -25 85 -45 170 -92 228 -128 34 -21 64 -38 66 -38 3 0 50 -27
106 -60 56 -33 103 -60 105 -60 2 0 49 -27 105 -60 56 -33 103 -60 106 -60 2
0 32 -17 66 -38 58 -36 143 -83 228 -128 19 -11 37 -22 38 -26 2 -5 8 -8 14
-8 6 0 47 -22 93 -50 46 -27 88 -50 94 -50 6 0 11 -4 11 -10 0 -5 5 -10 11
-10 6 0 56 -27 111 -60 54 -33 101 -60 104 -60 3 0 38 -20 77 -43 40 -24 99
-59 132 -77 33 -19 78 -44 100 -57 22 -12 49 -27 60 -33 11 -6 43 -24 70 -41
28 -16 61 -35 75 -42 14 -6 31 -17 38 -24 7 -7 17 -13 22 -13 5 0 43 -20 83
-45 41 -25 80 -45 86 -45 6 0 11 -4 11 -10 0 -5 5 -10 11 -10 6 0 55 -27 109
-59 53 -32 107 -62 119 -66 11 -3 21 -11 21 -16 0 -5 5 -9 11 -9 6 0 45 -20
86 -45 40 -25 78 -45 83 -45 5 0 15 -6 22 -12 7 -7 33 -23 58 -36 25 -13 59
-32 75 -43 17 -10 42 -24 58 -30 15 -6 27 -14 27 -17 0 -4 20 -16 45 -27 25
-11 45 -23 45 -26 0 -4 12 -12 28 -18 35 -15 71 -36 85 -50 16 -16 73 -13 87
4 7 9 19 14 26 11 7 -3 23 3 36 12 38 28 62 42 81 48 9 4 17 10 17 14 0 5 10
12 23 16 12 3 41 19 65 35 24 16 45 29 47 29 2 0 167 98 367 218 200 120 370
221 378 225 8 4 24 13 35 20 11 7 38 24 60 37 23 14 50 31 60 38 11 6 27 15
35 19 8 4 33 18 55 32 54 34 67 42 117 70 24 13 62 36 86 52 24 16 45 29 47
29 2 0 101 58 220 130 119 71 218 130 220 130 2 0 23 13 47 29 24 15 66 41 93
56 28 15 61 35 75 44 47 30 65 41 80 48 8 4 33 18 55 32 54 34 67 42 117 70
24 13 62 36 86 52 24 16 45 29 47 29 2 0 60 34 128 75 69 41 129 75 135 75 6
0 12 4 14 8 4 11 123 82 137 82 6 0 11 5 11 10 0 6 4 10 9 10 5 0 33 16 62 35
30 19 59 35 66 35 7 0 13 4 13 9 0 5 8 11 18 15 9 3 31 15 47 26 17 11 41 25
55 32 14 7 27 15 30 18 3 3 21 14 40 24 19 11 53 31 75 45 22 14 56 34 75 44
19 11 53 31 75 46 22 14 52 32 68 40 l27 14 0 196 c0 108 4 410 10 671 6 261
15 1092 21 1845 7 754 13 1423 16 1488 4 106 3 118 -14 123 -34 11 -158 77
-161 86 -2 4 -12 8 -22 8 -10 0 -25 6 -32 13 -14 12 -33 23 -158 89 -166 88
-246 132 -275 148 -52 30 -127 71 -225 122 -52 28 -99 54 -105 58 -5 4 -39 23
-75 42 -36 20 -92 50 -125 68 -33 18 -85 46 -115 63 -30 16 -82 44 -115 62
-75 42 -117 64 -360 195 -44 23 -84 46 -90 50 -5 5 -48 28 -95 53 -142 75
-155 82 -160 87 -3 3 -27 16 -55 29 -27 14 -66 34 -85 46 -19 12 -69 39 -110
61 -41 21 -77 41 -80 44 -3 3 -30 18 -60 33 -30 15 -80 41 -110 58 -30 17 -77
43 -105 57 -27 14 -52 28 -55 31 -3 4 -21 14 -40 25 -19 10 -69 36 -110 58
-41 23 -108 58 -149 79 -41 22 -79 43 -85 48 -11 9 -67 39 -266 143 -52 28
-99 54 -105 58 -9 7 -93 53 -175 96 -19 11 -37 21 -40 24 -4 4 -68 37 -90 46
-3 1 -37 -17 -75 -42z"/>
<path d="M9163 4630 c-12 -5 -26 -18 -32 -29 -40 -75 57 -140 109 -74 43 56
-11 129 -77 103z"/>
<path d="M10983 4630 c-12 -5 -26 -18 -32 -29 -40 -75 57 -140 109 -74 43 56
-11 129 -77 103z"/>
<path d="M7640 4195 l0 -415 50 0 50 0 0 415 0 415 -50 0 -50 0 0 -415z"/>
<path d="M4820 4170 l0 -390 50 0 50 0 0 160 0 160 63 0 62 -1 89 -155 c50
-86 95 -158 102 -161 6 -2 34 -3 62 -1 l50 3 -93 155 c-52 85 -94 158 -95 161
0 4 20 14 45 23 53 21 107 79 123 135 39 127 -22 246 -147 289 -21 7 -99 12
-197 12 l-164 0 0 -390z m353 287 c42 -27 60 -62 60 -120 1 -61 -21 -106 -67
-133 -24 -14 -57 -19 -138 -22 l-108 -4 0 152 0 152 113 -3 c87 -3 119 -8 140
-22z"/>
<path d="M8730 4475 l0 -75 -40 0 -40 0 0 -45 0 -45 40 0 40 0 0 -207 c0 -178
3 -213 18 -242 29 -58 61 -74 157 -79 l85 -5 0 47 0 46 -60 0 c-100 0 -100 1
-100 240 l0 200 80 0 80 0 0 45 0 45 -80 0 -80 0 0 75 0 75 -50 0 -50 0 0 -75z"/>
<path d="M5713 4400 c-92 -19 -165 -77 -205 -165 -19 -41 -23 -67 -23 -145 0
-118 24 -180 96 -244 138 -124 380 -89 460 66 10 21 19 42 19 48 0 6 -24 10
-55 10 -40 0 -55 -4 -55 -14 0 -19 -74 -84 -105 -92 -14 -3 -52 -4 -85 -2 -48
3 -67 10 -97 35 -43 34 -68 73 -77 121 l-5 32 251 0 251 0 -6 73 c-9 123 -63
208 -162 253 -58 26 -142 36 -202 24z m152 -99 c65 -30 105 -86 105 -147 l0
-24 -190 0 -190 0 0 25 c0 31 30 93 57 117 53 48 149 61 218 29z"/>
<path d="M7092 4400 c-65 -14 -141 -60 -179 -109 -92 -121 -81 -325 24 -433
57 -59 122 -83 223 -82 99 0 160 24 220 84 109 109 120 303 26 432 -62 83
-202 131 -314 108z m164 -106 c106 -50 143 -227 72 -341 -64 -104 -225 -123
-312 -36 -45 46 -61 91 -60 178 1 175 147 272 300 199z"/>
<path d="M9662 4400 c-65 -14 -141 -60 -179 -109 -92 -121 -81 -325 24 -433
57 -59 122 -83 223 -82 99 0 160 24 220 84 109 109 120 303 26 432 -62 83
-202 131 -314 108z m164 -106 c106 -50 143 -227 72 -341 -64 -104 -225 -123
-312 -36 -45 46 -61 91 -60 178 1 175 147 272 300 199z"/>
<path d="M10422 4392 c-29 -11 -66 -32 -83 -48 l-29 -28 0 42 0 42 -50 0 -50
0 0 -310 0 -310 50 0 50 0 0 203 c0 193 1 206 23 247 61 116 242 118 301 5 19
-36 21 -60 24 -247 l3 -208 51 0 50 0 -4 223 c-3 201 -5 226 -24 267 -53 113
-188 166 -312 122z"/>
<path d="M11983 4400 c-92 -19 -165 -77 -205 -165 -19 -41 -23 -67 -23 -145 0
-118 24 -180 96 -244 138 -124 380 -89 460 66 10 21 19 42 19 48 0 6 -24 10
-55 10 -40 0 -55 -4 -55 -14 0 -19 -74 -84 -105 -92 -14 -3 -52 -4 -85 -2 -48
3 -67 10 -97 35 -43 34 -68 73 -77 121 l-5 32 251 0 251 0 -6 73 c-9 123 -63
208 -162 253 -58 26 -142 36 -202 24z m152 -99 c65 -30 105 -86 105 -147 l0
-24 -190 0 -190 0 0 25 c0 31 30 93 57 117 53 48 149 61 218 29z"/>
<path d="M6173 4381 c3 -12 56 -151 119 -311 l113 -290 60 0 60 0 118 303 c64
166 117 306 117 310 0 4 -23 7 -52 5 l-51 -3 -93 -254 c-52 -140 -95 -256 -97
-258 -2 -2 -46 113 -99 254 l-94 258 -53 3 c-50 3 -53 2 -48 -17z"/>
<path d="M7950 4197 c0 -229 10 -283 62 -343 50 -56 101 -78 188 -78 81 -1
121 14 173 62 l27 26 0 -42 0 -42 50 0 50 0 0 310 0 310 -49 0 -50 0 -3 -212
c-3 -192 -5 -216 -23 -248 -25 -43 -94 -80 -150 -80 -56 0 -125 37 -150 80
-18 32 -20 56 -23 248 l-3 212 -50 0 -49 0 0 -203z"/>
<path d="M9140 4090 l0 -310 50 0 50 0 0 310 0 310 -50 0 -50 0 0 -310z"/>
<path d="M10960 4090 l0 -310 50 0 50 0 0 310 0 310 -50 0 -50 0 0 -310z"/>
<path d="M11220 4355 l0 -44 145 -3 145 -3 -145 -217 c-133 -200 -145 -221
-145 -263 l0 -45 205 0 205 0 0 40 0 40 -146 0 c-123 0 -145 2 -141 14 3 8 69
109 146 225 129 193 141 214 141 256 l0 45 -205 0 -205 0 0 -45z"/>
<path d="M8933 2990 c-12 -5 -26 -18 -32 -29 -40 -75 57 -140 109 -74 43 56
-11 129 -77 103z"/>
<path d="M11913 2990 c-12 -5 -26 -18 -32 -29 -40 -75 57 -140 109 -74 43 56
-11 129 -77 103z"/>
<path d="M13023 2990 c-12 -5 -26 -18 -32 -29 -40 -75 57 -140 109 -74 43 56
-11 129 -77 103z"/>
<path d="M5890 2809 l0 -161 -25 31 c-14 16 -51 42 -82 58 -144 70 -317 7
-385 -142 -19 -41 -23 -67 -23 -145 0 -117 24 -177 95 -244 113 -105 299 -98
394 15 l26 31 0 -56 0 -56 50 0 50 0 0 415 0 415 -50 0 -50 0 0 -161z m-149
-140 c146 -49 198 -251 96 -374 -93 -113 -271 -94 -337 36 -94 182 61 398 241
338z"/>
<path d="M14520 2555 l0 -415 50 0 50 0 0 415 0 415 -50 0 -50 0 0 -415z"/>
<path d="M14830 2555 l0 -415 50 0 50 0 0 415 0 415 -50 0 -50 0 0 -415z"/>
<path d="M4820 2530 l0 -390 210 0 210 0 0 40 0 40 -160 0 -160 0 0 135 0 135
140 0 140 0 0 45 0 45 -140 0 -140 0 0 130 0 130 160 0 160 0 0 40 0 40 -210
0 -210 0 0 -390z"/>
<path d="M11050 2531 l0 -391 151 0 c184 0 264 16 346 69 88 57 133 132 153
254 14 88 -1 183 -40 263 -36 74 -81 116 -170 158 -64 31 -67 31 -252 34
l-188 4 0 -391z m361 293 c75 -22 151 -98 173 -173 20 -68 21 -172 1 -237 -17
-59 -73 -127 -125 -154 -47 -24 -142 -40 -237 -40 l-73 0 0 310 0 310 103 0
c66 0 123 -6 158 -16z"/>
<path d="M8490 2835 l0 -75 -40 0 -40 0 0 -45 0 -45 40 0 40 0 0 -207 c0 -178
3 -213 18 -242 29 -58 61 -74 157 -79 l85 -5 0 47 0 46 -60 0 c-100 0 -100 1
-100 240 l0 200 80 0 80 0 0 45 0 45 -80 0 -80 0 0 75 0 75 -50 0 -50 0 0 -75z"/>
<path d="M13320 2835 l0 -75 -40 0 -40 0 0 -45 0 -45 40 0 40 0 0 -207 c0
-178 3 -213 18 -242 29 -58 61 -74 157 -79 l85 -5 0 47 0 46 -60 0 c-100 0
-100 1 -100 240 l0 200 80 0 80 0 0 45 0 45 -80 0 -80 0 0 75 0 75 -50 0 -50
0 0 -75z"/>
<path d="M7163 2760 c-92 -19 -164 -77 -205 -165 -19 -42 -23 -67 -23 -150 0
-85 4 -107 24 -149 55 -111 139 -161 271 -161 98 0 154 20 208 75 32 31 72 98
72 120 0 5 -23 10 -52 10 -51 0 -54 -2 -73 -37 -28 -51 -65 -75 -124 -81 -99
-9 -162 21 -200 97 -41 79 -35 212 12 283 69 103 250 101 310 -3 21 -37 24
-39 75 -39 51 0 53 1 46 23 -29 96 -102 156 -215 177 -58 11 -67 11 -126 0z"/>
<path d="M7867 2760 c-91 -23 -160 -80 -199 -165 -33 -72 -33 -217 1 -292 80
-179 311 -229 447 -98 l44 42 0 -54 0 -53 50 0 50 0 0 310 0 310 -50 0 -50 0
0 -56 0 -56 -26 32 c-54 64 -179 101 -267 80z m144 -91 c146 -49 198 -251 96
-374 -93 -113 -271 -94 -337 36 -94 182 61 398 241 338z"/>
<path d="M9422 2760 c-65 -14 -141 -60 -179 -109 -92 -121 -81 -325 24 -433
57 -59 122 -83 223 -82 99 0 160 24 220 84 109 109 120 303 26 432 -62 83
-202 131 -314 108z m164 -106 c106 -50 143 -227 72 -341 -64 -104 -225 -123
-312 -36 -45 46 -61 91 -60 178 1 175 147 272 300 199z"/>
<path d="M10192 2752 c-29 -11 -66 -32 -83 -48 l-29 -28 0 42 0 42 -50 0 -50
0 0 -310 0 -310 50 0 50 0 0 203 c0 193 1 206 23 247 61 116 242 118 301 5 19
-36 21 -60 24 -247 l3 -208 51 0 50 0 -4 223 c-3 201 -5 226 -24 267 -53 113
-188 166 -312 122z"/>
<path d="M12387 2760 c-91 -23 -160 -80 -199 -165 -33 -72 -33 -217 1 -292 80
-179 311 -229 447 -98 l44 42 0 -84 c0 -161 -63 -236 -197 -235 -77 1 -137 30
-172 85 -23 34 -28 37 -73 37 -47 0 -49 -1 -43 -22 36 -119 122 -179 266 -186
115 -6 176 14 239 77 78 78 80 91 80 493 l0 348 -50 0 -50 0 0 -55 0 -56 -30
34 c-54 62 -178 98 -263 77z m144 -91 c146 -49 198 -251 96 -374 -93 -113
-271 -94 -337 36 -94 182 61 398 241 338z"/>
<path d="M13917 2760 c-91 -23 -160 -80 -199 -165 -33 -72 -33 -217 1 -292 80
-179 311 -229 447 -98 l44 42 0 -54 0 -53 50 0 50 0 0 310 0 310 -50 0 -50 0
0 -56 0 -56 -26 32 c-54 64 -179 101 -267 80z m144 -91 c146 -49 198 -251 96
-374 -93 -113 -271 -94 -337 36 -94 182 61 398 241 338z"/>
<path d="M6200 2557 c0 -229 10 -283 62 -343 50 -56 101 -78 188 -78 81 -1
121 14 173 62 l27 26 0 -42 0 -42 50 0 50 0 0 310 0 310 -49 0 -50 0 -3 -212
c-3 -192 -5 -216 -23 -248 -25 -43 -94 -80 -150 -80 -56 0 -125 37 -150 80
-18 32 -20 56 -23 248 l-3 212 -50 0 -49 0 0 -203z"/>
<path d="M8910 2450 l0 -310 50 0 50 0 0 310 0 310 -50 0 -50 0 0 -310z"/>
<path d="M11890 2450 l0 -310 50 0 50 0 0 310 0 310 -50 0 -50 0 0 -310z"/>
<path d="M13000 2450 l0 -310 50 0 50 0 0 310 0 310 -50 0 -50 0 0 -310z"/>
<path d="M15080 2751 c0 -5 54 -143 121 -307 l121 -297 -60 -149 -61 -148 53
0 52 0 178 435 c98 239 180 444 183 455 5 18 0 20 -44 20 l-50 0 -94 -245
c-51 -135 -95 -245 -99 -245 -3 0 -48 110 -100 245 l-94 245 -53 0 c-29 0 -53
-4 -53 -9z"/>
</g>
</svg>
