<?xml version="1.0" encoding="UTF-8" standalone="no" ?>
<!DOCTYPE svg PUBLIC "-//W3C//DTD SVG 1.1//EN" "http://www.w3.org/Graphics/SVG/1.1/DTD/svg11.dtd">
<svg xmlns="http://www.w3.org/2000/svg" xmlns:xlink="http://www.w3.org/1999/xlink" version="1.1" width="150" height="150" viewBox="0 0 150 150" xml:space="preserve">
<desc>Created with Fabric.js 4.2.0</desc>
<defs>
</defs>
<rect x="0" y="0" width="100%" height="100%" fill="transparent"></rect>
<g transform="matrix(1 0 0 1 75 75)" id="41834118-5462-46a0-b16e-997f6bdd49b3"  >
<rect style="stroke: none; stroke-width: 1; stroke-dasharray: none; stroke-linecap: butt; stroke-dashoffset: 0; stroke-linejoin: miter; stroke-miterlimit: 4; fill: rgb(255,255,255); fill-rule: nonzero; opacity: 1; visibility: hidden;" vector-effect="non-scaling-stroke"  x="-75" y="-75" rx="0" ry="0" width="150" height="150" />
</g>
<g transform="matrix(Infinity NaN NaN Infinity 0 0)" id="da3f1fd6-3a17-4dd2-868b-7dc15ebd074c"  >
</g>
<g transform="matrix(2.66 0 0 2.66 75 75)"  >
<g style="" vector-effect="non-scaling-stroke"   >
		<g transform="matrix(1.13 0 0 1.13 -13.29 7.44)"  >
<path style="stroke: none; stroke-width: 1; stroke-dasharray: none; stroke-linecap: butt; stroke-dashoffset: 0; stroke-linejoin: miter; stroke-miterlimit: 4; fill: rgb(147,149,152); fill-rule: nonzero; opacity: 1;" vector-effect="non-scaling-stroke"  transform=" translate(-88.38, -99.7)" d="M 83.45 108.38 C 82.64 108.38 81.98 107.72 81.98 106.91 L 81.98 103.28 C 81.98 101.76 82.81 100.36 84.14 99.62 L 84.34 99.51 L 84.2 99.32000000000001 C 83.54 98.43 83.17 97.33000000000001 83.17 96.22000000000001 C 83.17 93.35000000000001 85.5 91.02000000000001 88.37 91.02000000000001 C 91.24000000000001 91.02000000000001 93.57000000000001 93.35000000000001 93.57000000000001 96.22000000000001 C 93.57000000000001 97.32000000000001 93.2 98.42000000000002 92.54 99.32000000000001 L 92.4 99.51 L 92.60000000000001 99.62 C 93.93 100.36 94.76 101.76 94.77000000000001 103.28 L 94.77000000000001 106.91 C 94.77000000000001 107.72 94.11000000000001 108.38 93.30000000000001 108.38 L 83.45 108.38 z M 84.93 100.26 C 83.69000000000001 100.76 82.89 101.95 82.89 103.28 L 82.89 106.91 C 82.89 107.21 83.13 107.45 83.43 107.45 L 93.29 107.45 C 93.59 107.45 93.83000000000001 107.21000000000001 93.83000000000001 106.91 L 93.83000000000001 106.71 L 93.82000000000001 106.71 L 93.82000000000001 103.27999999999999 C 93.82000000000001 101.96 93.00000000000001 100.74999999999999 91.78 100.25999999999999 L 91.67 100.21999999999998 L 91.58 100.28999999999998 C 90.67 101.01999999999998 89.52 101.40999999999998 88.35 101.40999999999998 C 87.17999999999999 101.40999999999998 86.03999999999999 101.00999999999998 85.11999999999999 100.28999999999998 L 85.02999999999999 100.21999999999998 L 84.93 100.26 z M 88.37 91.94 C 86.01 91.94 84.10000000000001 93.86 84.10000000000001 96.21 C 84.10000000000001 98.55999999999999 86.02000000000001 100.47999999999999 88.37 100.47999999999999 C 90.72 100.47999999999999 92.64 98.55999999999999 92.64 96.21 C 92.64 93.86 90.73 91.94 88.37 91.94 z" stroke-linecap="round" />
</g>
		<g transform="matrix(1.13 0 0 1.13 11.91 7.44)"  >
<path style="stroke: none; stroke-width: 1; stroke-dasharray: none; stroke-linecap: butt; stroke-dashoffset: 0; stroke-linejoin: miter; stroke-miterlimit: 4; fill: rgb(147,149,152); fill-rule: nonzero; opacity: 1;" vector-effect="non-scaling-stroke"  transform=" translate(-110.59, -99.69)" d="M 105.61 104.77 C 104.62 104.77 103.82 103.97 103.82 102.97999999999999 L 103.82 96.4 C 103.82 95.41000000000001 104.61999999999999 94.61 105.61 94.61 L 115.56 94.61 C 116.55 94.61 117.36 95.42 117.36 96.41 L 117.36 102.97999999999999 C 117.36 103.96999999999998 116.56 104.77 115.57 104.77 L 105.61 104.77 z M 111.51 100.16 C 111.26 100.16 111.06 100.36 111.06 100.61 L 111.06 103.84 L 115.57000000000001 103.84 C 116.05000000000001 103.84 116.43 103.45 116.43 102.98 L 116.43 100.16000000000001 L 111.51 100.16000000000001 z M 107.15 102.06 C 107.4 102.06 107.62 102.27 107.62 102.53 L 107.62 103.84 L 110.13000000000001 103.84 L 110.13000000000001 100.61 C 110.13000000000001 99.85 110.75000000000001 99.23 111.51 99.23 L 116.43 99.23 L 116.43 96.4 C 116.43 95.92 116.04 95.54 115.57000000000001 95.54 L 113.63000000000001 95.54 L 113.63000000000001 96.83000000000001 C 113.63000000000001 97.08000000000001 113.42000000000002 97.30000000000001 113.16000000000001 97.30000000000001 C 112.9 97.30000000000001 112.69000000000001 97.09000000000002 112.69000000000001 96.83000000000001 L 112.69000000000001 95.54 L 109.13000000000001 95.54 L 109.13000000000001 97.66000000000001 C 109.13000000000001 98.42000000000002 108.51 99.04 107.75000000000001 99.04 L 104.75000000000001 99.04 L 104.75000000000001 102.96000000000001 C 104.75000000000001 103.44000000000001 105.14000000000001 103.82000000000001 105.61000000000001 103.82000000000001 L 106.69000000000001 103.82000000000001 L 106.69000000000001 102.51 C 106.68 102.27 106.9 102.06 107.15 102.06 z M 105.61 95.54 C 105.13 95.54 104.75 95.93 104.75 96.4 L 104.75 98.11 L 107.75 98.11 C 108 98.11 108.2 97.91 108.2 97.66 L 108.2 95.53999999999999 L 105.61 95.53999999999999 z" stroke-linecap="round" />
</g>
		<g transform="matrix(1.13 0 0 1.13 0.06 -4.91)"  >
<path style="stroke: none; stroke-width: 1; stroke-dasharray: none; stroke-linecap: butt; stroke-dashoffset: 0; stroke-linejoin: miter; stroke-miterlimit: 4; fill: rgb(147,149,152); fill-rule: nonzero; opacity: 1;" vector-effect="non-scaling-stroke"  transform=" translate(-100.14, -88.78)" d="M 92.13 89.25 C 91.88 89.25 91.66 89.04 91.66 88.78 C 91.66 88.53 91.86999999999999 88.31 92.13 88.31 L 108.16 88.31 C 108.41 88.31 108.63 88.52 108.63 88.78 C 108.63 89.03 108.42 89.25 108.16 89.25 L 92.13 89.25 z" stroke-linecap="round" />
</g>
		<g transform="matrix(1.13 0 0 1.13 0.09 -13.95)"  >
<path style="stroke: none; stroke-width: 1; stroke-dasharray: none; stroke-linecap: butt; stroke-dashoffset: 0; stroke-linejoin: miter; stroke-miterlimit: 4; fill: rgb(147,149,152); fill-rule: nonzero; opacity: 1;" vector-effect="non-scaling-stroke"  transform=" translate(-100.15, -80.82)" d="M 102.05 81.68 C 101.96 81.68 101.83 81.66000000000001 101.72 81.54 C 101.28999999999999 81.12 100.73 80.89 100.15 80.89 C 99.56 80.89 99 81.12 98.58000000000001 81.54 C 98.49000000000001 81.63000000000001 98.38000000000001 81.67 98.25000000000001 81.67 C 98.12000000000002 81.67 98.01000000000002 81.62 97.92000000000002 81.54 C 97.74000000000001 81.35000000000001 97.74000000000001 81.06 97.92000000000002 80.88000000000001 C 98.52000000000001 80.28000000000002 99.31000000000002 79.96000000000001 100.15000000000002 79.96000000000001 C 100.99000000000002 79.96000000000001 101.78000000000002 80.29 102.38000000000002 80.88000000000001 C 102.56000000000003 81.06000000000002 102.56000000000003 81.36000000000001 102.38000000000002 81.54 C 102.26 81.66 102.13 81.68 102.05 81.68 z" stroke-linecap="round" />
</g>
		<g transform="matrix(1.13 0 0 1.13 0.07 -17.14)"  >
<path style="stroke: none; stroke-width: 1; stroke-dasharray: none; stroke-linecap: butt; stroke-dashoffset: 0; stroke-linejoin: miter; stroke-miterlimit: 4; fill: rgb(147,149,152); fill-rule: nonzero; opacity: 1;" vector-effect="non-scaling-stroke"  transform=" translate(-100.15, -78)" d="M 104.37 79.35 C 104.25 79.35 104.13000000000001 79.3 104.04 79.21 C 103.01 78.17999999999999 101.62 77.6 100.15 77.6 C 98.68 77.6 97.29 78.16999999999999 96.25 79.21 C 96.16 79.3 96.05 79.33999999999999 95.92 79.33999999999999 C 95.79 79.33999999999999 95.68 79.28999999999999 95.59 79.21 C 95.41 79.02999999999999 95.41 78.72999999999999 95.59 78.55 C 96.81 77.33 98.43 76.66 100.15 76.66 C 101.87 76.66 103.49000000000001 77.33 104.71000000000001 78.55 C 104.89000000000001 78.73 104.89000000000001 79.03 104.71000000000001 79.21 C 104.59 79.33 104.46 79.35 104.37 79.35 z" stroke-linecap="round" />
</g>
		<g transform="matrix(1.13 0 0 1.13 0.06 -20.97)"  >
<path style="stroke: none; stroke-width: 1; stroke-dasharray: none; stroke-linecap: butt; stroke-dashoffset: 0; stroke-linejoin: miter; stroke-miterlimit: 4; fill: rgb(147,149,152); fill-rule: nonzero; opacity: 1;" vector-effect="non-scaling-stroke"  transform=" translate(-100.15, -74.63)" d="M 107.17 76.56 C 107.08 76.56 106.95 76.54 106.84 76.42 C 105.06 74.63 102.68 73.65 100.15 73.65 C 97.62 73.65 95.24000000000001 74.63000000000001 93.46000000000001 76.42 C 93.37 76.51 93.26 76.55 93.13000000000001 76.55 C 93.00000000000001 76.55 92.88000000000001 76.5 92.79 76.41 C 92.61 76.22999999999999 92.61 75.92999999999999 92.79 75.75 C 94.75 73.79 97.37 72.71 100.15 72.71 C 102.93 72.71 105.54 73.78999999999999 107.5 75.75 C 107.68 75.93 107.68 76.23 107.5 76.41 C 107.38 76.54 107.25 76.56 107.17 76.56 z" stroke-linecap="round" />
</g>
		<g transform="matrix(1.13 0 0 1.13 0 6.38)"  >
<path style="stroke: none; stroke-width: 1; stroke-dasharray: none; stroke-linecap: butt; stroke-dashoffset: 0; stroke-linejoin: miter; stroke-miterlimit: 4; fill: rgb(147,149,152); fill-rule: nonzero; opacity: 1;" vector-effect="non-scaling-stroke"  transform=" translate(-100.15, -98.8)" d="M 80.48 113.63 C 78.85000000000001 113.63 77.52000000000001 112.3 77.52000000000001 110.67 L 77.52000000000001 86.93 C 77.52000000000001 85.30000000000001 78.85000000000001 83.97000000000001 80.47000000000001 83.97000000000001 L 113.74000000000001 83.97000000000001 C 113.76 83.97000000000001 113.79 83.97000000000001 113.80000000000001 83.97000000000001 L 113.85000000000001 83.98000000000002 L 113.9 83.97000000000001 C 113.91000000000001 83.97000000000001 113.93 83.97000000000001 113.96000000000001 83.97000000000001 L 119.82000000000001 83.97000000000001 C 121.45 83.97000000000001 122.78 85.30000000000001 122.78 86.93 L 122.78 110.67 C 122.78 112.3 121.45 113.63 119.82000000000001 113.63 L 80.48 113.63 z M 80.48 84.9 C 79.36 84.9 78.45 85.81 78.45 86.93 L 78.45 110.67 C 78.45 111.79 79.36 112.7 80.48 112.7 L 119.82000000000001 112.7 C 120.87 112.7 121.74000000000001 111.9 121.84 110.87 L 121.85000000000001 110.87 L 121.86000000000001 110.67 L 121.86000000000001 86.93 C 121.86000000000001 85.81 120.95000000000002 84.9 119.83000000000001 84.9 L 113.97000000000001 84.9 C 113.95000000000002 84.9 113.92000000000002 84.9 113.91000000000001 84.9 L 113.86000000000001 84.89 L 113.81000000000002 84.9 C 113.80000000000001 84.9 113.78000000000002 84.9 113.75000000000001 84.9 L 80.48 84.9 z" stroke-linecap="round" />
</g>
</g>
</g>
</svg>