<?xml version="1.0" encoding="UTF-8" standalone="no" ?>
<!DOCTYPE svg PUBLIC "-//W3C//DTD SVG 1.1//EN" "http://www.w3.org/Graphics/SVG/1.1/DTD/svg11.dtd">
<svg xmlns="http://www.w3.org/2000/svg" xmlns:xlink="http://www.w3.org/1999/xlink" version="1.1" width="150" height="150" viewBox="0 0 150 150" xml:space="preserve">
<desc>Created with Fabric.js 4.2.0</desc>
<defs>
</defs>
<rect x="0" y="0" width="100%" height="100%" fill="transparent"></rect>
<g transform="matrix(0 0 0 0 0 0)" id="64e22945-42b5-4bc4-a7db-fff8dbf4b79e"  >
</g>
<g transform="matrix(1 0 0 1 75 75)" id="e5cd7038-2317-44f4-ad31-f7a030c7fd42"  >
<rect style="stroke: none; stroke-width: 1; stroke-dasharray: none; stroke-linecap: butt; stroke-dashoffset: 0; stroke-linejoin: miter; stroke-miterlimit: 4; fill: rgb(255,255,255); fill-rule: nonzero; opacity: 1; visibility: hidden;" vector-effect="non-scaling-stroke"  x="-75" y="-75" rx="0" ry="0" width="150" height="150" />
</g>
<g transform="matrix(0.4 0 0 0.4 75.2 75.2)"  >
<rect style="stroke: none; stroke-width: 1; stroke-dasharray: none; stroke-linecap: butt; stroke-dashoffset: 0; stroke-linejoin: miter; stroke-miterlimit: 4; fill: rgb(255,255,255); fill-rule: nonzero; opacity: 1; visibility: hidden;" vector-effect="non-scaling-stroke"  x="-75" y="-75" rx="0" ry="0" width="150" height="150" />
</g>
<g transform="matrix(2.68 0 0 2.68 75 83)"  >
<g style="" vector-effect="non-scaling-stroke"   >
		<g transform="matrix(0.8 0 0 0.8 5.25 0)"  >
<path style="stroke: none; stroke-width: 1; stroke-dasharray: none; stroke-linecap: butt; stroke-dashoffset: 0; stroke-linejoin: miter; stroke-miterlimit: 4; fill: rgb(147,149,152); fill-rule: nonzero; opacity: 1;" vector-effect="non-scaling-stroke"  transform=" translate(-100.9, -62.35)" d="M 124.1 62.92 L 124.1 86.85 C 124.1 87.17999999999999 123.83 87.44999999999999 123.5 87.44999999999999 L 123.5 87.44999999999999 C 123.17 87.44999999999999 122.9 87.17999999999999 122.9 86.85 L 122.9 83.28 L 115.78 80.91 C 115.53 80.83 115.37 80.6 115.37 80.34 L 115.37 78.43 L 103.94 78.43 L 103.75 78.59 C 102.96 79.29 101.94 79.68 100.9 79.68 C 98.49000000000001 79.68 96.53 77.72000000000001 96.53 75.31 C 96.53 74.26 96.91 73.27 97.62 72.45 L 97.78 72.26 L 97.78 57.3 L 83.32 57.3 C 82.99 57.3 82.72 57.029999999999994 82.72 56.699999999999996 L 82.72 53.529999999999994 L 78.3 53.529999999999994 C 77.97 53.529999999999994 77.7 53.25999999999999 77.7 52.92999999999999 L 77.7 45.4 C 77.7 45.07 77.97 44.8 78.3 44.8 L 82.72 44.8 L 82.72 41.629999999999995 C 82.72 41.3 82.99 41.029999999999994 83.32 41.029999999999994 L 86.52999999999999 41.029999999999994 L 85.26999999999998 38.099999999999994 C 85.18999999999998 37.91 85.20999999999998 37.699999999999996 85.31999999999998 37.529999999999994 C 85.42999999999998 37.35999999999999 85.61999999999998 37.25999999999999 85.81999999999998 37.25999999999999 L 117.20999999999998 37.25999999999999 C 117.53999999999998 37.25999999999999 117.80999999999997 37.529999999999994 117.80999999999997 37.85999999999999 L 117.80999999999997 46.64999999999999 C 117.80999999999997 46.97999999999999 117.53999999999998 47.24999999999999 117.20999999999998 47.24999999999999 L 114.03999999999998 47.24999999999999 L 114.03999999999998 56.68999999999999 C 114.03999999999998 57.01999999999999 113.76999999999998 57.28999999999999 113.43999999999998 57.28999999999999 L 103.99999999999999 57.28999999999999 L 103.99999999999999 72.19 L 115.35999999999999 72.19 L 115.35999999999999 70.28 C 115.35999999999999 70.02 115.52999999999999 69.79 115.76999999999998 69.71000000000001 L 122.88999999999999 67.34 L 122.88999999999999 62.910000000000004 C 122.88999999999999 62.580000000000005 123.15999999999998 62.31 123.48999999999998 62.31 L 123.48999999999998 62.31 C 123.83 62.32 124.1 62.59 124.1 62.92 z M 122.9 82.02 L 122.9 68.61999999999999 L 116.57000000000001 70.72999999999999 L 116.57000000000001 79.91 L 122.9 82.02 z M 100.9 72.15 C 99.15 72.15 97.73 73.57000000000001 97.73 75.32000000000001 C 97.73 77.07000000000001 99.15 78.49000000000001 100.9 78.49000000000001 C 101.81 78.49000000000001 102.67 78.11000000000001 103.25 77.44000000000001 C 103.78 76.85000000000001 104.07 76.10000000000001 104.07 75.32000000000001 C 104.07 74.54 103.77999999999999 73.79 103.25999999999999 73.21000000000001 C 102.67 72.53 101.81 72.15 100.9 72.15 z M 115.37 77.23 L 115.37 73.4 L 104.92 73.4 L 105.13 74.22 C 105.14 74.24 105.16 74.38 105.17 74.42 C 105.18 74.48 105.2 74.55 105.21000000000001 74.61 C 105.26 74.88 105.28 75.11 105.28 75.32 C 105.28 75.52999999999999 105.26 75.75999999999999 105.21000000000001 76.02999999999999 C 105.2 76.08999999999999 105.19000000000001 76.14999999999999 105.17 76.21 L 105.15 76.30999999999999 L 105.03 76.32999999999998 L 105.14 76.34999999999998 C 105.14 76.36999999999998 105.13 76.38999999999999 105.13 76.40999999999998 L 104.92 77.22999999999998 L 115.37 77.22999999999998 z M 98.99 71.32 L 99.80999999999999 71.11 C 100.21999999999998 71 100.57 70.95 100.89999999999999 70.95 C 101.22999999999999 70.95 101.58999999999999 71 101.99 71.10000000000001 L 102.80999999999999 71.31 L 102.80999999999999 57.3 L 98.99 57.3 L 98.99 71.32 z M 112.85 56.1 L 112.85 47.260000000000005 L 89.6 47.260000000000005 C 89.36 47.260000000000005 89.14 47.120000000000005 89.05 46.900000000000006 L 87.05 42.24000000000001 L 83.92 42.24000000000001 L 83.92 56.1 L 112.85 56.1 z M 82.72 52.33 L 82.72 46 L 78.9 46 L 78.9 52.33 L 82.72 52.33 z M 116.62 46.06 L 116.62 38.47 L 86.74 38.47 L 89.99 46.06 L 116.62 46.06 z" stroke-linecap="round" />
</g>
		<g transform="matrix(0.8 0 0 0.8 10.81 -8.52)"  >
<path style="stroke: none; stroke-width: 1; stroke-dasharray: none; stroke-linecap: butt; stroke-dashoffset: 0; stroke-linejoin: miter; stroke-miterlimit: 4; fill: rgb(147,149,152); fill-rule: nonzero; opacity: 1;" vector-effect="non-scaling-stroke"  transform=" translate(-107.81, -51.68)" d="M 107.18 52.28 C 106.85000000000001 52.28 106.58000000000001 52.01 106.58000000000001 51.68 C 106.58000000000001 51.35 106.85000000000001 51.08 107.18 51.08 L 108.44000000000001 51.08 C 108.77000000000001 51.08 109.04 51.35 109.04 51.68 C 109.04 52.01 108.77000000000001 52.28 108.44000000000001 52.28 L 107.18 52.28 z" stroke-linecap="round" />
</g>
		<g transform="matrix(0.8 0 0 0.8 5.78 -8.52)"  >
<path style="stroke: none; stroke-width: 1; stroke-dasharray: none; stroke-linecap: butt; stroke-dashoffset: 0; stroke-linejoin: miter; stroke-miterlimit: 4; fill: rgb(147,149,152); fill-rule: nonzero; opacity: 1;" vector-effect="non-scaling-stroke"  transform=" translate(-101.53, -51.68)" d="M 100.9 52.28 C 100.57000000000001 52.28 100.30000000000001 52.01 100.30000000000001 51.68 C 100.30000000000001 51.35 100.57000000000001 51.08 100.9 51.08 L 102.16000000000001 51.08 C 102.49000000000001 51.08 102.76 51.35 102.76 51.68 C 102.76 52.01 102.49000000000001 52.28 102.16000000000001 52.28 L 100.9 52.28 z" stroke-linecap="round" />
</g>
		<g transform="matrix(0.8 0 0 0.8 0.74 -8.52)"  >
<path style="stroke: none; stroke-width: 1; stroke-dasharray: none; stroke-linecap: butt; stroke-dashoffset: 0; stroke-linejoin: miter; stroke-miterlimit: 4; fill: rgb(147,149,152); fill-rule: nonzero; opacity: 1;" vector-effect="non-scaling-stroke"  transform=" translate(-95.25, -51.68)" d="M 94.62 52.28 C 94.29 52.28 94.02000000000001 52.01 94.02000000000001 51.68 C 94.02000000000001 51.35 94.29 51.08 94.62 51.08 L 95.88000000000001 51.08 C 96.21000000000001 51.08 96.48 51.35 96.48 51.68 C 96.48 52.01 96.21000000000001 52.28 95.88000000000001 52.28 L 94.62 52.28 z" stroke-linecap="round" />
</g>
		<g transform="matrix(0.8 0 0 0.8 -13.32 10.16)"  >
<path style="stroke: none; stroke-width: 1; stroke-dasharray: none; stroke-linecap: butt; stroke-dashoffset: 0; stroke-linejoin: miter; stroke-miterlimit: 4; fill: rgb(147,149,152); fill-rule: nonzero; opacity: 1;" vector-effect="non-scaling-stroke"  transform=" translate(-77.69, -75.01)" d="M 88.42 72.23 C 89.09 71.82000000000001 89.31 70.95 88.9 70.28 C 88.64 69.85 88.18 69.59 87.68 69.6 L 87.11000000000001 69.6 C 86.90000000000002 69.6 86.69000000000001 69.64999999999999 86.49000000000001 69.75 C 85.85000000000001 67.51 83.22000000000001 65.61 81.12 65.61 L 74.28 65.61 C 72.18 65.61 69.55 67.51 68.91 69.75 C 68.72 69.65 68.50999999999999 69.6 68.28999999999999 69.6 L 67.72 69.6 C 66.94 69.6 66.3 70.22999999999999 66.28999999999999 71.00999999999999 C 66.28999999999999 71.50999999999999 66.55 71.96999999999998 66.97 72.22999999999999 C 65.48 73.21999999999998 64.58 74.88 64.57 76.66999999999999 L 64.57 80.08999999999999 C 64.57 80.15999999999998 64.57 80.24 64.57 80.30999999999999 C 64.57 80.35 64.57 80.38999999999999 64.57 80.42999999999999 L 64.57 83.85 C 64.57 84.16999999999999 64.83 84.41999999999999 65.13999999999999 84.41999999999999 L 69.69999999999999 84.41999999999999 C 70.01999999999998 84.41999999999999 70.26999999999998 84.15999999999998 70.26999999999998 83.85 L 70.26999999999998 82.71 L 85.09999999999998 82.71 L 85.09999999999998 83.85 C 85.09999999999998 84.16999999999999 85.35999999999999 84.41999999999999 85.66999999999997 84.41999999999999 L 90.22999999999998 84.41999999999999 C 90.54999999999997 84.41999999999999 90.79999999999997 84.15999999999998 90.79999999999997 83.85 L 90.79999999999997 80.42999999999999 C 90.79999999999997 80.39999999999999 90.79999999999997 80.36999999999999 90.79999999999997 80.33999999999999 C 90.80999999999997 80.25999999999999 90.80999999999997 80.18999999999998 90.79999999999997 80.10999999999999 L 90.79999999999997 76.68999999999998 C 90.81 74.89 89.91 73.22 88.42 72.23 z M 87.11 70.73 L 87.67999999999999 70.73 C 87.83999999999999 70.73 87.97 70.86 87.97 71.02000000000001 C 87.97 71.18 87.84 71.31000000000002 87.67999999999999 71.31000000000002 L 87.11 71.31000000000002 C 86.95 71.31000000000002 86.82 71.18000000000002 86.82 71.02000000000001 C 86.82 70.86 86.95 70.73 87.11 70.73 z M 69.9 70.73 C 69.9 68.94 72.31 66.74000000000001 74.27000000000001 66.74000000000001 L 81.11000000000001 66.74000000000001 C 83.07000000000001 66.74000000000001 85.48000000000002 68.94000000000001 85.48000000000002 70.73 L 85.48000000000002 71.3 L 69.9 71.3 L 69.9 70.73 z M 67.71 70.73 L 68.27999999999999 70.73 C 68.43999999999998 70.73 68.57 70.86 68.57 71.02000000000001 C 68.57 71.18 68.44 71.31000000000002 68.27999999999999 71.31000000000002 L 67.71 71.31000000000002 C 67.55 71.31000000000002 67.41999999999999 71.18000000000002 67.41999999999999 71.02000000000001 C 67.43 70.86 67.56 70.73 67.71 70.73 z M 70.03 72.44 L 85.36 72.44 C 87.72 72.42 89.64 74.31 89.67 76.66 L 89.67 77 L 86.06 77 C 85.74000000000001 77 85.49000000000001 77.26 85.49000000000001 77.57 C 85.49000000000001 77.87999999999998 85.75000000000001 78.13999999999999 86.06 78.13999999999999 L 89.67 78.13999999999999 L 89.67 80.09999999999998 C 89.68 80.17999999999998 89.68 80.24999999999999 89.67 80.32999999999998 C 89.54 81.04999999999998 88.9 81.57999999999998 88.17 81.55999999999999 L 67.22 81.55999999999999 C 67.13 81.57 67.03999999999999 81.57 66.95 81.55999999999999 C 66.32000000000001 81.46 65.82000000000001 80.96 65.72 80.32999999999998 C 65.71 80.24999999999999 65.71 80.17999999999998 65.72 80.09999999999998 L 65.72 78.22999999999998 L 69.33 78.22999999999998 C 69.64999999999999 78.22999999999998 69.89999999999999 77.96999999999997 69.89999999999999 77.65999999999998 C 69.89999999999999 77.35 69.63999999999999 77.08999999999999 69.33 77.08999999999999 L 65.72 77.08999999999999 L 65.72 76.64999999999999 C 65.75 74.31 67.67 72.42 70.03 72.44 z M 69.14 83.28 L 65.72 83.28 L 65.72 82.25 C 65.75 82.27 65.78 82.29 65.81 82.3 L 65.95 82.39 L 66.2 82.5 L 66.35000000000001 82.56 C 66.44000000000001 82.59 66.54 82.62 66.64000000000001 82.64 L 66.78000000000002 82.64 C 66.93000000000002 82.67 67.08000000000001 82.68 67.22000000000001 82.68 L 69.14000000000001 82.68 L 69.14000000000001 83.28 z M 89.67 83.28 L 86.25 83.28 L 86.25 82.71000000000001 L 88.17 82.71000000000001 C 88.32000000000001 82.71000000000001 88.47 82.7 88.61 82.67 L 88.75 82.67 C 88.85 82.65 88.94 82.62 89.04 82.59 L 89.19000000000001 82.53 L 89.43 82.42 L 89.57000000000001 82.33 L 89.66000000000001 82.25 L 89.66000000000001 83.28 z M 72.75 80.24 L 82.64 80.24 C 83.69 80.17999999999999 84.5 79.28 84.44 78.22999999999999 C 84.39 77.25999999999999 83.61 76.49 82.64 76.42999999999999 L 72.75 76.42999999999999 C 71.7 76.49 70.89 77.38999999999999 70.95 78.44 C 71.01 79.41 71.78 80.19 72.75 80.24 z M 72.75 77.58 L 82.64 77.58 C 83.06 77.62 83.37 77.99 83.34 78.41 C 83.31 78.78 83.01 79.07 82.64 79.11 L 72.75 79.11 C 72.33 79.07 72.02 78.7 72.05 78.28 C 72.09 77.9 72.38 77.61 72.75 77.58 z" stroke-linecap="round" />
</g>
</g>
</g>
</svg>